<svg width="97" height="96" viewBox="0 0 97 96" fill="none" xmlns="http://www.w3.org/2000/svg">
    <path fill-rule="evenodd" clip-rule="evenodd" d="M48.5 96C75.0097 96 96.5 74.5097 96.5 48C96.5 21.4903 75.0097 0 48.5 0C21.9903 0 0.5 21.4903 0.5 48C0.5 74.5097 21.9903 96 48.5 96ZM65.4498 31.0503C68.1834 33.7839 68.1834 38.2161 65.4498 40.9497L58.3995 48L65.4498 55.0503C68.1834 57.7839 68.1834 62.2161 65.4498 64.9497C62.7161 67.6834 58.2839 67.6834 55.5503 64.9497L48.5 57.8995L41.4497 64.9497C38.7161 67.6834 34.2839 67.6834 31.5503 64.9497C28.8166 62.2161 28.8166 57.7839 31.5503 55.0503L38.6005 48L31.5503 40.9497C28.8166 38.2161 28.8166 33.7839 31.5503 31.0503C34.2839 28.3166 38.7161 28.3166 41.4497 31.0503L48.5 38.1005L55.5503 31.0503C58.2839 28.3166 62.7161 28.3166 65.4498 31.0503Z" fill="currentColor"/>
</svg>
