<svg width="96" height="96" viewBox="0 0 96 96" fill="none" xmlns="http://www.w3.org/2000/svg">
    <path fill-rule="evenodd" clip-rule="evenodd" d="M48 96C74.5097 96 96 74.5097 96 48C96 21.4903 74.5097 0 48 0C21.4903 0 0 21.4903 0 48C0 74.5097 21.4903 96 48 96ZM48 24C51.866 24 55 27.134 55 31V47C55 50.866 51.866 54 48 54C44.134 54 41 50.866 41 47V31C41 27.134 44.134 24 48 24ZM55 65C55 68.866 51.866 72 48 72C44.134 72 41 68.866 41 65C41 61.134 44.134 58 48 58C51.866 58 55 61.134 55 65Z" fill="currentColor"/>
</svg>
