<svg width="97" height="96" viewBox="0 0 97 96" fill="none" xmlns="http://www.w3.org/2000/svg">
    <path fill-rule="evenodd" clip-rule="evenodd" d="M48.5 96C75.0097 96 96.5 74.5097 96.5 48C96.5 21.4903 75.0097 0 48.5 0C21.9903 0 0.5 21.4903 0.5 48C0.5 74.5097 21.9903 96 48.5 96ZM37.5 29C33.634 29 30.5 32.134 30.5 36V60C30.5 63.866 33.634 67 37.5 67C41.366 67 44.5 63.866 44.5 60V36C44.5 32.134 41.366 29 37.5 29ZM59.5 29C55.634 29 52.5 32.134 52.5 36V60C52.5 63.866 55.634 67 59.5 67C63.366 67 66.5 63.866 66.5 60V36C66.5 32.134 63.366 29 59.5 29Z" fill="currentColor"/>
</svg>
