<svg width="96" height="96" viewBox="0 0 96 96" fill="none" xmlns="http://www.w3.org/2000/svg">
    <path fill-rule="evenodd" clip-rule="evenodd" d="M48 96C74.5097 96 96 74.5097 96 48C96 21.4903 74.5097 0 48 0C21.4903 0 0 21.4903 0 48C0 74.5097 21.4903 96 48 96ZM71.9498 41.9497C74.6834 39.2161 74.6834 34.7839 71.9498 32.0503C69.2161 29.3166 64.7839 29.3166 62.0503 32.0503L43 51.1005L35.9497 44.0503C33.2161 41.3166 28.7839 41.3166 26.0503 44.0503C23.3166 46.7839 23.3166 51.2161 26.0503 53.9497L37.3431 65.2426C40.4673 68.3668 45.5327 68.3668 48.6569 65.2426L71.9498 41.9497Z" fill="currentColor"/>
</svg>
