<svg width="32" height="32" viewBox="0 0 32 32" fill="none" xmlns="http://www.w3.org/2000/svg">
    <path d="M30.551 19.6287C28.5474 27.6644 20.4076 32.5548 12.37 30.5509C4.33573 28.5475 -0.555262 20.4082 1.44933 12.373C3.45204 4.33634 11.5918 -0.554549 19.627 1.44887C27.6641 3.45229 32.5547 11.5925 30.551 19.6287Z" fill="#F7931A"/>
    <path d="M23.1603 13.6405C23.4765 11.5389 21.8669 10.4092 19.6659 9.65557L20.3798 6.80879L18.6366 6.37694L17.9415 9.1487C17.4832 9.03518 17.0126 8.92808 16.5448 8.82197L17.2449 6.03195L15.5027 5.6001L14.7882 8.44589C14.4089 8.36001 14.0365 8.27512 13.675 8.18579L13.677 8.17691L11.273 7.58021L10.8092 9.43101C10.8092 9.43101 12.1026 9.72566 12.0753 9.74392C12.7813 9.91913 12.9089 10.3836 12.8876 10.7517L12.0743 13.9948C12.123 14.0072 12.186 14.0249 12.2555 14.0526C12.1975 14.0383 12.1354 14.0225 12.0713 14.0072L10.9314 18.5503C10.845 18.7635 10.626 19.0833 10.1325 18.9619C10.1499 18.9871 8.86541 18.6475 8.86541 18.6475L8 20.6311L10.2685 21.1932C10.6906 21.2983 11.1041 21.4084 11.5113 21.5121L10.7899 24.3914L12.5311 24.8233L13.2456 21.9745C13.7212 22.1028 14.183 22.2213 14.6348 22.3328L13.9228 25.1682L15.666 25.6001L16.3875 22.7262C19.36 23.2854 21.5953 23.0598 22.5362 20.3873C23.2943 18.2354 22.4984 16.9941 20.9344 16.1847C22.0734 15.9236 22.9314 15.1789 23.1603 13.6405ZM19.1773 19.1924C18.6386 21.3442 14.9938 20.181 13.8121 19.8893L14.7693 16.0746C15.951 16.3678 19.7404 16.9482 19.1773 19.1924ZM19.7165 13.6094C19.225 15.5668 16.1913 14.5723 15.2073 14.3285L16.0752 10.8687C17.0592 11.1125 20.2284 11.5676 19.7165 13.6094Z" fill="white"/>
</svg>
