<svg width="32" height="32" viewBox="0 0 200 200" fill="none" xmlns="http://www.w3.org/2000/svg">
    <g clip-path="url(#clip0_853_766)">
        <circle cx="99.0003" cy="100" r="83.3333" fill="#F1B90A"/>
        <path d="M98.9988 41.6661L113.452 56.4232L77.0583 92.7083L62.6055 78.2984L98.9988 41.6661Z" fill="white"/>
        <path d="M120.939 63.5422L135.392 78.2993L77.0583 136.46L62.6055 122.05L120.939 63.5422Z" fill="white"/>
        <path d="M55.1189 85.4156L69.5717 100.173L55.1189 114.583L40.666 100.173L55.1189 85.4156Z" fill="white"/>
        <path d="M142.886 85.4156L157.338 100.173L99.0046 158.333L84.5518 143.923L142.886 85.4156Z" fill="white"/>
        <path d="M158 76.7587C177.196 76.7587 192.758 61.1967 192.758 42.0001C192.758 22.8034 177.196 7.24146 158 7.24146C138.803 7.24146 123.241 22.8034 123.241 42.0001C123.241 61.1967 138.803 76.7587 158 76.7587Z" fill="#FFDAD1"/>
        <path fill-rule="evenodd" clip-rule="evenodd" d="M142.354 22.6634C141.903 22.5594 141.432 22.7096 141.124 23.0552C140.816 23.4007 140.722 23.8866 140.877 24.3223L155.36 64.874C155.522 65.3259 155.925 65.6476 156.401 65.7049C156.877 65.7622 157.345 65.5451 157.609 65.1444L177.161 35.4547C177.529 34.8961 177.398 34.1475 176.863 33.7462L171.07 29.4013C170.929 29.2955 170.767 29.2203 170.595 29.1806L142.354 22.6634ZM144.919 28.1119L156.313 60.0161L158.067 43.6503L144.919 28.1119ZM157.514 60.6862L173.15 36.9433L159.317 43.8596L157.514 60.6862ZM174.272 34.967L170.347 32.023L161.624 41.2912L174.272 34.967ZM169.152 31.4454L144.604 25.7804L158.75 42.4983L169.152 31.4454Z" fill="#FF060A"/>
    </g>
    <defs>
        <clipPath id="clip0_853_766">
            <rect width="200" height="200" fill="white"/>
        </clipPath>
    </defs>
</svg>