<svg width="32" height="32" viewBox="0 0 200 200" fill="none" xmlns="http://www.w3.org/2000/svg">
  <g clip-path="url(#clip0_853_785)">
    <circle cx="99.0003" cy="100" r="83.3333" fill="#F1B90A"/>
    <path d="M98.9988 41.6661L113.452 56.4232L77.0583 92.7083L62.6055 78.2984L98.9988 41.6661Z" fill="white"/>
    <path d="M120.939 63.5422L135.392 78.2993L77.0583 136.46L62.6055 122.05L120.939 63.5422Z" fill="white"/>
    <path d="M55.1189 85.4156L69.5717 100.173L55.1189 114.583L40.666 100.173L55.1189 85.4156Z" fill="white"/>
    <path d="M142.886 85.4156L157.338 100.173L99.0046 158.333L84.5518 143.923L142.886 85.4156Z" fill="white"/>
    <mask id="mask0_853_785" style="mask-type:luminance" maskUnits="userSpaceOnUse" x="123" y="7" width="70"
      height="70">
      <path d="M193 7H123V77H193V7Z" fill="white"/>
    </mask>
    <g mask="url(#mask0_853_785)">
      <path
        d="M158 77C177.33 77 193 61.33 193 42C193 22.67 177.33 7 158 7C138.67 7 123 22.67 123 42C123 61.33 138.67 77 158 77Z"
        fill="#D4DAEC"/>
      <path
        d="M157.28 63.2712L146.847 46.3035C146.376 45.538 147.355 44.713 148.084 45.2604L157.486 52.317C157.789 52.5446 158.214 52.5446 158.518 52.317L167.919 45.2604C168.648 44.713 169.627 45.538 169.156 46.3035L158.723 63.2712C158.399 63.7985 157.604 63.7985 157.28 63.2712Z"
        fill="#636890"/>
      <path
        d="M146.43 38.8922L157.25 19.0962C157.566 18.5176 158.431 18.5232 158.739 19.1058L169.576 39.5948C169.772 39.9645 169.643 40.4162 169.278 40.6385L158.475 47.2269C158.19 47.401 157.824 47.3933 157.546 47.2073L146.692 39.9258C146.346 39.6937 146.234 39.2509 146.43 38.8922Z"
        fill="#636890"/>
    </g>
  </g>
  <defs>
    <clipPath id="clip0_853_785">
      <rect width="200" height="200" fill="white"/>
    </clipPath>
  </defs>
</svg>