<svg width="40" height="40" viewBox="0 0 40 40" fill="none" xmlns="http://www.w3.org/2000/svg">
    <path d="M19.9938 40C31.0469 40 40.0002 31.0496 40.0002 20C40.0002 8.95042 31.0469 0 19.9938 0C8.94066 0 0.000244141 8.95042 0.000244141 20C0.000244141 31.0496 8.95354 40 19.9938 40Z" fill="#008CE3"/>
    <path d="M23.4094 11H15.3902L14.7329 14.7351L21.9634 14.7483C25.526 14.7483 26.5777 16.0464 26.5514 18.2053C26.5382 19.3179 26.065 21.1854 25.8546 21.7947C25.3025 23.4106 24.1851 25.2649 19.952 25.2517H12.9187L12.2483 29H20.2412C23.0545 29 24.2639 28.6689 25.526 28.0728C28.3393 26.7616 30.022 23.9669 30.6924 20.3113C31.7047 14.8676 30.4558 11 23.4094 11Z" fill="white"/>
    <path d="M11.945 18.1255C9.8416 18.1255 9.53924 19.503 9.34205 20.3374C9.07912 21.4235 9.00024 21.8738 9.00024 21.8738H17.2035C19.3069 21.8738 19.6092 20.4963 19.8064 19.6619C20.0694 18.5758 20.1482 18.1255 20.1482 18.1255H11.945Z" fill="white"/>
</svg>
