<svg width="32" height="32" viewBox="0 0 32 32" fill="none" xmlns="http://www.w3.org/2000/svg">
    <path d="M30.551 19.6287C28.5474 27.6644 20.4076 32.5548 12.37 30.5509C4.33573 28.5475 -0.555262 20.4082 1.44933 12.373C3.45204 4.33634 11.5918 -0.554549 19.627 1.44887C27.6641 3.45229 32.5547 11.5925 30.551 19.6287Z" fill="#151C2F"/>
    <path d="M21.9999 17.0889L15.9999 25.5333V20.6444L21.9999 17.0889Z" fill="#62688F"/>
    <path d="M21.9999 15.9444L15.9999 6V15.9444H21.9999Z" fill="#62688F"/>
    <path d="M21.9999 15.9444L15.9999 13.2222V19.4999L21.9999 15.9444Z" fill="#454A75"/>
    <path d="M10 17.0889L16 25.5333V20.6444L10 17.0889Z" fill="#8A92B2"/>
    <path d="M10 15.9444L16 6V15.9444H10Z" fill="#8A92B2"/>
    <path d="M10 15.9444L16 13.2222V19.4999L10 15.9444Z" fill="#62688F"/>
</svg>
