<svg width="40" height="40" viewBox="0 0 40 40" fill="none" xmlns="http://www.w3.org/2000/svg">
    <circle cx="20" cy="20" r="20" fill="#A8D5FE"/>
    <path fill-rule="evenodd" clip-rule="evenodd" d="M9 23.6716H11.4213C12.7606 28.5556 15.9615 31 21.0214 31C22.9461 31 24.6048 30.736 26 30.208V27.3077C24.5319 27.9115 23.1829 28.2121 21.9516 28.2121C20.2285 28.2121 18.9013 27.8809 17.9724 27.216C17.0422 26.5499 16.2529 25.3693 15.6057 23.6716H21.6237L22.5951 21.2235H15.086C15.0496 20.7616 15.0314 20.2384 15.0314 19.653C15.0314 19.1446 15.0544 18.7388 15.0994 18.4369H23.7159L24.7007 15.9888H15.6883C16.5541 13.1875 18.5006 11.7869 21.5278 11.7869C23.0686 11.7792 24.5933 12.1026 26 12.7353V9.65045C24.4609 9.2107 22.8678 8.9918 21.2679 9.00023C16.2165 9.00023 12.9707 11.3298 11.5294 15.9888H9.986L9 18.4369H11.0521C11.0046 18.9447 10.9815 19.4546 10.9829 19.9647C10.9829 20.3704 10.9963 20.7897 11.0242 21.2235H9.98357L9 23.6716Z" fill="#3057BA"/>
</svg>
