<svg width="40" height="40" viewBox="0 0 40 40" fill="none" xmlns="http://www.w3.org/2000/svg">
    <circle cx="19.9995" cy="19.9995" r="20" fill="#FFD6C6"/>
    <g clip-path="url(#clip0_2355_32964)">
        <path d="M27.0854 14.2249L22.9711 14.9656C22.9711 12.2007 21.2948 11.6739 20.4567 11.7561C17.1652 11.7561 17.8662 15.8706 18.6281 17.9279H22.9711V21.8778H19.3138C19.4967 23.4578 18.3233 25.8277 17.7138 26.8152C19.5424 26.0746 21.5995 27.309 22.9711 27.5558C24.0684 27.7533 25.7139 26.9798 26.3995 26.5684C26.9328 27.7204 27.9995 30.1233 27.9995 30.5183C27.9995 31.012 25.2567 31.7526 22.9711 31.7526C20.6856 31.7526 19.0852 30.5183 17.2567 30.5183C15.7938 30.5183 14.209 31.5058 13.5995 31.9995L11.9995 27.8027C14.3767 26.6177 14.9709 23.359 14.9709 21.8778H11.9995V17.9279H14.0569C13.3711 14.9654 13.1426 8.79379 19.9997 8.05317C25.4854 7.46068 27.0092 11.9208 27.0854 14.2249Z" fill="#F26631"/>
    </g>
    <defs>
        <clipPath id="clip0_2355_32964">
            <rect width="16" height="24" fill="white" transform="translate(11.9995 7.99951)"/>
        </clipPath>
    </defs>
</svg>
