<svg width="40" height="40" viewBox="0 0 40 40" fill="none" xmlns="http://www.w3.org/2000/svg">
    <circle cx="20" cy="20" r="18" fill="white"/>
    <path fill-rule="evenodd" clip-rule="evenodd" d="M0 20C0 8.95431 8.95427 0 19.9999 0H20.1161C25.405 0.0153897 30.4712 2.13118 34.2001 5.88191C37.929 9.63264 40.0153 14.7111 39.9998 20C39.9998 31.0457 31.0456 40 19.9999 40C8.95427 40 0 31.0457 0 20ZM18.2572 27.7004L20.3395 20.6786L23.5841 19.7585L24.262 17.434L21.0659 18.4026L24.4557 6.87713V6.69311C24.4507 6.5441 24.3866 6.40321 24.2776 6.30147C24.1686 6.19974 24.0236 6.14551 23.8746 6.15074H19.5647C19.229 6.14039 18.9294 6.36011 18.8383 6.68343L14.819 20.3396L11.6229 21.3081L10.8965 23.5357L14.0926 22.5672L11.2355 32.3009H28.2814C28.6182 32.3148 28.9198 32.0936 29.0078 31.7682L29.9763 28.4268V28.2428C29.9713 28.0937 29.9072 27.9528 29.7982 27.8511C29.6892 27.7494 29.5442 27.6952 29.3952 27.7004H18.2572Z" fill="#345D9D"/>
</svg>
