<svg width="30" height="30" viewBox="0 0 30 30" fill="none" xmlns="http://www.w3.org/2000/svg">
    <circle cx="15" cy="15" r="15" fill="#FFDAD1"/>
    <path fill-rule="evenodd" clip-rule="evenodd" d="M9.11515 7.01345C8.9375 6.97141 8.75105 7.02954 8.62876 7.16509C8.50647 7.30063 8.46778 7.49206 8.52783 7.66446L14.274 24.1636C14.337 24.3442 14.4975 24.4732 14.6874 24.4957C14.8774 24.5182 15.0636 24.4303 15.167 24.2693L22.9244 12.1896C23.0647 11.971 23.0143 11.6814 22.8085 11.5231L20.51 9.75532C20.4538 9.71215 20.3892 9.6814 20.3203 9.66509L9.11515 7.01345ZM10.3568 9.87567L14.4584 21.6523L15.0895 15.6113L10.3568 9.87567ZM15.4259 22.0155L21.0797 13.2115L16.0778 15.7761L15.4259 22.0155ZM21.5732 11.8346L20.4223 10.9494L17.8647 13.7361L21.5732 11.8346ZM19.4825 10.4945L10.3881 8.3423L15.6287 14.6934L19.4825 10.4945Z" fill="#FF060A"/>
</svg>
