<svg width="40" height="40" viewBox="0 0 40 40" fill="none" xmlns="http://www.w3.org/2000/svg">
    <circle cx="20" cy="20" r="20" fill="#AEDFC2"/>
    <path fill-rule="evenodd" clip-rule="evenodd" d="M28 23.7848C28 20.7572 26.0603 19.0472 21.5225 17.9816V12.6536C22.9255 12.9344 24.2683 13.5236 25.5815 14.4488L27.2542 11.8136C25.6066 10.637 23.6715 9.90221 21.6418 9.6824V8H19.0449V9.626C15.3132 9.9068 12.7766 11.9816 12.7766 15.0092C12.7766 18.1772 14.8062 19.7192 19.1643 20.7848V26.2808C17.2234 26 15.6123 25.1588 13.9102 23.8688L12 26.42C14.0447 27.9547 16.4808 28.9149 19.0449 29.1968V32H21.6418V29.2244C25.4326 28.916 28 26.8688 28 23.7848ZM19.1631 17.3924C16.8652 16.748 16.2991 15.9908 16.2991 14.8124C16.2991 13.58 17.2837 12.5984 19.1643 12.458L19.1631 17.3924ZM24.4775 23.9804C24.4775 25.3268 23.4031 26.252 21.5225 26.3924V21.3176C23.8511 21.9632 24.4775 22.7192 24.4775 23.9816V23.9804Z" fill="#368158"/>
</svg>
