<svg width="40" height="32" viewBox="0 0 40 32" fill="none" xmlns="http://www.w3.org/2000/svg">
<g clip-path="url(#clip0_10405_54545)">
<path d="M16 32C24.8366 32 32 24.8366 32 16C32 7.16344 24.8366 0 16 0C7.16344 0 0 7.16344 0 16C0 24.8366 7.16344 32 16 32Z" fill="#2775CA"/>
<path fill-rule="evenodd" clip-rule="evenodd" d="M19.921 4.78739C20.2781 4.89841 22.9312 5.9524 24.8366 8.08785C26.7419 10.2233 27.6966 12.6836 27.9296 14.9821C28.1625 17.2806 27.8623 20.0824 26.3494 22.5549C24.8366 25.0274 23.2782 26.0703 22.4419 26.6259C21.6055 27.1815 20.4282 27.677 19.9872 27.8345C19.5461 27.9919 19.4244 28.0654 19.2328 27.926C19.0412 27.7865 18.9953 27.6841 18.9953 27.4912V26.416C18.9953 26.2623 19.0725 25.9626 19.4968 25.796C19.921 25.6293 20.6964 25.3364 21.7071 24.6117C22.7178 23.8869 23.4254 23.1985 24.3752 21.7911C25.325 20.3836 25.8419 18.2574 25.909 17.2195C25.9762 16.1815 26.0114 14.5311 25.2198 12.5521C24.4282 10.573 23.3447 9.50166 22.5259 8.7363C21.7071 7.97095 20.8267 7.51364 20.3257 7.26755C19.8246 7.02146 19.5 6.91477 19.3884 6.86474C19.2768 6.8147 18.9953 6.54949 18.9953 6.17644V5.31673C18.9953 5.16155 18.9604 4.99205 19.1438 4.78739C19.3273 4.58272 19.564 4.67636 19.921 4.78739ZM12.079 4.78739C12.436 4.67636 12.6727 4.58272 12.8562 4.78739C13.0396 4.99205 13.0047 5.16155 13.0047 5.31673V6.17644C13.0047 6.54949 12.7232 6.8147 12.6116 6.86474C12.5 6.91477 12.1754 7.02146 11.6743 7.26755C11.1733 7.51364 10.2929 7.97095 9.47409 8.7363C8.65529 9.50166 7.5718 10.573 6.78018 12.5521C5.98855 14.5311 6.02383 16.1815 6.09096 17.2195C6.15809 18.2574 6.67501 20.3836 7.62483 21.7911C8.57464 23.1985 9.28224 23.8869 10.2929 24.6117C11.3036 25.3364 12.079 25.6293 12.5032 25.796C12.9275 25.9626 13.0047 26.2623 13.0047 26.416V27.4912C13.0047 27.6841 12.9588 27.7865 12.7672 27.926C12.5756 28.0654 12.4539 27.9919 12.0128 27.8345C11.5718 27.677 10.3945 27.1815 9.55815 26.6259C8.72181 26.0703 7.16343 25.0274 5.65056 22.5549C4.13769 20.0824 3.83745 17.2806 4.07043 14.9821C4.3034 12.6836 5.2581 10.2233 7.16343 8.08785C9.06875 5.9524 11.7219 4.89841 12.079 4.78739ZM16.4502 8.15037C16.9016 8.15037 17.0056 8.5794 17.0056 8.74018L17.0054 10.2865C17.1573 10.3139 17.3174 10.3468 17.4906 10.3851C18.4848 10.6051 19.1269 11.3276 19.424 11.7057C19.7212 12.0839 19.9435 12.6998 19.9949 13.0675C20.0462 13.4352 19.7649 13.6195 19.5449 13.6195H18.4593C18.27 13.6195 18.0627 13.4814 18.0109 13.3294C17.9591 13.1775 17.8871 12.8724 17.6668 12.6023C17.4465 12.3321 17.1484 12.0817 16.7524 11.9865C16.3565 11.8913 15.7803 11.7848 15.0674 11.9397C14.3546 12.0946 13.8838 12.574 13.8185 13.1718C13.7531 13.7696 13.88 14.0821 14.026 14.2849C14.172 14.4876 14.4005 14.7942 15.2889 15.0095C16.1774 15.2248 17.5029 15.252 18.6497 15.754C19.7964 16.2561 20.1972 17.0751 20.3514 18.0425C20.5056 19.01 20.2743 19.9071 19.7964 20.6294C19.3186 21.3517 18.2566 22.1046 17.0955 22.2566L17.0055 22.2678L17.0056 23.855C17.0056 24.0158 16.9016 24.4449 16.4502 24.4449H15.4263C15.0879 24.4449 14.9326 24.0158 14.9326 23.855L14.9326 22.2463C14.699 22.2091 14.474 22.1609 14.253 22.1046C13.4385 21.8971 12.5473 21.3423 12.132 20.717C11.7167 20.0916 11.5219 19.4201 11.4772 19.0436C11.4325 18.6672 11.7101 18.4811 11.9013 18.4811H13.102C13.1966 18.4811 13.4866 18.5489 13.5586 18.958C13.6306 19.367 13.7601 19.6844 14.026 19.9573C14.2918 20.2301 14.7584 20.5851 15.6761 20.6294C16.5938 20.6737 17.0343 20.5343 17.4906 20.2539C17.947 19.9734 18.3301 19.3944 18.2566 18.594C18.1831 17.7936 17.6668 17.4713 16.7524 17.2103C15.8381 16.9492 15.0674 16.9071 14.599 16.7958C14.1305 16.6846 13.0074 16.3952 12.4314 15.754C11.8555 15.1128 11.6692 14.4615 11.6692 13.4796C11.6692 12.4978 12.1397 11.7718 12.6021 11.3217C13.0646 10.8716 13.8185 10.3851 14.8764 10.2553L14.9325 10.2485L14.9326 8.74018C14.9326 8.58428 15.0787 8.17613 15.396 8.15154L15.4263 8.15037H16.4502Z" fill="white"/>
</g>
<circle cx="32" cy="8" r="8" fill="black"/>
<path d="M28.6689 10.0511C28.7295 9.99055 28.8116 9.95656 28.8972 9.95656H36.7951C36.939 9.95656 37.011 10.1305 36.9092 10.2322L35.3486 11.7916C35.2881 11.8521 35.206 11.8861 35.1204 11.8861H27.2225C27.0786 11.8861 27.0066 11.7121 27.1083 11.6104L28.6689 10.0511Z" fill="url(#paint0_linear_10405_54545)"/>
<path d="M28.6689 4.22535C28.7295 4.16485 28.8116 4.13086 28.8972 4.13086H36.7951C36.939 4.13086 37.011 4.30484 36.9092 4.40653L35.3486 5.9659C35.2881 6.0264 35.206 6.06039 35.1204 6.06039H27.2225C27.0786 6.06039 27.0066 5.88641 27.1083 5.78472L28.6689 4.22535Z" fill="url(#paint1_linear_10405_54545)"/>
<path d="M35.3486 7.11965C35.2881 7.05914 35.206 7.02516 35.1204 7.02516H27.2225C27.0786 7.02516 27.0066 7.19914 27.1083 7.30083L28.6689 8.8602C28.7295 8.9207 28.8116 8.95469 28.8972 8.95469H36.7951C36.939 8.95469 37.011 8.78071 36.9092 8.67902L35.3486 7.11965Z" fill="url(#paint2_linear_10405_54545)"/>
<defs>
<linearGradient id="paint0_linear_10405_54545" x1="33.7511" y1="2.00356" x2="28.2851" y2="12.4732" gradientUnits="userSpaceOnUse">
<stop stop-color="#00FFA3"/>
<stop offset="1" stop-color="#DC1FFF"/>
</linearGradient>
<linearGradient id="paint1_linear_10405_54545" x1="33.7511" y1="2.00356" x2="28.2851" y2="12.4732" gradientUnits="userSpaceOnUse">
<stop stop-color="#00FFA3"/>
<stop offset="1" stop-color="#DC1FFF"/>
</linearGradient>
<linearGradient id="paint2_linear_10405_54545" x1="33.7511" y1="2.00356" x2="28.2851" y2="12.4732" gradientUnits="userSpaceOnUse">
<stop stop-color="#00FFA3"/>
<stop offset="1" stop-color="#DC1FFF"/>
</linearGradient>
<clipPath id="clip0_10405_54545">
<rect width="32" height="32" fill="white"/>
</clipPath>
</defs>
</svg>
