<svg width="32" height="32" viewBox="0 0 200 200" fill="none" xmlns="http://www.w3.org/2000/svg">
    <path d="M100 182C145.442 182 182 145.442 182 100C182 54.5581 145.442 18 100 18C54.5581 18 18 54.5581 18 100C18 145.442 54.5581 182 100 182Z" fill="#2775CA"/>
    <path d="M122.55 112.983C122.55 101.025 115.375 96.925 101.025 95.2169C90.7747 93.85 88.7247 91.1169 88.7247 86.333C88.7247 81.5492 92.1416 78.475 98.9747 78.475C105.125 78.475 108.542 80.525 110.25 85.65C110.592 86.675 111.617 87.358 112.642 87.358H118.108C119.475 87.358 120.5 86.333 120.5 84.9669V84.625C119.133 77.108 112.983 71.3 105.125 70.6169V62.4169C105.125 61.05 104.1 60.025 102.392 59.683H97.2666C95.8997 59.683 94.8747 60.708 94.5327 62.4169V70.275C84.2827 71.6419 77.7916 78.475 77.7916 87.0169C77.7916 98.2919 84.6247 102.733 98.9747 104.442C108.542 106.15 111.617 108.2 111.617 113.667C111.617 119.134 106.833 122.892 100.342 122.892C91.4577 122.892 88.3827 119.133 87.3577 114.008C87.0166 112.642 85.9916 111.958 84.9666 111.958H79.1577C77.7916 111.958 76.7666 112.983 76.7666 114.35V114.692C78.1327 123.233 83.5997 129.383 94.8747 131.092V139.292C94.8747 140.658 95.8997 141.683 97.6077 142.025H102.733C104.1 142.025 105.125 141 105.467 139.292V131.092C115.717 129.383 122.55 122.208 122.55 112.983V112.983Z" fill="white"/>
    <path fill-rule="evenodd" clip-rule="evenodd" d="M52.1668 83.2581C42.2579 109.567 55.9248 139.292 82.5748 148.858C83.5998 149.542 84.6248 150.908 84.6248 151.933V156.717C84.6248 157.4 84.6248 157.742 84.2829 158.083C83.9418 159.45 82.5748 160.133 81.2079 159.45C62.0748 153.3 47.3829 138.608 41.2329 119.475C30.9829 87.0169 48.7498 52.5081 81.2079 42.2581C81.5498 41.9169 82.2329 41.9169 82.5748 41.9169C83.9418 42.2581 84.6248 43.2831 84.6248 44.65V49.4331C84.6248 51.1419 83.9418 52.1669 82.5748 52.85C68.5668 57.975 57.2918 68.9081 52.1668 83.2581ZM115.717 43.625C116.058 42.2581 117.425 41.575 118.792 42.2581C137.583 48.4081 152.617 63.1 158.767 82.575C169.017 115.033 151.25 149.542 118.792 159.792C118.45 160.133 117.767 160.133 117.425 160.133C116.058 159.792 115.375 158.767 115.375 157.4V152.617C115.375 150.908 116.058 149.883 117.425 149.2C131.433 144.075 142.708 133.142 147.833 118.792C157.742 92.483 144.075 62.758 117.425 53.1919C116.4 52.5081 115.375 51.1419 115.375 49.775V44.9919C115.375 44.3081 115.375 43.9669 115.717 43.625Z" fill="white"/>
</svg>
