<svg width="32" height="32" viewBox="0 0 200 200" fill="none" xmlns="http://www.w3.org/2000/svg">
    <circle cx="100.003" cy="99.9999" r="83.3333" fill="#77E1C0"/>
    <path d="M109.405 108.256V108.242C108.842 108.282 105.937 108.456 99.4713 108.456C94.3017 108.456 90.6764 108.309 89.3938 108.242V108.256C69.5137 107.36 54.6854 103.831 54.6854 99.5944C54.6854 95.3707 69.5268 91.8287 89.3938 90.9332V104.74C90.6895 104.834 94.4194 105.061 99.5629 105.061C105.74 105.061 108.829 104.794 109.405 104.74V90.9465C129.246 91.8554 144.035 95.3841 144.035 99.6078C144.035 103.831 129.233 107.36 109.405 108.269M109.405 89.5164V77.1661H137.085V58.3333H61.7265V77.1661H89.4069V89.5164C66.9092 90.5723 50 95.1168 50 100.57C50 106.023 66.9223 110.568 89.4069 111.637V151.228H109.418V111.637C131.876 110.581 148.759 106.037 148.759 100.583C148.759 95.1435 131.876 90.5856 109.418 89.5297" fill="#128D67"/>
    <g clip-path="url(#clip0_241_404)">
        <circle cx="158" cy="42" r="35" fill="#D4DAEC"/>
        <path d="M157.28 63.2712L146.847 46.3035C146.376 45.538 147.355 44.713 148.084 45.2604L157.486 52.317C157.789 52.5446 158.214 52.5446 158.518 52.317L167.919 45.2604C168.648 44.713 169.627 45.538 169.156 46.3035L158.723 63.2712C158.399 63.7985 157.604 63.7985 157.28 63.2712Z" fill="#636890"/>
        <path d="M146.43 38.8922L157.25 19.0962C157.566 18.5176 158.431 18.5232 158.739 19.1058L169.576 39.5948C169.772 39.9645 169.643 40.4162 169.278 40.6385L158.475 47.2269C158.19 47.401 157.824 47.3933 157.546 47.2073L146.692 39.9258C146.346 39.6937 146.234 39.2509 146.43 38.8922Z" fill="#636890"/>
    </g>
    <defs>
        <clipPath id="clip0_241_404">
            <rect width="70" height="70" fill="white" transform="translate(123 7)"/>
        </clipPath>
    </defs>
</svg>
