<svg width="32" height="32" viewBox="0 0 200 200" fill="none" xmlns="http://www.w3.org/2000/svg">
    <circle cx="100.003" cy="99.9999" r="83.3333" fill="#77E1C0"/>
    <path d="M109.405 108.256V108.242C108.842 108.282 105.937 108.456 99.4713 108.456C94.3017 108.456 90.6764 108.309 89.3938 108.242V108.256C69.5137 107.36 54.6854 103.831 54.6854 99.5944C54.6854 95.3707 69.5268 91.8287 89.3938 90.9332V104.74C90.6895 104.834 94.4194 105.061 99.5629 105.061C105.74 105.061 108.829 104.794 109.405 104.74V90.9465C129.246 91.8554 144.035 95.3841 144.035 99.6078C144.035 103.831 129.233 107.36 109.405 108.269M109.405 89.5163V77.1661H137.085V58.3332H61.7265V77.1661H89.4069V89.5163C66.9092 90.5723 50 95.1167 50 100.57C50 106.023 66.9223 110.568 89.4069 111.637V151.228H109.418V111.637C131.876 110.581 148.759 106.037 148.759 100.583C148.759 95.1435 131.876 90.5856 109.418 89.5297" fill="#128D67"/>
    <circle cx="158" cy="42" r="34.7586" fill="#FFDAD1"/>
    <path fill-rule="evenodd" clip-rule="evenodd" d="M142.354 22.6634C141.903 22.5594 141.432 22.7096 141.124 23.0552C140.816 23.4007 140.722 23.8866 140.877 24.3223L155.36 64.874C155.522 65.3259 155.925 65.6476 156.401 65.7049C156.877 65.7622 157.345 65.5451 157.609 65.1444L177.161 35.4547C177.529 34.8961 177.398 34.1475 176.863 33.7462L171.07 29.4013C170.929 29.2955 170.767 29.2203 170.595 29.1806L142.354 22.6634ZM144.919 28.1119L156.313 60.0161L158.067 43.6503L144.919 28.1119ZM157.514 60.6862L173.15 36.9433L159.317 43.8596L157.514 60.6862ZM174.272 34.967L170.347 32.023L161.624 41.2912L174.272 34.967ZM169.152 31.4454L144.604 25.7804L158.75 42.4983L169.152 31.4454Z" fill="#FF060A"/>
</svg>
