<svg width="40" height="32" viewBox="0 0 40 32" fill="none" xmlns="http://www.w3.org/2000/svg">
<path d="M31.5177 19.8705C31.5177 19.8705 31.5177 19.8705 31.5177 19.8705C29.3808 28.442 20.6992 33.6584 12.1267 31.521C3.55778 29.3841 -1.65868 20.702 0.479177 12.1312C2.61515 3.5587 11.2967 -1.65814 19.8666 0.478775C28.4384 2.61567 33.6545 11.2986 31.5175 19.8704C31.5175 19.8705 31.5176 19.8705 31.5176 19.8705L31.5176 19.8705C31.5176 19.8705 31.5176 19.8705 31.5177 19.8705Z" fill="#50AF95"/>
<path fill-rule="evenodd" clip-rule="evenodd" d="M18.0238 17.8139C17.9107 17.8224 17.3261 17.8573 16.0223 17.8573C14.9852 17.8573 14.2489 17.8261 13.9906 17.8139C9.98278 17.6376 6.99131 16.9399 6.99131 16.1046C6.99131 15.2693 9.98278 14.5726 13.9906 14.3934V17.119C14.2527 17.1379 15.0031 17.1822 16.0402 17.1822C17.2847 17.1822 17.9078 17.1304 18.02 17.12V14.3953C22.0193 14.5735 25.0042 15.2712 25.0042 16.1046C25.0042 16.938 22.0203 17.6357 18.02 17.8129L18.0238 17.8139ZM18.0243 14.1134V11.6744H23.6056V7.95508H8.40979V11.6744H13.9901V14.1124C9.4544 14.3208 6.0434 15.2193 6.0434 16.2959C6.0434 17.3726 9.4544 18.2701 13.9901 18.4794V26.2951H18.0234V18.4766C22.5488 18.2682 25.9541 17.3707 25.9541 16.295C25.9541 15.2193 22.5516 14.3217 18.0234 14.1124L18.0243 14.1134Z" fill="white"/>
<circle cx="32" cy="8" r="8" fill="black"/>
<g clip-path="url(#clip0_1218_26822)">
<path d="M35.9588 10.1278L34.6382 11.5229C34.6095 11.5532 34.5747 11.5774 34.5361 11.5939C34.4975 11.6104 34.4559 11.6189 34.4138 11.6189H28.1533C28.1234 11.6189 28.0942 11.6103 28.0692 11.5942C28.0443 11.578 28.0246 11.5551 28.0127 11.5281C28.0008 11.5011 27.9972 11.4713 28.0022 11.4423C28.0073 11.4133 28.0208 11.3864 28.0412 11.3649L29.3629 9.96977C29.3915 9.93954 29.4261 9.91543 29.4646 9.89892C29.5031 9.88241 29.5446 9.87385 29.5865 9.87378H35.8467C35.8766 9.87378 35.9058 9.88238 35.9308 9.89851C35.9557 9.91465 35.9754 9.93763 35.9873 9.96461C35.9992 9.9916 36.0029 10.0214 35.9978 10.0504C35.9927 10.0794 35.9792 10.1063 35.9588 10.1278ZM34.6382 7.31852C34.6095 7.28821 34.5747 7.26405 34.5361 7.24753C34.4975 7.23103 34.4559 7.22252 34.4138 7.22254H28.1533C28.1234 7.22254 28.0942 7.23113 28.0692 7.24727C28.0443 7.26341 28.0246 7.28638 28.0127 7.31336C28.0008 7.34035 27.9972 7.37017 28.0022 7.39917C28.0073 7.42816 28.0208 7.45507 28.0412 7.47659L29.3629 8.87168C29.3915 8.90191 29.4261 8.92601 29.4646 8.94253C29.5031 8.95903 29.5446 8.96759 29.5865 8.96766H35.8467C35.8766 8.96766 35.9058 8.95906 35.9308 8.94293C35.9557 8.92679 35.9754 8.90382 35.9873 8.87684C35.9992 8.84985 36.0029 8.82003 35.9978 8.79103C35.9927 8.76204 35.9792 8.73513 35.9588 8.71361L34.6382 7.31852ZM28.1533 6.31642H34.4138C34.4559 6.31643 34.4975 6.30793 34.5361 6.29141C34.5747 6.2749 34.6095 6.25074 34.6382 6.22043L35.9588 4.82534C35.9792 4.80383 35.9927 4.77692 35.9978 4.74792C36.0029 4.71892 35.9992 4.6891 35.9873 4.66211C35.9754 4.63513 35.9557 4.61216 35.9308 4.59602C35.9058 4.57989 35.8766 4.57129 35.8467 4.57129H29.5865C29.5446 4.57136 29.5031 4.57991 29.4646 4.59642C29.4261 4.61293 29.3915 4.63705 29.3629 4.66727L28.0416 6.06237C28.0212 6.08385 28.0077 6.11074 28.0026 6.1397C27.9975 6.16866 28.0011 6.19846 28.013 6.22544C28.0248 6.25241 28.0444 6.27538 28.0694 6.29154C28.0943 6.3077 28.1235 6.31634 28.1533 6.31642Z" fill="url(#paint0_linear_1218_26822)"/>
</g>
<defs>
<linearGradient id="paint0_linear_1218_26822" x1="28.6753" y1="11.7869" x2="35.1296" y2="4.40018" gradientUnits="userSpaceOnUse">
<stop offset="0.08" stop-color="#9945FF"/>
<stop offset="0.3" stop-color="#8752F3"/>
<stop offset="0.5" stop-color="#5497D5"/>
<stop offset="0.6" stop-color="#43B4CA"/>
<stop offset="0.72" stop-color="#28E0B9"/>
<stop offset="0.97" stop-color="#19FB9B"/>
</linearGradient>
<clipPath id="clip0_1218_26822">
<rect width="8" height="7.04762" fill="white" transform="translate(28 4.57129)"/>
</clipPath>
</defs>
</svg>
