<svg width="80" height="40" viewBox="0 0 80 40" fill="none" xmlns="http://www.w3.org/2000/svg">
    <g clip-path="url(#clip0_4177_163865)">
        <rect width="80" height="40" rx="4" fill="transparent" />
        <path d="M11.9126 13.8674H14.3029L13.1081 10.8252L11.9126 13.8674Z" fill="#2557D6" />
        <path
            d="M24.6248 24.0796V25.4922H28.6449V27.0137H24.6248V28.6438H29.0793L31.1435 26.3616L29.188 24.0796H24.6248Z"
            fill="#2557D6" />
        <path d="M56.0231 10.8252L54.7192 13.8674H57.2185L56.0231 10.8252Z" fill="#2557D6" />
        <path d="M36.25 29.5121V23.3193L33.425 26.3617L36.25 29.5121Z" fill="#2557D6" />
        <path
            d="M41.5737 25.0579C41.465 24.406 41.03 24.0796 40.3778 24.0796H38.0967V26.0352H40.4871C41.1389 26.0354 41.5737 25.7096 41.5737 25.0579Z"
            fill="#2557D6" />
        <path
            d="M49.1785 25.8188C49.3958 25.7099 49.5049 25.3837 49.5049 25.0583C49.6137 24.6241 49.3958 24.4065 49.1785 24.2977C48.9618 24.189 48.6354 24.189 48.3099 24.189H46.1365V25.9276H48.3098C48.6352 25.9276 48.9616 25.9276 49.1785 25.8188Z"
            fill="#2557D6" />
        <path
            d="M64.8233 8V9.30375L64.1719 8H59.0659V9.30375L58.4137 8H51.4603C50.2653 8 49.287 8.2175 48.4183 8.65203V8H43.5294V8.10875V8.65203C42.9863 8.21766 42.3344 8 41.4652 8H23.973L22.7773 10.7163L21.5825 8H17.6714H16.0416V9.30375L15.4983 8H15.3895H10.7178L8.54453 13.1063L6.04594 18.6472L6 18.7561H6.04594H11.587H11.6564L11.6958 18.6472L12.348 17.0178H13.7603L14.4122 18.7561H20.7131V18.6472V17.4523L21.2567 18.7559H24.4072L24.9502 17.4523V18.6472V18.7561H27.4491H39.9436H40.0523V15.9311H40.2702C40.4872 15.9311 40.4872 15.9311 40.4872 16.2572V18.6473H48.3098V17.9955C48.9617 18.3219 49.9389 18.6473 51.2428 18.6473H54.5027L55.1545 16.9094H56.6752L57.327 18.6473H63.6283V17.5611V17.018L64.6066 18.6473H64.8233H64.9323H69.7128V8H64.8236H64.8233ZM27.9927 17.1267H26.9059H26.2542V16.4753V11.1509L26.1455 11.4002V11.3972L23.618 17.1267H23.538H22.9569H22.0167L19.4094 11.1509V17.1267H15.7156L14.9552 15.497H11.2608L10.5002 17.1267H8.59031L11.8044 9.52125H14.5203L17.5623 16.8005V9.52125H18.2141H20.4408L20.492 9.63016H20.4958L21.8666 12.6136L22.8509 14.8489L22.8858 14.7362L25.0586 9.52141H27.9925V17.1267H27.9927ZM35.4895 11.1509H31.2522V12.5633H35.3808V14.0842H31.2522V15.6058H35.4895V17.235H29.4053V9.52141H35.4895V11.1509ZM43.2387 13.9525C43.2416 13.955 43.2452 13.9567 43.2486 13.9591C43.2897 14.0025 43.3248 14.0461 43.3548 14.0878C43.563 14.3606 43.7313 14.7664 43.7397 15.3614C43.7403 15.3717 43.7408 15.3819 43.7414 15.3922C43.7414 15.3981 43.7425 15.4033 43.7425 15.4094C43.7425 15.4128 43.7422 15.4155 43.7422 15.4187C43.7447 15.4786 43.7463 15.5397 43.7463 15.6058V17.1269H42.1169V16.2573C42.1169 15.8228 42.1169 15.1708 41.7905 14.7362C41.6878 14.6336 41.5839 14.5659 41.4708 14.5178C41.308 14.4123 40.9994 14.4106 40.4872 14.4106H38.5309V17.1269H36.6844V9.52141H40.8133C41.7905 9.52141 42.4427 9.52141 42.9861 9.84734C43.5184 10.167 43.84 10.6972 43.8522 11.5367C43.827 12.693 43.0848 13.3273 42.5513 13.5413C42.5513 13.5413 42.9137 13.6142 43.2387 13.9525ZM46.8973 17.1267H45.0502V9.52125H46.8973V17.1267ZM68.0836 17.1267H65.693L62.2164 11.3681V16.1486L62.205 16.1373V17.1314H60.3695V17.1269H58.5223L57.8705 15.4972H54.0675L53.4156 17.2352H51.3514C50.4828 17.2352 49.3956 17.0181 48.7441 16.3663C48.0922 15.7144 47.7666 14.8452 47.7666 13.433C47.7666 12.3466 47.9836 11.2594 48.7441 10.3905C49.2869 9.73812 50.2652 9.52141 51.46 9.52141H53.1988V11.1509H51.46C50.8081 11.1509 50.4828 11.2592 50.0473 11.5858C49.722 11.9116 49.5045 12.5633 49.5045 13.3238C49.5045 14.1931 49.6133 14.7363 50.0473 15.1708C50.3741 15.4972 50.8083 15.6059 51.3514 15.6059H52.1119L54.6105 9.63047H55.6975H57.3269L60.3694 16.9097V16.5384V14.0845V13.8675V9.63063H63.0853L66.2355 14.9541V9.63063H68.0833V17.127H68.0836V17.1267Z"
            fill="#2557D6" />
        <path
            d="M41.6895 12.6888C41.7212 12.6549 41.75 12.6165 41.7744 12.5724C41.8728 12.4167 41.9856 12.136 41.9248 11.7531C41.9223 11.7179 41.9159 11.6854 41.9084 11.654C41.9064 11.6453 41.9067 11.6376 41.9044 11.6288L41.9033 11.629C41.8492 11.4429 41.7112 11.3285 41.5736 11.2592C41.3558 11.1509 41.0298 11.1509 40.704 11.1509H38.5308V12.8895H40.704C41.0298 12.8895 41.3559 12.8895 41.5736 12.7806C41.6062 12.764 41.6353 12.7415 41.6633 12.716L41.6636 12.7174C41.6636 12.7174 41.6748 12.7057 41.6895 12.6888Z"
            fill="#2557D6" />
        <path
            d="M74.4933 27.9914C74.4933 27.231 74.2762 26.4702 73.9505 25.9271V21.0381H73.9454V20.7117C73.9454 20.7117 69.3915 20.7117 68.7137 20.7117C68.0362 20.7117 67.214 21.3635 67.214 21.3635V20.7117H62.2165C61.4556 20.7117 60.4784 20.9292 60.0433 21.3635V20.7117H51.1345V21.0381V21.3633C50.4831 20.8205 49.287 20.7116 48.7442 20.7116H42.8772V21.038V21.3631C42.334 20.8203 41.0297 20.7114 40.3775 20.7114H33.8597L32.3383 22.3413L30.9258 20.7114H30.4709H29.7308H21.1479V21.0378V21.8961V31.6853H30.7089L32.2798 30.1139L33.6415 31.6853H33.7506H39.2597H39.5094H39.6181H39.7262V30.5989V29.1866H40.2698C41.0297 29.1866 42.0079 29.1866 42.7684 28.8602V31.5761V31.7939H47.6576V31.5761V28.9689H47.8744C48.2008 28.9689 48.2008 28.9689 48.2008 29.2949V31.5761V31.7939H62.9762C63.9548 31.7939 64.932 31.5761 65.4751 31.1416V31.5761V31.7939H70.1473C71.1245 31.7939 72.1031 31.6853 72.755 31.2505C73.7553 30.6503 74.3858 29.588 74.4795 28.321C74.4839 28.2835 74.4894 28.246 74.4928 28.2083L74.4864 28.2022C74.4904 28.1319 74.4933 28.0624 74.4933 27.9914ZM40.27 27.3397H38.0965V27.6649V28.317V28.9691V30.1642H34.5254L32.447 27.7738L32.4398 27.7817L32.3383 27.6649L29.9481 30.1642H22.9948V22.5591H30.0569L31.9862 24.6724L32.3919 25.1149L32.4469 25.0578L34.7287 22.5592H40.4869C41.6044 22.5592 42.8558 22.835 43.33 23.9721C43.387 24.1972 43.4201 24.4475 43.4201 24.7319C43.4201 26.9047 41.899 27.3397 40.27 27.3397ZM51.1345 27.2308C51.3515 27.556 51.4603 27.9913 51.4603 28.6435V30.1641H49.6136V29.1866C49.6136 28.7513 49.6136 27.9913 49.2872 27.6649C49.0704 27.3397 48.6353 27.3397 47.9839 27.3397H46.0284V30.1642H44.1815V22.4503H48.3098C49.1784 22.4503 49.9389 22.4503 50.4831 22.776C51.0259 23.1022 51.4603 23.6455 51.4603 24.5147C51.4603 25.7096 50.7001 26.3614 50.1567 26.5791C50.7001 26.7955 51.0259 27.0135 51.1345 27.2308ZM58.6314 24.0794H54.3936V25.4919H58.5223V27.0133H54.3936V28.5345H58.6314V30.1641H52.5472V22.4502H58.6314V24.0794ZM63.1942 30.1642H59.7173V28.5347H63.1942C63.5195 28.5347 63.7373 28.5347 63.9551 28.3172C64.0639 28.2083 64.1719 27.9914 64.1719 27.7739C64.1719 27.5561 64.0639 27.3399 63.9551 27.231C63.8461 27.1224 63.6284 27.0136 63.3026 27.0136C61.5642 26.9049 59.5 27.0136 59.5 24.6236C59.5 23.5371 60.1519 22.3417 62.1076 22.3417H65.6928V24.1885H62.325C61.9992 24.1885 61.7815 24.1885 61.564 24.2972C61.3473 24.4061 61.3473 24.6236 61.3473 24.8406C61.3473 25.1667 61.564 25.2755 61.7814 25.3833C61.9992 25.4922 62.2162 25.4922 62.4333 25.4922H63.4112C64.3892 25.4922 65.0409 25.7095 65.4754 26.1442C65.8015 26.4703 66.0189 27.0136 66.0189 27.7739C66.0189 29.4031 65.0411 30.1642 63.1942 30.1642ZM72.5378 29.4031C72.1037 29.8383 71.3428 30.1642 70.2559 30.1642H66.78V28.5347H70.2558C70.5819 28.5347 70.7997 28.5347 71.0167 28.3172C71.125 28.2083 71.234 27.9914 71.234 27.7739C71.234 27.5561 71.125 27.3399 71.0167 27.231C70.908 27.1224 70.6909 27.0136 70.3648 27.0136C68.627 26.9049 66.5622 27.0136 66.5622 24.6238C66.5622 23.5911 67.1529 22.6583 68.61 22.3813C68.7842 22.3572 68.9683 22.3417 69.1698 22.3417H72.7554V24.1885H70.3648H69.4959H69.3872C69.0611 24.1885 68.844 24.1885 68.627 24.2972C68.5176 24.4061 68.4089 24.6236 68.4089 24.8406C68.4089 25.1667 68.5176 25.2755 68.844 25.3833C69.0611 25.4922 69.2784 25.4922 69.4959 25.4922H69.6039H70.4734C70.9483 25.4922 71.3073 25.5508 71.6359 25.6663C71.9369 25.7752 72.9331 26.2208 73.1559 27.3841C73.1753 27.506 73.1895 27.6331 73.1895 27.7739C73.1895 28.426 72.9722 28.9691 72.5378 29.4031Z"
            fill="#2557D6" />
    </g>
    <defs>
        <clipPath id="clip0_4177_163865">
            <rect width="80" height="40" rx="4" fill="white" />
        </clipPath>
    </defs>
</svg>