<svg width="80" height="40" viewBox="0 0 80 40" fill="none" xmlns="http://www.w3.org/2000/svg">
    <g clip-path="url(#clip0_4177_163857)">
        <rect width="80" height="40" rx="4" fill="transparent" />
        <path
            d="M25.3917 5.00146H37.3616C39.0325 5.00146 40.0717 6.36338 39.6819 8.03982L34.1091 31.9662C33.7158 33.6368 32.0429 34.9999 30.3708 34.9999H18.4021C16.7336 34.9999 15.692 33.6368 16.0818 31.9662L21.6569 8.03982C22.0467 6.36338 23.7188 5.00146 25.3917 5.00146Z"
            fill="#E21836" />
        <path
            d="M36.3648 5H50.1299C51.8005 5 51.0472 6.36192 50.6542 8.03835L45.0822 31.9647C44.6913 33.6353 44.8132 34.9984 43.1391 34.9984H29.3741C27.7 34.9984 26.6639 33.6353 27.0572 31.9647L32.6289 8.03835C33.0245 6.36192 34.6931 5 36.3648 5Z"
            fill="#00447C" />
        <path
            d="M49.584 5H61.5539C63.2271 5 64.2664 6.36192 63.8734 8.03835L58.3014 31.9647C57.9081 33.6353 56.234 34.9984 54.5611 34.9984H42.5967C40.9226 34.9984 39.8843 33.6353 40.2764 31.9647L45.8492 8.03835C46.239 6.36192 47.9099 5 49.584 5Z"
            fill="#007B84" />
        <path
            d="M28.5171 12.6677C27.2862 12.6803 26.9227 12.6677 26.8065 12.6403C26.7619 12.8524 25.9313 16.6841 25.9289 16.6873C25.7501 17.4625 25.62 18.015 25.1779 18.3719C24.927 18.5793 24.6341 18.6794 24.2945 18.6794C23.7486 18.6794 23.4306 18.4083 23.3772 17.8943L23.367 17.7177C23.367 17.7177 23.5333 16.6794 23.5333 16.6735C23.5333 16.6735 24.4051 13.1818 24.5612 12.7203C24.5693 12.694 24.5717 12.6803 24.5737 12.6677C22.8769 12.6826 22.5761 12.6677 22.5554 12.6403C22.544 12.6779 22.502 12.8944 22.502 12.8944L21.6118 16.8299L21.5354 17.1637L21.3875 18.2555C21.3875 18.5793 21.4511 18.8436 21.5777 19.0671C21.9832 19.7758 23.14 19.882 23.7944 19.882C24.6376 19.882 25.4286 19.7029 25.9631 19.3758C26.8909 18.8276 27.1336 17.9707 27.3501 17.2092L27.4504 16.8186C27.4504 16.8186 28.3485 13.192 28.5011 12.7203C28.5069 12.694 28.5092 12.6803 28.5171 12.6677ZM31.5726 15.5933C31.3561 15.5933 30.9605 15.6458 30.6051 15.82C30.4762 15.8862 30.3542 15.9627 30.2255 16.0388L30.3417 15.6195L30.2781 15.5489C29.5244 15.7015 29.3558 15.722 28.6597 15.82L28.6013 15.8588C28.5205 16.529 28.4487 17.0328 28.1491 18.3501C28.035 18.8356 27.9166 19.3257 27.7978 19.81L27.8299 19.8716C28.5433 19.834 28.7598 19.834 29.3797 19.8442L29.4299 19.7896C29.5087 19.3861 29.5189 19.2916 29.6934 18.4744C29.7754 18.0869 29.9463 17.2356 30.0306 16.9325C30.1856 16.8607 30.3384 16.7901 30.4843 16.7901C30.8318 16.7901 30.7895 17.0932 30.7761 17.214C30.7612 17.4168 30.6346 18.0791 30.5048 18.6477L30.4181 19.0147C30.3577 19.2858 30.2915 19.5492 30.2311 19.8179L30.2573 19.8716C30.9605 19.834 31.1749 19.834 31.7753 19.8442L31.846 19.7896C31.9545 19.1594 31.9863 18.9908 32.1788 18.0732L32.2757 17.6516C32.4639 16.8265 32.5584 16.4082 32.416 16.0674C32.2655 15.6855 31.9043 15.5933 31.5726 15.5933ZM34.9859 16.4572C34.6122 16.5289 34.3738 16.5768 34.1369 16.6077C33.902 16.6453 33.673 16.6795 33.3118 16.7297L33.2832 16.7556L33.2569 16.7763C33.2193 17.0453 33.1931 17.2779 33.1432 17.5512C33.1009 17.834 33.0358 18.1552 32.9299 18.6167C32.8479 18.97 32.8056 19.0932 32.7589 19.2175C32.7134 19.3417 32.6632 19.4625 32.571 19.81L32.5926 19.8421L32.6107 19.8716C32.9483 19.8555 33.1691 19.8442 33.3961 19.8421C33.6228 19.8339 33.8577 19.8421 34.2212 19.8442L34.253 19.8182L34.2871 19.7896C34.3397 19.4762 34.3475 19.3919 34.3796 19.2391C34.4114 19.0751 34.4663 18.8481 34.6008 18.2418C34.6644 17.9571 34.7353 17.6732 34.8012 17.3826C34.8698 17.0932 34.9415 16.8081 35.0098 16.5234L34.9996 16.489L34.9859 16.4572ZM34.9939 15.2924C34.6543 15.092 34.0582 15.1556 33.657 15.4324C33.257 15.7038 33.2115 16.0889 33.55 16.292C33.8837 16.4869 34.4821 16.4288 34.8798 16.1496C35.2789 15.8724 35.3288 15.4908 34.9939 15.2924ZM37.0477 19.9344C37.7348 19.9344 38.4391 19.745 38.9692 19.1831C39.3771 18.7274 39.5641 18.0494 39.6288 17.7701C39.8398 16.8447 39.6755 16.4126 39.4693 16.1494C39.1559 15.7483 38.6022 15.6196 38.0277 15.6196C37.6822 15.6196 36.8595 15.6537 36.2168 16.2463C35.7552 16.6737 35.5419 17.2537 35.4133 17.8098C35.2834 18.3764 35.134 19.3964 36.072 19.776C36.3615 19.9003 36.7787 19.9344 37.0477 19.9344ZM36.994 17.8521C37.1524 17.1513 37.3394 16.5631 37.8167 16.5631C38.1908 16.5631 38.2179 17.0008 38.0516 17.7039C38.0219 17.86 37.8853 18.4403 37.7006 18.6874C37.5717 18.8698 37.4191 18.9803 37.2504 18.9803C37.2003 18.9803 36.9018 18.9804 36.8971 18.5372C36.8948 18.3184 36.9394 18.0949 36.994 17.8521ZM41.3464 19.8443L41.4001 19.7897C41.4762 19.3862 41.4888 19.2914 41.6574 18.4745C41.7417 18.087 41.9162 17.2357 41.9982 16.9325C42.1534 16.8605 42.3037 16.7899 42.4542 16.7899C42.7994 16.7899 42.7573 17.093 42.7436 17.2138C42.7311 17.4169 42.6045 18.0789 42.4723 18.6475L42.3903 19.0145C42.3276 19.2858 42.2593 19.549 42.1989 19.818L42.2252 19.8717C42.9307 19.8341 43.1369 19.8341 43.7409 19.8443L43.8138 19.7897C43.9197 19.1592 43.9483 18.9906 44.1467 18.0733L44.2412 17.6514C44.4303 16.8263 44.526 16.4083 44.3859 16.0675C44.231 15.6856 43.8675 15.5934 43.5404 15.5934C43.3236 15.5934 42.926 15.6456 42.5727 15.8201C42.4463 15.8863 42.3197 15.9625 42.1954 16.0389L42.3037 15.6196L42.2456 15.5487C41.4923 15.7016 41.3202 15.722 40.6249 15.8201L40.5715 15.8589C40.4872 16.529 40.4186 17.0326 40.119 18.3502C40.0049 18.8357 39.8865 19.3258 39.768 19.8101L39.7998 19.8717C40.5143 19.8341 40.7276 19.8341 41.3464 19.8443ZM46.5296 19.8715C46.574 19.6551 46.8374 18.3719 46.8398 18.3719C46.8398 18.3719 47.0641 17.4304 47.0778 17.3963C47.0778 17.3963 47.1484 17.2983 47.219 17.2595H47.3229C48.3029 17.2595 49.4095 17.2595 50.2769 16.6214C50.8672 16.1837 51.2707 15.5375 51.4507 14.7521C51.4974 14.5595 51.5318 14.3305 51.5318 14.1015C51.5318 13.8007 51.4714 13.5031 51.2969 13.2706C50.8546 12.6517 49.9738 12.6404 48.957 12.6357C48.9538 12.6357 48.4558 12.6404 48.4558 12.6404C47.1543 12.6564 46.6323 12.6517 46.4179 12.6255C46.3998 12.7203 46.3656 12.8889 46.3656 12.8889C46.3656 12.8889 45.8994 15.0497 45.8994 15.0532C45.8994 15.0532 44.7837 19.6472 44.7312 19.8637C45.8676 19.85 46.3336 19.85 46.5296 19.8715ZM47.3935 16.0332C47.3935 16.0332 47.8892 13.8768 47.8869 13.885L47.9029 13.7744L47.9099 13.6901L48.108 13.7105C48.108 13.7105 49.1303 13.7983 49.1543 13.8007C49.5578 13.9568 49.7241 14.3591 49.6079 14.8843C49.502 15.3642 49.1907 15.7677 48.7907 15.9626C48.4613 16.1277 48.0578 16.1414 47.6421 16.1414H47.3731L47.3935 16.0332ZM50.4798 17.8921C50.3488 18.4505 50.1983 19.4705 51.1316 19.834C51.4292 19.9606 51.6959 19.9983 51.9669 19.9845C52.2531 19.9691 52.5183 19.8255 52.764 19.619C52.7418 19.7039 52.7196 19.7888 52.6975 19.874L52.7398 19.9285C53.4111 19.9002 53.6194 19.9002 54.3468 19.9058L54.4127 19.8556C54.5189 19.2312 54.619 18.625 54.895 17.4305C55.0295 16.8584 55.1637 16.2918 55.3017 15.722L55.2801 15.6593C54.5291 15.7984 54.3284 15.8282 53.606 15.9306L53.5511 15.9752C53.5438 16.0333 53.5363 16.089 53.5293 16.1447C53.4169 15.9633 53.2541 15.8083 53.0029 15.7118C52.6817 15.5854 51.9272 15.7482 51.2787 16.3388C50.8229 16.7603 50.6041 17.338 50.4798 17.8921ZM52.0571 17.9262C52.2178 17.238 52.4025 16.6556 52.881 16.6556C53.1835 16.6556 53.3428 16.9348 53.3104 17.411C53.2848 17.5297 53.257 17.6549 53.2241 17.7964C53.1762 18.0009 53.1243 18.2037 53.0738 18.4067C53.0225 18.5456 52.9627 18.6766 52.897 18.7638C52.7739 18.9383 52.481 19.0465 52.3123 19.0465C52.2645 19.0465 51.9692 19.0465 51.959 18.6112C51.9567 18.3945 52.0013 18.1713 52.0571 17.9262ZM60.2935 15.6537L60.2354 15.5875C59.4923 15.738 59.3578 15.7619 58.6751 15.8541L58.6249 15.9043C58.6226 15.9125 58.6206 15.925 58.6171 15.9364L58.6147 15.925C58.1065 17.0976 58.1214 16.8446 57.7076 17.7678C57.7053 17.7257 57.7053 17.6995 57.703 17.6548L57.5994 15.6537L57.5343 15.5875C56.7559 15.738 56.7376 15.7619 56.0187 15.8541L55.9627 15.9043C55.9548 15.9282 55.9548 15.9545 55.9501 15.9831L55.9548 15.9933C56.0446 16.4525 56.023 16.3501 56.1132 17.0748C56.1552 17.4305 56.2112 17.7882 56.2532 18.1394C56.3241 18.7273 56.3638 19.0168 56.4505 19.9139C55.965 20.7151 55.85 21.0182 55.3826 21.7213L55.3859 21.7283L55.0567 22.2488C55.0191 22.3037 54.985 22.3413 54.9371 22.3574C54.8846 22.3833 54.8163 22.388 54.7215 22.388H54.5392L54.2681 23.2895L55.198 23.3056C55.7438 23.3032 56.0869 23.048 56.2716 22.7049L56.8563 21.703H56.847L56.9085 21.6324C57.3018 20.7857 60.2935 15.6537 60.2935 15.6537ZM50.4798 27.4939H50.0853L51.5453 22.665H52.0296L52.1834 22.1676L52.1982 22.7208C52.1801 23.0627 52.4491 23.3658 53.1558 23.3156H53.973L54.2542 22.3858H53.9467C53.7699 22.3858 53.6879 22.3412 53.6982 22.2455L53.6833 21.6827H52.1699V21.6856C51.6807 21.6958 50.2195 21.7326 49.9237 21.8113C49.5657 21.9035 49.1885 22.1749 49.1885 22.1749L49.3367 21.6768H47.9211L47.6261 22.665L46.1466 27.5677H45.8595L45.578 28.4908H48.3975L48.303 28.7986H49.6923L49.7845 28.4908H50.1743L50.4798 27.4939ZM49.323 23.6462C49.0963 23.7089 48.6744 23.8992 48.6744 23.8992L49.0496 22.665H50.1743L49.903 23.5642C49.903 23.5642 49.5555 23.5846 49.323 23.6462ZM49.3446 25.4093C49.3446 25.4093 48.9913 25.4536 48.7587 25.5062C48.5297 25.5756 48.1002 25.7944 48.1002 25.7944L48.4877 24.5101H49.6182L49.3446 25.4093ZM48.7144 27.5053H47.5862L47.9132 26.4214H49.0379L48.7144 27.5053ZM51.4314 24.5101H53.0576L52.8239 25.2669H51.1761L50.9287 26.0943H52.3705L51.2788 27.6316C51.2024 27.7445 51.1338 27.7845 51.0576 27.8163C50.9812 27.8551 50.8808 27.9006 50.7647 27.9006H50.3647L50.0899 28.8068H51.1361C51.68 28.8068 52.0012 28.5594 52.2384 28.2347L52.987 27.21L53.1478 28.2504C53.1819 28.4453 53.322 28.5594 53.4168 28.6037C53.5215 28.6562 53.6298 28.7464 53.7826 28.7598C53.9466 28.7668 54.0651 28.7724 54.1438 28.7724H54.6579L54.9666 27.7582H54.7638C54.6474 27.7582 54.447 27.7387 54.4128 27.7022C54.3787 27.6579 54.3787 27.5896 54.3603 27.4857L54.1972 26.443H53.5294L53.8223 26.0943H55.467L55.7199 25.2669H54.1972L54.4344 24.5101H55.9524L56.234 23.5768H51.7083L51.4314 24.5101ZM37.696 27.716L38.0756 26.4533H39.6356L39.9207 25.5141H38.3592L38.5975 24.7369H40.1234L40.4061 23.8275H36.5882L36.3113 24.7369H37.1787L36.9474 25.5141H36.0776L35.7894 26.4693H36.6565L36.1506 28.1399C36.0823 28.3611 36.1827 28.4454 36.2463 28.5481C36.3113 28.6482 36.3773 28.7144 36.5255 28.752C36.6784 28.7862 36.7831 28.8066 36.9255 28.8066H38.6842L38.9975 27.7662L38.218 27.8733C38.0674 27.8733 37.6505 27.8552 37.696 27.716ZM37.875 21.6712L37.4796 22.3857C37.395 22.5418 37.3189 22.6386 37.2503 22.6833C37.1899 22.7209 37.0703 22.7367 36.897 22.7367H36.6907L36.415 23.6507H37.1C37.4294 23.6507 37.6824 23.5299 37.8032 23.4695C37.933 23.4001 37.9671 23.4398 38.0675 23.3429L38.2989 23.1425H40.438L40.7219 22.1908H39.1561L39.4294 21.6712H37.875ZM41.033 27.7344C40.9966 27.6818 41.0228 27.5894 41.0786 27.3968L41.6632 25.4616H43.7432C44.0463 25.4572 44.2651 25.4537 44.4075 25.4435C44.5604 25.4274 44.7267 25.3729 44.9079 25.2748C45.0949 25.1721 45.1906 25.0639 45.2714 24.9396C45.3615 24.8156 45.5063 24.5443 45.6305 24.1259L46.3655 21.6769L44.2071 21.6895C44.2071 21.6895 43.5424 21.7875 43.2498 21.8957C42.9545 22.0165 42.5327 22.3538 42.5327 22.3538L42.7276 21.6825H41.3942L39.5276 27.8732C39.4613 28.1136 39.417 28.2881 39.4068 28.3928C39.4033 28.5058 39.5492 28.6175 39.6437 28.7018C39.7554 28.7861 39.9206 28.7724 40.079 28.7861C40.2456 28.7987 40.4825 28.8066 40.8096 28.8066H41.8342L42.1487 27.7446L41.2314 27.8312C41.1334 27.8312 41.0625 27.7787 41.033 27.7344ZM42.0405 24.1545H44.2251L44.0863 24.5898C44.0667 24.6 44.02 24.5682 43.7977 24.5945H41.906L42.0405 24.1545ZM42.4781 22.6946H44.6812L44.5227 23.2188C44.5227 23.2188 43.4844 23.2086 43.3181 23.2393C42.5864 23.3659 42.1589 23.7568 42.1589 23.7568L42.4781 22.6946ZM44.1352 26.0475C44.1171 26.1126 44.0885 26.1522 44.0485 26.182C44.0042 26.2106 43.9324 26.2208 43.8253 26.2208H43.514L43.5324 25.6907H42.2376L42.1851 28.2824C42.183 28.4694 42.2011 28.5776 42.338 28.6643C42.4748 28.7725 42.8964 28.7862 43.4638 28.7862H44.2752L44.5681 27.8161L43.8618 27.8549L43.6269 27.8686C43.5948 27.8549 43.5642 27.8424 43.5301 27.8083C43.5003 27.7788 43.4501 27.7969 43.4583 27.6099L43.4638 26.9455L44.2046 26.9149C44.6046 26.9149 44.7756 26.7848 44.9215 26.6608C45.0606 26.542 45.1061 26.4055 45.1587 26.2208L45.2829 25.6326H44.265L44.1352 26.0475Z"
            fill="#FEFEFE" />
    </g>
    <defs>
        <clipPath id="clip0_4177_163857">
            <rect width="80" height="40" rx="4" fill="white" />
        </clipPath>
    </defs>
</svg>