<svg width="80" height="40" viewBox="0 0 80 40" fill="none" xmlns="http://www.w3.org/2000/svg">
    <g clip-path="url(#clip0_4177_163864)">
        <rect width="80" height="40" rx="4" fill="transparent" />
        <path
            d="M58.7919 20.1304C58.7919 11.1821 51.3231 4.9973 43.1395 5H36.0971C27.8161 4.99703 21 11.184 21 20.1304C21 28.315 27.8163 35.0394 36.0971 34.9998H43.1395C51.3224 35.0392 58.7919 28.3128 58.7919 20.1304Z"
            fill="#0079BE" />
        <path
            d="M36.1413 6.26758C28.5744 6.26992 22.4429 12.4159 22.4402 20.0011C22.4421 27.585 28.5738 33.7301 36.1413 33.7328C43.7099 33.7305 49.8433 27.5851 49.8442 20.0011C49.8432 12.4157 43.7101 6.27028 36.1413 6.26758Z"
            fill="white" />
        <path
            d="M27.4814 19.9641C27.4886 16.2575 29.7989 13.0968 33.0566 11.8408V28.0855C29.7989 26.8303 27.4886 23.6712 27.4814 19.9642V19.9641ZM39.2726 28.0896V11.8413C42.5316 13.0943 44.8454 16.2568 44.8513 19.9651C44.8453 23.6745 42.5316 26.8347 39.2726 28.09V28.0896Z"
            fill="#0079BE" />
    </g>
    <defs>
        <clipPath id="clip0_4177_163864">
            <rect width="80" height="40" rx="4" fill="white" />
        </clipPath>
    </defs>
</svg>