<svg width="80" height="40" viewBox="0 0 80 40" fill="none" xmlns="http://www.w3.org/2000/svg">
    <g clip-path="url(#clip0_4177_163861)">
        <rect width="80" height="40" rx="4" fill="transparent" />
        <path
            d="M26.7859 0C23.6227 0 21 2.5 21 5.74921V9H23V5.74921C23 3.5 24.5 2 26.7859 2H76C77.1046 2 78 2.89543 78 4L77.9999 36C77.9999 37.1046 77.1045 38 75.9999 38H26.7974C25 38 23 36.5 23 34.2508L23.0232 30.5H21V34.2508C21 37.414 23.6111 39.9769 26.7974 40H79.9998L79.9999 0H26.7859Z"
            fill="url(#paint0_linear_4177_163861)" />
        <path
            d="M22.0465 12.907C23.0233 12.0233 24 11.1628 25.0233 10.3256C24.0465 9.51163 23.0698 8.74419 22.0465 8C21.0233 8.72093 20.0233 9.48837 19.0698 10.3023C20.0698 11.1395 21.0698 12.0233 22.0465 12.907ZM22.0233 23.3488C24.7674 20.6744 27.4419 17.9302 30.0233 15.1163C29.2326 14.2558 28.4186 13.4186 27.5814 12.6047C25.7209 14.3721 23.8837 16.1395 22.0698 17.9535C20.2093 16.1395 18.3721 14.3488 16.5116 12.5814C15.6744 13.3953 14.8372 14.2558 14.0465 15.1163C16.6279 17.9302 19.3023 20.6512 22.0233 23.3488ZM34 20.0698C33.4419 19.2558 32.8372 18.4419 32.2093 17.6512C29.1395 21.4419 25.7442 24.9767 22.0465 28.1628C18.3488 24.9535 14.9302 21.4186 11.8372 17.6279C11.186 18.4186 10.5814 19.2326 10 20.0698C13.3256 24.6744 17.3721 28.6977 22.0233 32C26.6512 28.6977 30.6977 24.6744 34 20.0698Z"
            fill="url(#paint1_linear_4177_163861)" />
        <path
            d="M48.829 14.8793C48.9213 16.2878 48.321 17.6501 47.2589 18.5736C45.9428 19.4972 44.3727 19.959 42.7565 19.8666H41.1633V25.6158H38.6235V10.2153H43.0567C44.9731 10.2153 46.4277 10.6078 47.3743 11.3929C48.3672 12.2703 48.8982 13.5633 48.829 14.8793ZM41.1403 17.7424H42.4794C43.4723 17.8117 44.4651 17.5808 45.3194 17.0728C45.9428 16.5649 46.2891 15.7798 46.2199 14.9717C46.2661 14.2098 45.9659 13.494 45.4118 12.986C44.6729 12.5012 43.7724 12.2703 42.895 12.3395H41.1403V17.7424Z"
            fill="url(#paint2_linear_4177_163861)" />
        <path
            d="M57.187 25.6158L56.7021 23.9995H56.6098C56.1711 24.5998 55.5938 25.1078 54.9243 25.4541C54.2316 25.7312 53.4927 25.8697 52.7308 25.8467C51.761 25.9159 50.7913 25.5696 50.0524 24.9231C49.3828 24.2304 49.0365 23.2838 49.0827 22.314C49.0134 21.2288 49.5214 20.2129 50.4219 19.5895C51.6687 18.8968 53.0771 18.5505 54.4856 18.5967L56.4943 18.5274V17.904C56.5405 17.3037 56.3558 16.7033 55.9633 16.2416C55.5246 15.849 54.9473 15.6412 54.347 15.6874C53.7698 15.6874 53.1926 15.7798 52.6384 15.9414C52.1074 16.103 51.5763 16.3108 51.0684 16.5648L50.2602 14.7869C50.9067 14.4406 51.6225 14.1866 52.3383 14.025C53.0309 13.8634 53.7467 13.771 54.4625 13.771C55.6631 13.6787 56.8407 14.025 57.8104 14.7408C58.6185 15.5258 59.0341 16.6572 58.9418 17.7885V25.6389L57.187 25.6158ZM53.4927 23.9303C54.2778 23.9764 55.0628 23.6994 55.6631 23.1683C56.2172 22.6142 56.5174 21.8522 56.4712 21.0672V20.0513L54.9704 20.1205C54.093 20.0974 53.2157 20.2822 52.4306 20.6978C51.8996 21.0441 51.5994 21.6675 51.6456 22.2909C51.6225 22.7296 51.7841 23.1914 52.1074 23.4916C52.4999 23.8148 53.0079 23.9533 53.4927 23.9303Z"
            fill="url(#paint3_linear_4177_163861)" />
        <path
            d="M59.7729 13.979H62.4744L64.8526 20.5825C65.1989 21.4368 65.4298 22.3373 65.5683 23.2378H65.6607C65.753 22.7529 65.8685 22.2911 66.007 21.8293C66.1687 21.2752 67.0691 18.6661 68.6854 13.979H71.3637L66.3765 27.1629C65.476 29.5873 63.9521 30.7879 61.851 30.7879C61.3199 30.7879 60.7658 30.7187 60.2578 30.6032V28.6406C60.6734 28.733 61.1121 28.7792 61.5277 28.7792C62.7284 28.7792 63.5596 28.0865 64.0444 26.7011L64.4831 25.616L59.7729 13.979Z"
            fill="url(#paint4_linear_4177_163861)" />
    </g>
    <defs>
        <linearGradient id="paint0_linear_4177_163861" x1="82.6252" y1="5.14919" x2="43.5615" y2="59.681"
            gradientUnits="userSpaceOnUse">
            <stop stop-color="#9440E8" />
            <stop offset="1" stop-color="#F8116A" />
        </linearGradient>
        <linearGradient id="paint1_linear_4177_163861" x1="73.2011" y1="-4.23894" x2="5.78916" y2="27.7031"
            gradientUnits="userSpaceOnUse">
            <stop stop-color="#9440E8" />
            <stop offset="1" stop-color="#F8116A" />
        </linearGradient>
        <linearGradient id="paint2_linear_4177_163861" x1="77.2258" y1="-2.00924" x2="14.1831" y2="12.7701"
            gradientUnits="userSpaceOnUse">
            <stop stop-color="#9440E8" />
            <stop offset="1" stop-color="#F8116A" />
        </linearGradient>
        <linearGradient id="paint3_linear_4177_163861" x1="78.6139" y1="7.50144" x2="16.7821" y2="29.3993"
            gradientUnits="userSpaceOnUse">
            <stop stop-color="#9440E8" />
            <stop offset="1" stop-color="#F8116A" />
        </linearGradient>
        <linearGradient id="paint4_linear_4177_163861" x1="79.4853" y1="13.3924" x2="14.7319" y2="28.5341"
            gradientUnits="userSpaceOnUse">
            <stop stop-color="#9440E8" />
            <stop offset="1" stop-color="#F8116A" />
        </linearGradient>
        <clipPath id="clip0_4177_163861">
            <rect width="80" height="40" rx="4" fill="white" />
        </clipPath>
    </defs>
</svg>