<svg width="80" height="40" viewBox="0 0 80 40" fill="none" xmlns="http://www.w3.org/2000/svg">
    <g clip-path="url(#clip0_4177_163859)">
        <rect width="80" height="40" rx="4" fill="transparent" />
        <path
            d="M60 29.5943C60 33.0301 57.2153 35.8162 53.7784 35.8162H20V11.2227C20 7.78604 22.7848 5 26.2222 5H59.9998L59.9997 29.5943L60 29.5943Z"
            fill="white" />
        <path
            d="M48.9879 20.9478C49.9528 20.9688 50.923 20.9052 51.884 20.9809C52.8571 21.1624 53.0917 22.6356 52.2271 23.1181C51.6372 23.436 50.9364 23.2365 50.2969 23.2926H48.9879V20.9478ZM52.4418 18.2939C52.6561 19.0505 51.9268 19.7298 51.1981 19.6256H48.9879C49.0035 18.9121 48.9576 18.1377 49.0104 17.4618C49.8958 17.4867 50.7894 17.4109 51.6696 17.5014C52.0478 17.5964 52.3644 17.9073 52.4418 18.2939ZM57.7608 7.07378C57.8019 8.51869 57.7668 10.04 57.7786 11.5142C57.7758 17.5078 57.7844 23.5013 57.7739 29.4953C57.7351 31.7415 55.7444 33.6934 53.5136 33.7382C51.2808 33.7473 49.0476 33.7396 46.8144 33.7421V24.6809C49.2475 24.6684 51.6819 24.7065 54.1141 24.662C55.2424 24.5911 56.4782 23.8467 56.5307 22.605C56.6636 21.358 55.4879 20.4955 54.3717 20.3593C53.9426 20.3481 53.9552 20.2342 54.3717 20.1845C55.4363 19.9544 56.2723 18.8525 55.9591 17.749C55.6922 16.5883 54.4093 16.1391 53.3423 16.1414C51.1667 16.1266 48.9906 16.1393 46.8149 16.135C46.8289 14.4434 46.7855 12.75 46.8382 11.0596C47.0106 8.85389 49.0514 7.0349 51.2508 7.07436C53.4211 7.07403 55.591 7.07403 57.7608 7.07395V7.07378Z"
            fill="url(#paint0_linear_4177_163859)" />
        <path
            d="M22.228 11.288C22.2836 9.04528 24.2828 7.10946 26.5107 7.07668C28.7353 7.06983 30.9602 7.07569 33.1849 7.07371C33.1788 14.5773 33.1969 22.0817 33.1757 29.5849C33.09 31.8004 31.1126 33.6993 28.909 33.7385C26.6802 33.7466 24.4511 33.7397 22.2222 33.7419V24.3753C24.3872 24.8868 26.6575 25.1045 28.8662 24.7652C30.1865 24.5528 31.631 23.9045 32.078 22.5348C32.4069 21.3631 32.2217 20.1301 32.2707 18.9276V16.1349H28.4483C28.4311 17.9819 28.4835 19.8321 28.4206 21.6769C28.3176 22.8108 27.1947 23.5312 26.1253 23.4927C24.799 23.5068 22.1708 22.5315 22.1708 22.5315C22.1642 19.0711 22.2093 14.7373 22.228 11.2883V11.288Z"
            fill="url(#paint1_linear_4177_163859)" />
        <path
            d="M34.6104 17.2613C34.4092 17.304 34.5699 16.5759 34.5185 16.2998C34.5322 14.5536 34.4898 12.8055 34.5419 11.0606C34.7137 8.84552 36.7703 7.02198 38.9785 7.07383H45.4817C45.4756 14.5774 45.4937 22.0819 45.4725 29.5851C45.3867 31.8005 43.4092 33.6994 41.2055 33.7387C38.9766 33.7471 36.7475 33.74 34.5184 33.7421V23.4797C36.0407 24.7288 38.1098 24.9232 40.0064 24.9266C41.4362 24.9261 42.8576 24.7057 44.2462 24.3759V22.4958C42.6814 23.2757 40.8419 23.7711 39.1073 23.323C37.8973 23.0218 37.0189 21.8524 37.0385 20.6037C36.8983 19.3051 37.6595 17.9341 38.9357 17.548C40.5201 17.052 42.2469 17.4313 43.7321 18.0762C44.0503 18.2428 44.3733 18.4495 44.2461 17.9176V16.4399C41.7621 15.8489 39.1187 15.6314 36.6232 16.2743C35.9009 16.4781 35.1971 16.7871 34.6104 17.2614V17.2613Z"
            fill="url(#paint2_linear_4177_163859)" />
    </g>
    <defs>
        <linearGradient id="paint0_linear_4177_163859" x1="46.7395" y1="19.8377" x2="57.7094" y2="19.8377"
            gradientUnits="userSpaceOnUse">
            <stop stop-color="#007B40" />
            <stop offset="1" stop-color="#55B330" />
        </linearGradient>
        <linearGradient id="paint1_linear_4177_163859" x1="21.9889" y1="20.6632" x2="33.0051" y2="20.6632"
            gradientUnits="userSpaceOnUse">
            <stop stop-color="#1D2970" />
            <stop offset="1" stop-color="#006DBA" />
        </linearGradient>
        <linearGradient id="paint2_linear_4177_163859" x1="34.5023" y1="20.0961" x2="45.4796" y2="20.0961"
            gradientUnits="userSpaceOnUse">
            <stop stop-color="#6E2B2F" />
            <stop offset="1" stop-color="#E30138" />
        </linearGradient>
        <clipPath id="clip0_4177_163859">
            <rect width="80" height="40" rx="4" fill="white" />
        </clipPath>
    </defs>
</svg>