<svg width="80" height="40" viewBox="0 0 80 40" fill="none" xmlns="http://www.w3.org/2000/svg">
    <g clip-path="url(#clip0_4177_163860)">
        <rect width="80" height="40" rx="4" fill="transparent" />
        <path d="M46.822 31.7947H33.6982V8.20898H46.822V31.7947Z" fill="#6C6BBD" />
        <path
            d="M34.539 20C34.539 15.2155 36.7791 10.9537 40.2676 8.20713C37.7166 6.19874 34.497 5 30.9981 5C22.7147 5 16 11.7156 16 20C16 28.2844 22.7147 35 30.9981 35C34.497 35 37.7166 33.8013 40.2676 31.7929C36.7791 29.0463 34.539 24.7845 34.539 20Z"
            fill="#EB001B" />
        <path
            d="M64.522 20C64.522 28.2844 57.8073 35 49.5239 35C46.0249 35 42.8054 33.8013 40.2534 31.7929C43.7428 29.0463 45.983 24.7845 45.983 20C45.983 15.2155 43.7428 10.9537 40.2534 8.20713C42.8054 6.19874 46.0249 5 49.5239 5C57.8073 5 64.522 11.7156 64.522 20Z"
            fill="#0099DF" />
    </g>
    <defs>
        <clipPath id="clip0_4177_163860">
            <rect width="80" height="40" rx="4" fill="white" />
        </clipPath>
    </defs>
</svg>