<svg width="80" height="40" viewBox="0 0 80 40" fill="none" xmlns="http://www.w3.org/2000/svg">
    <g clip-path="url(#clip0_4177_163862)">
        <rect width="80" height="40" rx="4" fill="#FDDCCE"/>
        <path d="M15.0292 23.5463C14.7383 23.3282 14.3748 23.1828 14.0112 23.1101C13.6476 22.9646 13.2841 22.9646 12.9205 22.9646C12.7024 22.9646 12.4842 22.9646 12.2661 23.0373C12.048 23.1101 11.9025 23.1828 11.7571 23.2555C11.6117 23.3282 11.4663 23.4736 11.3935 23.619C11.3208 23.7645 11.2481 23.9099 11.2481 24.0553C11.2481 24.2007 11.2481 24.3462 11.3208 24.4189C11.3935 24.4916 11.4663 24.637 11.6117 24.7097C11.7571 24.7824 11.9025 24.8552 12.1207 24.9279C12.3388 25.0006 12.5569 25.0006 12.7751 25.0733L13.2841 25.146C13.5749 25.2187 13.8658 25.2187 14.1566 25.3641C14.4475 25.4369 14.6656 25.5823 14.8837 25.7277C15.1019 25.8731 15.32 26.0913 15.3927 26.3094C15.5382 26.5276 15.6109 26.8184 15.6109 27.182C15.6109 27.5455 15.5382 27.9091 15.3927 28.1999C15.2473 28.4908 15.0292 28.7089 14.7383 28.9271C14.4475 29.1452 14.1566 29.2906 13.7931 29.3633C13.4295 29.4361 13.0659 29.5088 12.6297 29.5088C12.4115 29.5088 12.1207 29.5088 11.8298 29.4361C11.539 29.3633 11.3208 29.3633 11.03 29.2179C10.7391 29.1452 10.521 28.9998 10.3029 28.9271C10.0847 28.7816 9.86658 28.6362 9.64844 28.4908L10.3029 27.5455C10.4483 27.691 10.5937 27.7637 10.7391 27.8364C10.8846 27.9091 11.1027 28.0545 11.3208 28.1272C11.539 28.1999 11.7571 28.2727 11.9752 28.2727C12.1934 28.3454 12.4115 28.3454 12.6297 28.3454C12.8478 28.3454 13.0659 28.3454 13.2841 28.2727C13.5022 28.1999 13.6476 28.1272 13.7931 28.0545C13.9385 27.9818 14.0839 27.8364 14.1566 27.691C14.2293 27.5455 14.302 27.4001 14.302 27.2547C14.302 26.9638 14.1566 26.7457 13.8658 26.6003C13.5749 26.4548 13.1386 26.3094 12.6297 26.2367L12.2661 26.164C11.9752 26.0913 11.7571 26.0913 11.4663 25.9459C11.1754 25.8731 10.9573 25.7277 10.7391 25.5823C10.521 25.4369 10.3756 25.2187 10.2301 25.0006C10.0847 24.7824 10.012 24.4916 10.012 24.128C10.012 23.7645 10.0847 23.4009 10.2301 23.1828C10.3756 22.8919 10.5937 22.6738 10.8846 22.4556C11.1754 22.2375 11.4663 22.0921 11.8298 22.0194C12.1934 21.9467 12.5569 21.8739 12.9205 21.8739C13.4295 21.8739 13.9385 21.9467 14.3748 22.0921C14.811 22.2375 15.1746 22.4556 15.6109 22.6738L15.0292 23.5463ZM19.1011 24.128C19.4646 24.128 19.7555 24.2007 20.0463 24.3462C20.3372 24.4916 20.5553 24.637 20.7735 24.8552C20.9916 25.0733 21.137 25.3641 21.2825 25.655C21.4279 25.9458 21.4279 26.3094 21.4279 26.7457C21.4279 26.8184 21.4279 26.8911 21.4279 26.9638C21.4279 27.0365 21.4279 27.1093 21.4279 27.182H17.7195C17.7195 27.4001 17.7923 27.6182 17.9377 27.7637C18.0104 27.9091 18.1558 28.0545 18.3012 28.1272C18.4467 28.1999 18.5921 28.2727 18.7375 28.3454C18.8829 28.4181 19.1011 28.4181 19.2465 28.4181C19.4646 28.4181 19.7555 28.3454 19.9736 28.2727C20.1918 28.1999 20.4826 28.0545 20.7008 27.9091L21.2825 28.7089C20.9916 28.9998 20.6281 29.1452 20.3372 29.2906C19.9736 29.3633 19.6101 29.4361 19.2465 29.4361C18.8829 29.4361 18.5194 29.3633 18.2285 29.2179C17.9377 29.0725 17.6468 28.9271 17.4287 28.7089C17.2106 28.4908 16.9924 28.1999 16.9197 27.9091C16.7743 27.6182 16.7016 27.2547 16.7016 26.8184C16.7016 26.4548 16.7743 26.0913 16.9197 25.7277C17.0651 25.4369 17.2106 25.146 17.4287 24.8552C17.6468 24.637 17.9377 24.4189 18.2285 24.3462C18.374 24.2007 18.6648 24.128 19.1011 24.128ZM19.0284 25.146C18.8102 25.146 18.6648 25.146 18.5194 25.2187C18.374 25.2914 18.2285 25.3641 18.1558 25.5096C18.0104 25.655 17.9377 25.7277 17.865 25.8731C17.7923 26.0186 17.7195 26.164 17.7195 26.3821H20.3372C20.2645 26.0186 20.1191 25.655 19.9009 25.4369C19.6828 25.2187 19.3919 25.146 19.0284 25.146ZM24.8454 24.128C25.2089 24.128 25.5725 24.2007 25.8634 24.3462C26.1542 24.4916 26.4451 24.7097 26.6632 24.9279L25.9361 25.655C25.7907 25.5096 25.5725 25.3641 25.3544 25.2914C25.1362 25.2187 24.9181 25.146 24.7 25.146C24.4818 25.146 24.2637 25.2187 24.1183 25.2914C23.9001 25.3641 23.7547 25.5096 23.682 25.655C23.5366 25.8004 23.4638 25.9459 23.3911 26.164C23.3184 26.3821 23.2457 26.6003 23.2457 26.8184C23.2457 27.0365 23.3184 27.2547 23.3911 27.4728C23.4638 27.691 23.5366 27.8364 23.682 27.9818C23.8274 28.1272 23.9728 28.1999 24.1183 28.3454C24.2637 28.4181 24.4818 28.4908 24.7 28.4908C24.9181 28.4908 25.1362 28.4181 25.3544 28.3454C25.5725 28.2727 25.7179 28.1272 25.9361 27.9818L26.5905 28.7089C26.3724 28.9998 26.0815 29.1452 25.7906 29.2906C25.4998 29.4361 25.1362 29.5088 24.7727 29.5088C24.4091 29.5088 24.0455 29.4361 23.682 29.2906C23.3911 29.1452 23.1003 28.9998 22.8821 28.7089C22.664 28.4908 22.4459 28.1999 22.3732 27.8364C22.2277 27.5455 22.155 27.182 22.155 26.8184C22.155 26.4548 22.2277 26.0913 22.3732 25.8004C22.5186 25.5096 22.664 25.2187 22.8821 24.9279C23.1003 24.7097 23.3911 24.4916 23.682 24.3462C24.1183 24.2007 24.4818 24.128 24.8454 24.128ZM32.4075 27.182C32.4075 27.5455 32.3348 27.9091 32.1894 28.1999C32.0439 28.4908 31.8985 28.7089 31.6804 28.9271C31.4622 29.1452 31.2441 29.2179 30.9532 29.3633C30.6624 29.4361 30.3715 29.5088 30.0807 29.5088C29.7898 29.5088 29.499 29.4361 29.2081 29.3633C28.9173 29.2906 28.6992 29.1452 28.481 28.9271C28.2629 28.7816 28.1175 28.4908 27.972 28.1999C27.8266 27.9091 27.7539 27.5455 27.7539 27.182V24.2735H28.8446V27.0365C28.8446 27.2547 28.8446 27.4728 28.9173 27.6182C28.99 27.7637 29.0627 27.9091 29.2081 28.0545C29.3536 28.1272 29.4263 28.1999 29.5717 28.2727C29.7171 28.3454 29.8626 28.3454 30.0807 28.3454C30.2261 28.3454 30.4443 28.3454 30.5897 28.2727C30.7351 28.1999 30.8805 28.1272 30.9532 28.0545C31.0987 27.9818 31.1714 27.8364 31.2441 27.6182C31.3168 27.4728 31.3168 27.2547 31.3168 27.0365V24.2735H32.4075V27.182ZM36.4067 24.128C36.5521 24.128 36.6975 24.128 36.843 24.128C36.9884 24.128 37.1338 24.2007 37.2065 24.2007L36.9157 25.2914C36.7703 25.2187 36.6975 25.2187 36.4794 25.146C36.334 25.146 36.1886 25.0733 36.0431 25.0733C35.8977 25.0733 35.6796 25.0733 35.5341 25.146C35.3887 25.2187 35.2433 25.2914 35.1706 25.4369C35.0979 25.5823 34.9524 25.7277 34.9524 25.8731C34.8797 26.0186 34.8797 26.2367 34.8797 26.4548V29.2179H33.789V24.2007H34.8797V24.7824C35.0252 24.5643 35.2433 24.3462 35.5341 24.2735C35.7523 24.2007 36.0431 24.128 36.4067 24.128ZM40.0423 24.128C40.4059 24.128 40.6967 24.2007 40.9876 24.3462C41.2784 24.4916 41.4966 24.637 41.7147 24.8552C41.9329 25.0733 42.0783 25.3641 42.2237 25.655C42.3691 25.9458 42.3691 26.3094 42.3691 26.7457C42.3691 26.8184 42.3691 26.8911 42.3691 26.9638C42.3691 27.0365 42.3691 27.1093 42.3691 27.182H38.7335C38.7335 27.4001 38.8062 27.6182 38.9516 27.7637C39.0244 27.9091 39.1698 28.0545 39.3152 28.1272C39.4606 28.1999 39.6061 28.2727 39.7515 28.3454C39.8969 28.4181 40.115 28.4181 40.2605 28.4181C40.4786 28.4181 40.7695 28.3454 40.9876 28.2727C41.2057 28.1999 41.4966 28.0545 41.7147 27.9091L42.2237 28.7089C41.9329 28.9998 41.5693 29.1452 41.2784 29.2906C40.9149 29.3633 40.5513 29.4361 40.1878 29.4361C39.8242 29.4361 39.4606 29.3633 39.1698 29.2179C38.8789 29.0725 38.5881 28.9271 38.3699 28.7089C38.1518 28.4908 37.9337 28.1999 37.861 27.9091C37.7155 27.6182 37.6428 27.2547 37.6428 26.8184C37.6428 26.4548 37.7155 26.0913 37.861 25.7277C38.0064 25.4369 38.1518 25.146 38.3699 24.8552C38.5881 24.637 38.8789 24.4189 39.1698 24.3462C39.3152 24.2007 39.6788 24.128 40.0423 24.128ZM40.0423 25.146C39.8242 25.146 39.6788 25.146 39.5333 25.2187C39.3879 25.2914 39.2425 25.3641 39.1698 25.5096C39.0244 25.655 38.9516 25.7277 38.8789 25.8731C38.8062 26.0186 38.7335 26.164 38.7335 26.3821H41.3512C41.2784 26.0186 41.133 25.655 40.9149 25.4369C40.6967 25.2187 40.4059 25.146 40.0423 25.146ZM47.1682 21.8012C47.459 21.8012 47.8226 21.8012 48.1134 21.8739C48.4043 21.9467 48.6951 22.0194 48.986 22.1648C49.2768 22.3102 49.495 22.4556 49.7131 22.6738C49.9313 22.8919 50.0767 23.1101 50.2221 23.3282L49.2041 23.9826C48.986 23.619 48.6951 23.4009 48.3316 23.1828C47.968 22.9646 47.6044 22.8919 47.1682 22.8919C46.8046 22.8919 46.441 22.9646 46.1502 23.1101C45.8593 23.2555 45.5685 23.4009 45.3504 23.6918C45.1322 23.9099 44.9141 24.2007 44.8414 24.5643C44.6959 24.9279 44.6232 25.2187 44.6232 25.655C44.6232 26.0186 44.6959 26.3821 44.8414 26.7457C44.9868 27.1093 45.1322 27.3274 45.3504 27.6182C45.5685 27.8364 45.8593 28.0545 46.1502 28.1272C46.441 28.2727 46.8046 28.3454 47.1682 28.3454C47.6044 28.3454 47.968 28.2727 48.3316 28.0545C48.6951 27.8364 48.986 27.6182 49.2041 27.2547L50.1494 27.9818C50.004 28.1999 49.7858 28.4181 49.5677 28.6362C49.3496 28.8544 49.1314 28.9998 48.8406 29.0725C48.5497 29.2179 48.3316 29.2906 48.0407 29.3633C47.7499 29.4361 47.459 29.4361 47.0955 29.4361C46.5138 29.4361 46.0048 29.3633 45.5685 29.1452C45.1322 28.9271 44.6959 28.7089 44.3324 28.3454C43.9688 27.9818 43.7507 27.6182 43.5325 27.1093C43.3144 26.673 43.2417 26.164 43.2417 25.5823C43.2417 25.0006 43.3144 24.4916 43.5325 24.0553C43.7507 23.619 43.9688 23.1828 44.3324 22.8192C44.6959 22.4556 45.0595 22.2375 45.5685 22.0194C46.0775 21.9467 46.5865 21.8012 47.1682 21.8012ZM53.6396 24.128C54.0032 24.128 54.3667 24.2007 54.7303 24.3462C55.0939 24.4916 55.312 24.637 55.6028 24.9279C55.821 25.146 56.0391 25.4369 56.1845 25.8004C56.33 26.0913 56.4027 26.4548 56.4027 26.8184C56.4027 27.182 56.33 27.5455 56.1845 27.8364C56.0391 28.1272 55.8937 28.4181 55.6028 28.7089C55.3847 28.9271 55.0939 29.1452 54.7303 29.2906C54.3667 29.4361 54.0759 29.5088 53.6396 29.5088C53.276 29.5088 52.9125 29.4361 52.5489 29.2906C52.1853 29.1452 51.9672 28.9998 51.6764 28.7089C51.4582 28.4908 51.2401 28.1999 51.0947 27.8364C50.9492 27.5455 50.8765 27.182 50.8765 26.8184C50.8765 26.4548 50.9492 26.0913 51.0947 25.8004C51.2401 25.5096 51.3855 25.2187 51.6764 24.9279C51.8945 24.7097 52.1853 24.4916 52.5489 24.3462C52.9125 24.2007 53.276 24.128 53.6396 24.128ZM53.6396 25.146C53.4215 25.146 53.2033 25.2187 52.9852 25.2914C52.767 25.3641 52.6216 25.5096 52.4762 25.655C52.3308 25.8004 52.2581 25.9459 52.1126 26.164C52.0399 26.3821 51.9672 26.6003 51.9672 26.8184C51.9672 27.0365 52.0399 27.2547 52.1126 27.4728C52.1853 27.691 52.3308 27.8364 52.4762 27.9818C52.6216 28.1272 52.767 28.1999 52.9852 28.3454C53.2033 28.4181 53.4215 28.4908 53.6396 28.4908C53.8577 28.4908 54.0759 28.4181 54.294 28.3454C54.5122 28.2727 54.6576 28.1272 54.803 27.9818C54.9484 27.8364 55.0211 27.691 55.1666 27.4728C55.2393 27.2547 55.312 27.0365 55.312 26.8184C55.312 26.6003 55.2393 26.3821 55.1666 26.164C55.0939 25.9459 54.9484 25.8004 54.803 25.655C54.6576 25.5096 54.5122 25.4369 54.294 25.2914C54.0759 25.2187 53.8577 25.146 53.6396 25.146ZM59.6748 24.128C60.0383 24.128 60.3292 24.2007 60.62 24.3462C60.9109 24.4916 61.129 24.637 61.2744 24.8552V21.7285H62.3651V29.2906H61.2744V28.7089C61.129 28.9271 60.9109 29.1452 60.62 29.2179C60.3292 29.3633 60.0383 29.4361 59.6748 29.4361C59.3112 29.4361 59.0203 29.3633 58.6568 29.2179C58.3659 29.0725 58.0751 28.9271 57.8569 28.6362C57.6388 28.4181 57.4207 28.1272 57.3479 27.7637C57.2025 27.4728 57.1298 27.1093 57.1298 26.673C57.1298 26.3094 57.2025 25.9459 57.3479 25.5823C57.4934 25.2914 57.6388 25.0006 57.8569 24.7097C58.0751 24.4916 58.3659 24.2735 58.6568 24.128C58.9476 24.2007 59.3112 24.128 59.6748 24.128ZM59.7475 25.146C59.5293 25.146 59.3112 25.2187 59.0931 25.2914C58.8749 25.3641 58.7295 25.5096 58.5841 25.655C58.4386 25.8004 58.3659 25.9459 58.2932 26.164C58.2205 26.3821 58.2205 26.6003 58.2205 26.8184C58.2205 27.0365 58.2205 27.2547 58.2932 27.4728C58.3659 27.691 58.4386 27.8364 58.5841 27.9818C58.7295 28.1272 58.8749 28.2727 59.0931 28.3454C59.3112 28.4181 59.4566 28.4908 59.7475 28.4908C59.9656 28.4908 60.1837 28.4181 60.4019 28.3454C60.62 28.2727 60.7654 28.1272 60.9109 27.9818C61.0563 27.8364 61.129 27.691 61.2017 27.4728C61.2744 27.2547 61.3471 27.0365 61.3471 26.8184C61.3471 26.6003 61.2744 26.3821 61.2017 26.164C61.129 25.9459 61.0563 25.8004 60.9109 25.655C60.7654 25.5096 60.62 25.3641 60.4019 25.2914C60.1837 25.2187 60.0383 25.146 59.7475 25.146ZM66.0008 24.128C66.3643 24.128 66.6552 24.2007 66.946 24.3462C67.2369 24.4916 67.455 24.637 67.6731 24.8552C67.8913 25.0733 68.0367 25.3641 68.1821 25.655C68.3276 25.9458 68.3276 26.3094 68.3276 26.7457C68.3276 26.8184 68.3276 26.8911 68.3276 26.9638C68.3276 27.0365 68.3276 27.1093 68.3276 27.182H64.6192C64.6192 27.4001 64.6919 27.6182 64.8374 27.7637C64.9101 27.9091 65.0555 28.0545 65.2009 28.1272C65.3463 28.1999 65.4918 28.2727 65.6372 28.3454C65.7826 28.4181 66.0008 28.4181 66.1462 28.4181C66.3643 28.4181 66.6552 28.3454 66.8733 28.2727C67.0914 28.1999 67.3823 28.0545 67.6004 27.9091L68.1094 28.7089C67.8186 28.9998 67.455 29.1452 67.1642 29.2906C66.8006 29.3633 66.437 29.4361 66.0735 29.4361C65.7099 29.4361 65.3463 29.3633 65.0555 29.2179C64.7646 29.0725 64.4738 28.9271 64.2556 28.7089C64.0375 28.4908 63.8194 28.1999 63.7467 27.9091C63.6012 27.6182 63.5285 27.2547 63.5285 26.8184C63.5285 26.4548 63.6012 26.0913 63.7467 25.7277C63.8921 25.4369 64.0375 25.146 64.2556 24.8552C64.4738 24.637 64.7646 24.4189 65.0555 24.3462C65.2736 24.2007 65.6372 24.128 66.0008 24.128ZM68.8365 29.2906V29.0725H68.9093V28.9998H68.6184V29.0725H68.6911L68.8365 29.2906ZM69.3455 29.2906V28.9998H69.2728L69.2001 29.2179L69.1274 28.9998H69.0547V29.2906H69.1274V29.0725L69.2001 29.2906H69.2728L69.3455 29.0725V29.2906ZM65.928 25.146C65.7099 25.146 65.5645 25.146 65.419 25.2187C65.2736 25.2914 65.1282 25.3641 65.0555 25.5096C64.9101 25.655 64.8374 25.7277 64.7646 25.8731C64.6919 26.0186 64.6192 26.164 64.6192 26.3821H67.2369C67.1642 26.0186 67.0187 25.655 66.8006 25.4369C66.5825 25.2187 66.2916 25.146 65.928 25.146Z" fill="#F59E1F"/>
        <path d="M18.6648 18.9653H17.4287V12.712L15.2473 18.1654H13.9384L11.6844 12.712V18.8926H10.4482V11.3304H12.3388L14.5202 16.7839L16.7015 11.3304H18.5921V18.9653H18.6648ZM25.1362 18.9653H23.9728V18.3109C23.8274 18.529 23.5365 18.7471 23.3184 18.8926C23.0275 19.038 22.7367 19.1107 22.3731 19.1107C22.0096 19.1107 21.646 19.038 21.3551 18.8926C21.0643 18.7471 20.7734 18.6017 20.5553 18.3109C20.3372 18.0927 20.119 17.8019 19.9736 17.4383C19.8282 17.0747 19.7555 16.7112 19.7555 16.3476C19.7555 15.9841 19.8282 15.5478 19.9736 15.2569C20.119 14.8934 20.2645 14.6025 20.5553 14.3844C20.7734 14.1662 21.0643 13.9481 21.3551 13.8027C21.646 13.6572 22.0096 13.5845 22.3731 13.5845C22.7367 13.5845 23.1002 13.6572 23.3184 13.8027C23.6092 13.9481 23.8274 14.0935 23.9728 14.3844V13.73H25.1362V18.9653ZM22.5185 14.6752C22.3004 14.6752 22.0823 14.7479 21.8641 14.8207C21.646 14.8934 21.5006 15.0388 21.3551 15.1842C21.2097 15.3296 21.137 15.4751 21.0643 15.6932C20.9916 15.9113 20.9916 16.1295 20.9916 16.3476C20.9916 16.5658 20.9916 16.7839 21.0643 17.002C21.137 17.2202 21.2097 17.3656 21.3551 17.511C21.5006 17.6564 21.646 17.8019 21.8641 17.8746C22.0823 17.9473 22.3004 18.02 22.5185 18.02C22.7367 18.02 22.9548 17.9473 23.173 17.8746C23.3911 17.8019 23.5365 17.6564 23.6819 17.511C23.8274 17.3656 23.9001 17.2202 23.9728 17.002C24.0455 16.7839 24.1182 16.5658 24.1182 16.3476C24.1182 16.1295 24.0455 15.9113 23.9728 15.6932C23.9001 15.4751 23.7547 15.3296 23.6819 15.1842C23.5365 15.0388 23.3911 14.8934 23.173 14.8207C22.9548 14.6752 22.7367 14.6752 22.5185 14.6752ZM30.3715 15.0388C30.2988 14.9661 30.2261 14.9661 30.0807 14.8934C29.9352 14.8207 29.8625 14.8207 29.7171 14.7479C29.5717 14.6752 29.4262 14.6752 29.2808 14.6752C29.1354 14.6752 28.99 14.6025 28.7718 14.6025C28.481 14.6025 28.1901 14.6752 28.0447 14.7479C27.8993 14.8934 27.7539 15.0388 27.7539 15.1842C27.7539 15.2569 27.7539 15.3296 27.8266 15.4024C27.8993 15.4751 27.8993 15.5478 28.0447 15.5478C28.1174 15.6205 28.1901 15.6205 28.3356 15.6205C28.4083 15.6205 28.5537 15.6932 28.6991 15.6932L29.2081 15.7659C29.7898 15.8386 30.2261 15.9841 30.5169 16.2749C30.8078 16.493 31.0259 16.8566 31.0259 17.2929C31.0259 17.511 30.9532 17.8019 30.8805 17.9473C30.8078 18.1654 30.5897 18.3109 30.4442 18.4563C30.2261 18.6017 30.0079 18.7471 29.7171 18.8198C29.4262 18.8926 29.0627 18.9653 28.6991 18.9653C28.5537 18.9653 28.4083 18.9653 28.2628 18.9653C28.1174 18.9653 27.8993 18.8926 27.6811 18.8926C27.463 18.8198 27.2449 18.7471 27.0994 18.6744C26.8813 18.6017 26.6632 18.4563 26.5177 18.3109L27.0267 17.4383C27.0994 17.511 27.2449 17.5837 27.3176 17.6564C27.463 17.7292 27.5357 17.8019 27.6811 17.8019C27.8266 17.8746 27.972 17.8746 28.1174 17.9473C28.2628 17.9473 28.481 18.02 28.6991 18.02C29.0627 18.02 29.3535 17.9473 29.5717 17.8746C29.7898 17.7292 29.8625 17.5837 29.8625 17.4383C29.8625 17.2929 29.7898 17.1475 29.6444 17.0747C29.499 17.002 29.2808 16.9293 28.99 16.8566L28.481 16.7839C27.8993 16.7112 27.463 16.5658 27.1722 16.2749C26.8813 15.9841 26.7359 15.6932 26.7359 15.2569C26.7359 14.9661 26.8086 14.7479 26.8813 14.5298C26.954 14.3117 27.0994 14.1662 27.3176 14.0208C27.5357 13.8754 27.7539 13.8027 27.972 13.6572C28.2628 13.5845 28.5537 13.5118 28.8445 13.5118C29.2808 13.5118 29.6444 13.5845 30.0079 13.6572C30.3715 13.73 30.6624 13.8754 30.9532 14.0935L30.3715 15.0388ZM35.7523 14.7479H33.789V17.002C33.789 17.1475 33.789 17.2929 33.8617 17.4383C33.9344 17.5837 33.9344 17.6564 34.0071 17.7292C34.0799 17.8019 34.1526 17.8746 34.298 17.8746C34.3707 17.8746 34.5161 17.9473 34.5888 17.9473C34.7343 17.9473 34.9524 17.9473 35.0978 17.8746C35.316 17.8019 35.4614 17.7292 35.6068 17.6564L36.0431 18.529C35.825 18.6744 35.6068 18.8198 35.316 18.8926C35.0251 18.9653 34.7343 19.038 34.4434 19.038C33.8617 19.038 33.4254 18.8926 33.0619 18.529C32.6983 18.1654 32.5529 17.6564 32.5529 17.002V14.6752H31.5349V13.6572H32.5529V12.0576H33.7163V13.6572H35.6795V14.7479H35.7523ZM39.2425 13.5845C39.606 13.5845 39.9696 13.6572 40.2604 13.8027C40.5513 13.9481 40.8421 14.0935 41.0603 14.3844C41.2784 14.6025 41.4238 14.8934 41.5693 15.2569C41.7147 15.6205 41.7874 15.9841 41.7874 16.3476C41.7874 16.4203 41.7874 16.493 41.7874 16.5658C41.7874 16.6385 41.7874 16.7112 41.7874 16.7839H37.9336C37.9336 17.002 38.0063 17.2202 38.1518 17.3656C38.2245 17.511 38.3699 17.6564 38.5153 17.8019C38.6608 17.8746 38.8062 18.02 38.9516 18.02C39.097 18.0927 39.3152 18.0927 39.4606 18.0927C39.7514 18.0927 39.9696 18.02 40.2604 17.9473C40.5513 17.8746 40.7694 17.7292 40.9876 17.511L41.5693 18.3109C41.2784 18.6017 40.9149 18.7471 40.5513 18.8926C40.1877 18.9653 39.8242 19.038 39.3879 19.038C39.0243 19.038 38.6608 18.9653 38.2972 18.8198C38.0063 18.6744 37.7155 18.529 37.4246 18.2381C37.2065 18.02 36.9884 17.7292 36.8429 17.3656C36.6975 17.002 36.6248 16.6385 36.6248 16.2749C36.6248 15.8386 36.6975 15.4751 36.8429 15.1842C36.9884 14.8207 37.1338 14.5298 37.3519 14.3117C37.5701 14.0935 37.8609 13.8754 38.1518 13.73C38.5153 13.6572 38.8789 13.5845 39.2425 13.5845ZM39.2425 14.6025C39.0243 14.6025 38.8789 14.6025 38.7335 14.6752C38.588 14.7479 38.4426 14.8207 38.2972 14.9661C38.1518 15.1115 38.0791 15.1842 38.0063 15.4024C37.9336 15.5478 37.8609 15.7659 37.8609 15.9113H40.5513C40.4786 15.4751 40.3332 15.1842 40.115 14.9661C39.8969 14.6752 39.606 14.6025 39.2425 14.6025ZM45.6412 13.5845C45.7866 13.5845 46.0047 13.5845 46.0774 13.5845C46.2229 13.5845 46.3683 13.6572 46.5137 13.73L46.2229 14.8207C46.0774 14.7479 45.932 14.7479 45.7866 14.6752C45.6412 14.6752 45.4958 14.6025 45.3503 14.6025C45.2049 14.6025 44.9868 14.6025 44.8413 14.6752C44.6959 14.7479 44.5505 14.8207 44.4778 14.9661C44.4051 15.1115 44.2596 15.2569 44.1869 15.4024C44.1142 15.5478 44.1142 15.7659 44.1142 15.9841V18.8198H42.9508V13.5845H44.0415V14.1662C44.1869 13.9481 44.4051 13.73 44.6959 13.5845C45.0595 13.6572 45.3503 13.5845 45.6412 13.5845ZM49.5677 13.5845C49.9312 13.5845 50.2948 13.6572 50.6584 13.8027C51.0219 13.9481 51.3128 14.1662 51.5309 14.4571L50.8038 15.2569C50.5856 15.1115 50.4402 14.9661 50.2221 14.8207C50.0039 14.7479 49.7858 14.6752 49.5677 14.6752C49.3495 14.6752 49.1314 14.7479 48.986 14.8207C48.7678 14.8934 48.6224 15.0388 48.477 15.1842C48.3315 15.3296 48.2588 15.4751 48.1861 15.6932C48.1134 15.9113 48.0407 16.1295 48.0407 16.3476C48.0407 16.5658 48.1134 16.7839 48.1861 17.002C48.2588 17.2202 48.4043 17.3656 48.477 17.511C48.6224 17.6564 48.7678 17.8019 48.986 17.8746C49.2041 17.9473 49.3495 18.02 49.5677 18.02C49.7858 18.02 50.0766 17.9473 50.2948 17.8746C50.5129 17.8019 50.7311 17.6564 50.8765 17.511L51.6036 18.3109C51.3855 18.6017 51.0946 18.8198 50.7311 18.9653C50.3675 19.1107 50.0039 19.1834 49.6404 19.1834C49.2041 19.1834 48.8405 19.1107 48.5497 18.9653C48.1861 18.8198 47.8953 18.6017 47.6771 18.3836C47.459 18.1654 47.2409 17.8746 47.0954 17.511C46.95 17.1475 46.8773 16.7839 46.8773 16.4203C46.8773 16.0568 46.95 15.6932 47.0954 15.3296C47.2409 14.9661 47.3863 14.6752 47.6771 14.4571C47.8953 14.2389 48.1861 14.0208 48.5497 13.8754C48.7678 13.6572 49.1314 13.5845 49.5677 13.5845ZM57.5661 18.9653H56.4027V18.3109C56.2572 18.529 55.9664 18.7471 55.7482 18.8926C55.4574 19.038 55.1665 19.1107 54.803 19.1107C54.4394 19.1107 54.0758 19.038 53.785 18.8926C53.4941 18.7471 53.2033 18.6017 52.9852 18.3109C52.767 18.0927 52.5489 17.8019 52.4035 17.4383C52.258 17.0747 52.1853 16.7112 52.1853 16.3476C52.1853 15.9841 52.258 15.5478 52.4035 15.2569C52.5489 14.8934 52.6943 14.6025 52.9852 14.3844C53.2033 14.1662 53.4941 13.9481 53.785 13.8027C54.0758 13.6572 54.4394 13.5845 54.803 13.5845C55.1665 13.5845 55.5301 13.6572 55.7482 13.8027C56.0391 13.9481 56.2572 14.0935 56.4027 14.3844V13.73H57.5661V18.9653ZM54.9484 14.6752C54.7303 14.6752 54.5121 14.7479 54.294 14.8207C54.0758 14.8934 53.9304 15.0388 53.785 15.1842C53.6396 15.3296 53.5669 15.4751 53.4941 15.6932C53.4214 15.9113 53.4214 16.1295 53.4214 16.3476C53.4214 16.5658 53.4941 16.7839 53.4941 17.002C53.5669 17.2202 53.6396 17.3656 53.785 17.511C53.9304 17.6564 54.0758 17.8019 54.294 17.8746C54.5121 17.9473 54.7303 18.02 54.9484 18.02C55.1665 18.02 55.3847 17.9473 55.6028 17.8746C55.8209 17.8019 55.9664 17.6564 56.1118 17.511C56.2572 17.3656 56.3299 17.2202 56.4027 17.002C56.4754 16.7839 56.5481 16.5658 56.5481 16.3476C56.5481 16.1295 56.4754 15.9113 56.4027 15.6932C56.3299 15.4751 56.1845 15.3296 56.1118 15.1842C55.9664 15.0388 55.8209 14.8934 55.6028 14.8207C55.3847 14.6752 55.1665 14.6752 54.9484 14.6752ZM61.8561 13.5845C62.0015 13.5845 62.2197 13.5845 62.2924 13.5845C62.4378 13.5845 62.5832 13.6572 62.7287 13.73L62.4378 14.8207C62.2924 14.7479 62.147 14.7479 62.0015 14.6752C61.8561 14.6752 61.7107 14.6025 61.5653 14.6025C61.4198 14.6025 61.2017 14.6025 61.0563 14.6752C60.9108 14.7479 60.7654 14.8207 60.6927 14.9661C60.62 15.1115 60.4746 15.2569 60.4019 15.4024C60.3291 15.5478 60.3291 15.7659 60.3291 15.9841V18.8198H59.1657V13.5845H60.2564V14.1662C60.4018 13.9481 60.62 13.73 60.9108 13.5845C61.2744 13.6572 61.5653 13.5845 61.8561 13.5845ZM65.6372 13.5845C66.0007 13.5845 66.3643 13.6572 66.5824 13.8027C66.8733 13.9481 67.0914 14.0935 67.2368 14.3844V11.1123H68.4002V18.9653H67.2368V18.3109C67.0914 18.529 66.8006 18.7471 66.5824 18.8926C66.2916 19.038 66.0007 19.1107 65.6372 19.1107C65.2736 19.1107 64.91 19.038 64.6192 18.8926C64.3283 18.7471 64.0375 18.6017 63.8193 18.3109C63.6012 18.0927 63.3831 17.8019 63.2376 17.4383C63.0922 17.0747 63.0195 16.7112 63.0195 16.3476C63.0195 15.9841 63.0922 15.5478 63.2376 15.2569C63.3831 14.8934 63.5285 14.6025 63.8193 14.3844C64.0375 14.1662 64.3283 13.9481 64.6192 13.8027C64.91 13.6572 65.2736 13.5845 65.6372 13.5845ZM69.7091 18.4563C69.7818 18.4563 69.7818 18.4563 69.8545 18.4563C69.9272 18.4563 69.9272 18.529 69.9272 18.529L69.9999 18.6017C69.9999 18.6744 69.9999 18.6744 69.9999 18.7471C69.9999 18.8198 69.9999 18.8198 69.9999 18.8926C69.9999 18.9653 69.9272 18.9653 69.9272 18.9653L69.8545 19.038C69.7818 19.038 69.7818 19.038 69.7091 19.038C69.6364 19.038 69.6364 19.038 69.5636 19.038C69.4909 19.038 69.4909 18.9653 69.4909 18.9653L69.4182 18.8926C69.4182 18.8198 69.4182 18.8198 69.4182 18.7471C69.4182 18.6744 69.4182 18.6744 69.4182 18.6017C69.4182 18.529 69.4909 18.529 69.4909 18.529L69.5636 18.4563C69.6364 18.4563 69.6364 18.4563 69.7091 18.4563ZM69.7091 19.038H69.7818C69.7818 19.038 69.8545 19.038 69.8545 18.9653L69.9272 18.8926V18.8198V18.7471C69.9272 18.7471 69.9272 18.6744 69.8545 18.6744L69.7818 18.6017H69.7091H69.6364C69.6364 18.6017 69.5636 18.6017 69.5636 18.6744L69.4909 18.7471V18.8198V18.8926C69.4909 18.8926 69.4909 18.9653 69.5636 18.9653L69.6364 19.038H69.7091ZM69.7091 18.6017C69.7818 18.6017 69.7818 18.6017 69.7818 18.6017V18.6744V18.7471H69.7091L69.7818 18.8926H69.7091L69.6364 18.7471V18.8926H69.5636V18.6017H69.7091ZM69.6364 18.6744V18.7471H69.7091C69.7091 18.7471 69.7091 18.7471 69.7818 18.7471C69.7818 18.7471 69.7818 18.7471 69.7091 18.7471H69.6364V18.6744ZM65.7826 14.6752C65.5644 14.6752 65.3463 14.7479 65.1282 14.8207C64.91 14.8934 64.7646 15.0388 64.6192 15.1842C64.4738 15.3296 64.401 15.4751 64.3283 15.6932C64.1829 15.9113 64.1829 16.1295 64.1829 16.3476C64.1829 16.5658 64.2556 16.7839 64.2556 17.002C64.3283 17.2202 64.401 17.3656 64.5465 17.511C64.6919 17.6564 64.8373 17.8019 65.0555 17.8746C65.2736 17.9473 65.4917 18.02 65.7099 18.02C65.928 18.02 66.1461 17.9473 66.3643 17.8746C66.5824 17.8019 66.7278 17.6564 66.8733 17.511C67.0187 17.3656 67.0914 17.2202 67.1641 17.002C67.2368 16.7839 67.3096 16.5658 67.3096 16.3476C67.3096 16.1295 67.2368 15.9113 67.1641 15.6932C67.0914 15.4751 66.946 15.3296 66.8733 15.1842C66.7278 15.0388 66.5824 14.8934 66.3643 14.8207C66.2189 14.6752 66.0007 14.6752 65.7826 14.6752Z" fill="#E41522"/>
    </g>
    <defs>
        <clipPath id="clip0_4177_163862">
            <rect width="80" height="40" rx="4" fill="white"/>
        </clipPath>
    </defs>
</svg>
