<svg width="80" height="40" viewBox="0 0 80 40" fill="none" xmlns="http://www.w3.org/2000/svg">
    <g clip-path="url(#clip0_4177_163863)">
        <rect width="80" height="40" rx="4" fill="#FDEACE"/>
        <path d="M46.6525 8.15922L33.7412 8.20361L34.1325 31.8409L47.0437 31.7965L46.6525 8.15922Z" fill="#FF5F00"/>
        <path d="M34.5911 20.0702C34.5112 15.2626 36.6649 10.9908 40.0382 8.21992C37.492 6.22187 34.2998 5.02036 30.8394 5.03222C22.6417 5.06029 16.1211 11.8137 16.2594 20.133C16.3976 28.4523 23.1419 35.1603 31.3396 35.1322C34.8 35.1203 37.9519 33.8971 40.4314 31.8819C36.9671 29.1762 34.671 24.8778 34.5911 20.0702Z" fill="#EB001B"/>
        <path d="M64.5258 19.8678C64.6641 28.1871 58.1436 34.9405 49.9458 34.9686C46.4854 34.9804 43.2932 33.7789 40.747 31.7809C44.1615 29.0098 46.274 24.7382 46.1941 19.9306C46.1142 15.1229 43.8188 10.8664 40.3538 8.11893C42.8333 6.10366 45.9852 4.88043 49.4456 4.86858C57.6434 4.8405 64.3883 11.5903 64.5258 19.8678Z" fill="#F79E1B"/>
    </g>
    <defs>
        <clipPath id="clip0_4177_163863">
            <rect width="80" height="40" rx="4" fill="white"/>
        </clipPath>
    </defs>
</svg>
