<svg width="80" height="40" viewBox="0 0 80 40" fill="none" xmlns="http://www.w3.org/2000/svg">
    <g clip-path="url(#clip0_4177_163855)">
        <rect width="80" height="40" rx="4" fill="#DCEFDC"/>
        <path d="M59.8598 12.7568H50.2336C50.7944 15.9344 53.8785 18.9251 57.243 18.9251H64.9066C65 18.6447 65 18.1774 65 17.897C65 15.0933 62.6635 12.7568 59.8598 12.7568Z" fill="url(#paint0_linear_4177_163855)"/>
        <path d="M51.0747 19.4858V27.2428H55.7476V23.1307H59.8597C62.1027 23.1307 64.0654 21.5419 64.7196 19.4858H51.0747Z" fill="#4FAD50"/>
        <path d="M34.6262 12.7568V27.1494H38.7384C38.7384 27.1494 39.7664 27.1494 40.3272 26.1213C43.1309 20.6073 43.972 18.9251 43.972 18.9251H44.5328V27.1494H49.2057V12.7568H45.0935C45.0935 12.7568 44.0655 12.8503 43.5047 13.7849C41.1683 18.5512 39.8599 20.9811 39.8599 20.9811H39.2991V12.7568H34.6262Z" fill="#4FAD50"/>
        <path d="M15 27.2426V12.8501H19.6729C19.6729 12.8501 20.9813 12.8501 21.729 14.9062C23.5981 20.3267 23.7851 21.0744 23.7851 21.0744C23.7851 21.0744 24.1589 19.766 25.8411 14.9062C26.5888 12.8501 27.8972 12.8501 27.8972 12.8501H32.5701V27.2426H27.8972V19.4856H27.3365L24.7196 27.2426H22.6636L20.0468 19.4856H19.486V27.2426H15Z" fill="#4FAD50"/>
    </g>
    <defs>
        <linearGradient id="paint0_linear_4177_163855" x1="50.217" y1="15.8852" x2="64.9669" y2="15.8852" gradientUnits="userSpaceOnUse">
            <stop stop-color="#27B1E6"/>
            <stop offset="1" stop-color="#148ACA"/>
        </linearGradient>
        <clipPath id="clip0_4177_163855">
            <rect width="80" height="40" rx="4" fill="white"/>
        </clipPath>
    </defs>
</svg>
