<svg width="80" height="40" viewBox="0 0 80 40" fill="none" xmlns="http://www.w3.org/2000/svg">
    <g clip-path="url(#clip0_4177_163856)">
        <rect width="80" height="40" rx="4" fill="#D8E3F3"/>
        <rect width="80" height="40" rx="4" fill="#D8E3F3"/>
        <path opacity="0.938" fill-rule="evenodd" clip-rule="evenodd" d="M18.0041 22.7977C17.9611 22.7694 18.2564 21.6317 18.9606 19.1127C19.5209 17.1085 20.0478 15.2337 20.1315 14.9465L20.2838 14.4243L22.4853 14.4645C25.0588 14.5115 25.455 14.5455 25.869 14.755C26.6029 15.1263 26.8049 15.6977 26.552 16.6866C26.3366 17.5288 25.9251 18.102 25.1293 18.6682C24.9784 18.7755 24.8466 18.9068 24.8364 18.9599C24.825 19.0188 24.9191 19.1485 25.0778 19.293C25.2208 19.4231 25.3728 19.5973 25.4156 19.68C25.5307 19.9027 25.5107 20.3487 25.351 21.1218C25.2727 21.5009 25.1939 22.0426 25.1759 22.3256L25.1433 22.8403H24.0777C23.3231 22.8403 22.9926 22.8208 22.9454 22.7735C22.8414 22.6695 22.8649 22.4043 23.0455 21.6441C23.2465 20.7981 23.2586 20.4661 23.0962 20.2596C22.8817 19.9869 22.6871 19.9279 21.9167 19.9021C21.2952 19.8813 21.1915 19.8907 21.0973 19.976C20.9507 20.1087 20.8317 20.4512 20.4841 21.7415L20.1881 22.8403L19.1272 22.8394C18.5436 22.839 18.0383 22.8202 18.0041 22.7977ZM23.605 18.0774C24.111 17.9272 24.3241 17.5972 24.3248 16.9631C24.325 16.7723 24.2927 16.638 24.2277 16.5596C24.0742 16.3741 23.6116 16.3111 22.744 16.3576L21.9898 16.398L21.88 16.7679C21.7104 17.339 21.5914 17.8912 21.61 18.0213C21.6221 18.1064 21.6809 18.1498 21.8215 18.1773C22.1296 18.2378 23.2826 18.1732 23.605 18.0774Z" fill="#265797"/>
        <path opacity="0.938" fill-rule="evenodd" clip-rule="evenodd" d="M27.1734 22.9611C26.8365 22.8406 26.5715 22.6156 26.4602 22.3555C26.2486 21.8609 26.4432 20.7618 27.2156 18.0878C27.4006 17.4474 27.552 16.9172 27.552 16.9095C27.552 16.9018 27.5913 16.8562 27.6394 16.8081C27.7107 16.7368 27.8736 16.7207 28.5259 16.7207C28.9654 16.7207 29.3872 16.7444 29.4633 16.7733L29.6016 16.8259L29.4636 17.3157C29.1253 18.5169 28.7744 19.974 28.7137 20.4296C28.6586 20.8435 28.6608 20.9535 28.7264 21.0905C28.8758 21.4022 29.4182 21.4682 29.8798 21.2307C30.4213 20.9521 30.5229 20.7137 31.3934 17.6777C31.521 17.2326 31.6184 17.0012 31.727 16.8849L31.8804 16.7207H32.75C33.4225 16.7207 33.626 16.7375 33.648 16.7947C33.6698 16.8514 32.5647 20.9658 32.0989 22.5623L32.0259 22.8127L31.0962 22.8405C30.5849 22.8558 30.1666 22.8527 30.1667 22.8336C30.1667 22.8145 30.2047 22.6914 30.251 22.56C30.439 22.0272 30.2046 21.9938 29.52 22.4558C28.8434 22.9123 28.5598 23.0204 27.9741 23.0452C27.5781 23.062 27.4046 23.0437 27.1734 22.9611Z" fill="#265797"/>
        <path opacity="0.938" fill-rule="evenodd" clip-rule="evenodd" d="M33.3543 22.7959C33.3048 22.7645 33.591 21.6603 34.4393 18.6102L35.5914 14.4673L37.5385 14.4836C39.9674 14.5039 40.464 14.547 40.9336 14.7782C41.3197 14.9683 41.5035 15.1383 41.6754 15.4641C41.9641 16.0116 41.9593 16.6466 41.6598 17.518C41.1994 18.8574 40.3401 19.738 39.2074 20.0313C39.0238 20.0788 38.448 20.1431 37.9278 20.1742C36.2093 20.2768 36.3126 20.2575 36.2206 20.4934C36.1766 20.6061 36.0049 21.1803 35.8391 21.7693L35.5376 22.8403L34.4795 22.8394C33.8975 22.839 33.3912 22.8193 33.3543 22.7959ZM38.3644 18.3368C38.9307 18.2638 39.2282 18.0891 39.4171 17.7187C39.6202 17.3206 39.6738 16.8873 39.5444 16.6898C39.368 16.4206 39.1266 16.3618 38.2167 16.3665C37.7637 16.3688 37.3707 16.393 37.3435 16.4204C37.2812 16.483 36.8985 17.9956 36.8985 18.1792C36.8985 18.2541 36.9152 18.332 36.9356 18.3524C36.9884 18.4051 37.9124 18.395 38.3644 18.3368Z" fill="#265797"/>
        <path opacity="0.938" fill-rule="evenodd" clip-rule="evenodd" d="M41.544 22.984C40.8888 22.7095 40.7191 22.256 40.9326 21.3505C41.231 20.0846 41.8884 19.6613 44.1454 19.2817C45.5081 19.0525 45.8483 18.885 45.9464 18.395C46.0189 18.0325 45.7082 17.8343 45.0665 17.8336C44.6658 17.8332 44.5156 17.8917 44.168 18.1828L43.888 18.4175L43.1664 18.436C42.3301 18.4574 42.0725 18.4242 42.0725 18.2947C42.0725 18.1438 42.4005 17.6829 42.7071 17.4029C43.0365 17.1021 43.4723 16.8716 43.9442 16.7487C44.9353 16.4906 46.6413 16.5206 47.2276 16.8065C47.5414 16.9595 47.8204 17.2137 47.9532 17.4676C48.0789 17.708 48.034 17.9574 47.4415 20.3066C47.1506 21.4596 46.9127 22.5015 46.9127 22.6217V22.8404H46.225C45.8468 22.8404 45.4217 22.8563 45.2804 22.8756L45.0235 22.9109L44.9105 22.6472C44.7777 22.3375 44.7621 22.3375 44.0625 22.6522C43.3028 22.994 43.0243 23.0701 42.4341 23.0978C41.9319 23.1213 41.8453 23.1102 41.544 22.984ZM44.5342 21.6841C44.9178 21.5143 45.3512 20.8198 45.3537 20.3706L45.3549 20.1539L45.0014 20.1869C44.6104 20.2234 43.7833 20.4902 43.4801 20.6775C43.2241 20.8357 43.0742 21.0906 43.075 21.3661C43.0757 21.6304 43.1146 21.7026 43.298 21.7808C43.5074 21.87 44.2441 21.8123 44.5342 21.6841Z" fill="#265797"/>
        <path opacity="0.938" fill-rule="evenodd" clip-rule="evenodd" d="M47.5982 25.4759C47.3754 25.4257 47.3668 25.3425 47.5218 24.732C47.7294 23.914 47.7158 23.931 48.2283 23.8513C48.7815 23.7653 49.0285 23.6438 49.1518 23.3968C49.2885 23.1233 49.2787 22.0492 49.1132 19.1686C49.0212 17.5656 48.9983 16.8385 49.0383 16.7902C49.0805 16.7394 49.3621 16.7207 50.0872 16.7207H51.0784L51.0957 18.5817C51.1075 19.8514 51.1327 20.4624 51.1749 20.5046C51.2761 20.6057 51.6484 19.9762 53.1739 17.1241L53.3896 16.7207H54.2648C54.7461 16.7207 55.1518 16.7399 55.1663 16.7633C55.1941 16.8084 53.868 19.1723 52.5373 21.4496C50.646 24.6864 50.2903 25.1324 49.4031 25.3796C49.1134 25.4604 47.8322 25.5287 47.5982 25.4759Z" fill="#265797"/>
        <path fill-rule="evenodd" clip-rule="evenodd" d="M55.7976 24.7334L58.3985 15.2061L60.8742 20.1297L55.7976 24.7334Z" fill="#479951"/>
        <path fill-rule="evenodd" clip-rule="evenodd" d="M54.1882 24.7681L56.7891 15.2407L59.2649 20.1644L54.1882 24.7681Z" fill="#D97B16"/>
        <path fill-rule="evenodd" clip-rule="evenodd" d="M61.3549 15.0277V14.3784H61.1079V14.2651H61.7311V14.3784H61.4822V15.0277H61.3549ZM61.8162 15.0277V14.2651H62.0033L62.1961 14.8743L62.3823 14.2651H62.5657V15.0277H62.4496V14.3877L62.2532 15.0277H62.1381L61.9332 14.3784V15.0277H61.8162Z" fill="black"/>
        <path opacity="0.938" fill-rule="evenodd" clip-rule="evenodd" d="M62.9486 14.6324C62.9486 15.2168 62.4748 15.6905 61.8904 15.6905C61.306 15.6905 60.8323 15.2168 60.8323 14.6324C60.8323 14.048 61.306 13.5742 61.8904 13.5742C62.4748 13.5742 62.9486 14.048 62.9486 14.6324Z" stroke="black" stroke-width="0.5"/>
    </g>
    <defs>
        <clipPath id="clip0_4177_163856">
            <rect width="80" height="40" rx="4" fill="white"/>
        </clipPath>
    </defs>
</svg>
