<svg width="80" height="40" viewBox="0 0 80 40" fill="none" xmlns="http://www.w3.org/2000/svg">
    <g clip-path="url(#clip0_4177_163854)">
        <rect width="80" height="40" rx="4" fill="#CFE6FC"/>
        <path d="M37.3262 22.6091L38.6562 14.105H40.7464L39.4163 22.6091H37.3262Z" fill="#074784"/>
        <path d="M31.1509 14.105H34.4761C36.5662 14.105 37.1363 15.3613 36.8513 16.8108C36.6612 18.0671 35.8062 18.8402 34.6661 19.1301L36.7562 22.6091H34.0011L32.386 19.2268L31.911 22.6091H29.7258L31.1509 14.105ZM33.051 15.7478L32.671 17.8738H33.336C33.9061 17.8738 34.4761 17.3907 34.5711 16.8108C34.6661 16.231 34.2861 15.7478 33.6211 15.7478H33.051Z" fill="#074784"/>
        <path d="M47.1118 22.6091L48.4419 14.105H50.627L49.2969 22.6091H47.1118Z" fill="#074784"/>
        <path d="M54.1423 15.9411L53.8573 17.3907H56.3274L56.0424 19.2268H53.5723L53.3823 20.773H55.9474L55.6624 22.6091H50.9121L52.2422 14.105H56.9925L56.7075 15.9411H54.1423Z" fill="#074784"/>
        <path d="M26.9707 15.9411L26.7807 17.3907H29.2508L28.9658 19.2268H26.4956L26.2106 20.773H28.7758L28.4908 22.6091H23.7405L25.0706 14.105H29.8208L29.5358 15.9411H26.9707Z" fill="#074784"/>
        <path d="M44.2617 15.9411L44.0717 17.3907H46.4468L46.1618 19.2268H43.7867L43.2166 22.6091H41.0315L42.3616 14.105H47.2069L46.9218 15.9411H44.2617Z" fill="#074784"/>
        <path d="M61.0777 14.105H58.2275L56.8975 22.6091H59.7476C62.4078 22.6091 64.5929 20.773 64.9729 18.357C65.163 16.7142 64.4029 14.105 61.0777 14.105ZM62.6928 18.2604C62.4078 19.8066 61.3627 20.773 59.9376 20.773C59.7476 20.773 59.5576 20.773 59.3676 20.773L60.1277 15.9411C60.3177 15.9411 60.4127 15.9411 60.6027 15.9411C62.2178 15.9411 62.8828 17.1007 62.6928 18.2604Z" fill="#074784"/>
        <path d="M15 12.9455H18.9902L19.4653 19.1303C22.1254 14.4917 24.7856 10.0464 27.5407 5.60107H28.8708C26.0207 11.206 23.1705 16.9077 20.4153 22.6093H17.4701L16.7101 15.748C16.5201 14.1052 16.2351 13.3321 15 13.2354V12.9455Z" fill="#074784"/>
        <path d="M20.4153 14.7817L23.5504 9.37003V9.17676H16.52V9.37003L19.9402 10.9162L20.2252 14.7817H20.4153Z" fill="#F09C11"/>
        <path d="M32.8611 27.3445C32.2911 27.3445 31.8161 27.6344 31.436 28.021L31.9111 24.6387H30.486L29.4409 32.0798H30.866L30.961 31.4999C31.246 31.8865 31.626 32.1764 32.1961 32.1764C33.3361 32.1764 34.3812 31.1134 34.5712 29.7605C34.7612 28.4075 34.0012 27.3445 32.8611 27.3445ZM33.0511 29.7605C32.9561 30.3403 32.4811 30.8235 32.0061 30.8235C31.531 30.8235 31.151 30.3403 31.246 29.7605C31.341 29.1806 31.8161 28.6974 32.2911 28.6974C32.7661 28.6974 33.1461 29.1806 33.0511 29.7605Z" fill="#074784"/>
        <path d="M38.5614 27.4409H40.1765L35.9012 34.3988H34.2861L36.0912 31.4997L34.6662 27.4409H36.2813L37.0413 29.8569L38.5614 27.4409Z" fill="#074784"/>
        <path d="M49.772 32.0798H47.7769L50.057 24.6387H52.0521L49.772 32.0798Z" fill="#074784"/>
        <path d="M46.922 24.6387L44.2618 29.4705L44.0718 24.6387H40.6516V24.9286C41.7917 24.9286 41.9817 25.1219 42.1717 25.9916L42.8367 32.0798H44.9269L49.1071 24.6387H46.922Z" fill="#074784"/>
        <path d="M59.9377 31.0167L59.4627 32.0798H57.2776L61.2678 24.6387H63.928L64.593 32.0798H63.0729H62.4079L62.3129 31.0167H59.9377ZM60.6028 29.5672H62.3129L62.1229 26.0882L60.6028 29.5672Z" fill="#074784"/>
        <path d="M54.1422 32.2729C52.7171 32.2729 51.7671 31.7898 51.1021 31.4032L52.0521 29.9537C52.6221 30.3402 53.0972 30.7267 54.2372 30.7267C54.6173 30.7267 54.9023 30.6301 55.0923 30.3402C55.3773 29.857 54.9973 29.5671 54.2372 29.1805L53.8572 28.794C52.7171 28.0209 52.1471 27.2478 52.7171 25.8949C53.0972 25.0251 53.9522 24.4453 55.4723 24.4453C56.5174 24.4453 57.4674 24.9285 58.0375 25.315L56.8974 26.5713C56.3274 26.0882 55.8523 25.8949 55.3773 25.8949C54.9973 25.8949 54.6173 26.0881 54.5223 26.2814C54.3322 26.668 54.6173 26.9579 55.1873 27.3444L55.6623 27.6343C57.0874 28.5041 57.3724 29.4705 57.0874 30.3402C56.6124 31.983 55.3773 32.2729 54.1422 32.2729Z" fill="#074784"/>
    </g>
    <defs>
        <clipPath id="clip0_4177_163854">
            <rect width="80" height="40" rx="4" fill="white"/>
        </clipPath>
    </defs>
</svg>
