<svg width="80" height="40" viewBox="0 0 80 40" fill="none" xmlns="http://www.w3.org/2000/svg">
    <g clip-path="url(#clip0_4177_163858)">
        <rect width="80" height="40" rx="4" fill="transparent" />
        <path
            d="M61.6374 12.5439H58.4942C57.5439 12.5439 56.8129 12.8363 56.3743 13.7866L50.3801 27.4562H54.6199C54.6199 27.4562 55.3509 25.6287 55.4971 25.1901C55.9357 25.1901 60.1023 25.1901 60.6871 25.1901C60.8333 25.7018 61.1988 27.3831 61.1988 27.3831H65L61.6374 12.5439ZM56.6667 22.12C57.0322 21.2428 58.2749 17.9533 58.2749 17.9533C58.2749 18.0264 58.6404 17.0761 58.7866 16.5644L59.079 17.8802C59.079 17.8802 59.883 21.4621 60.0292 22.1931H56.6667V22.12Z"
            fill="#3362AB" />
        <path
            d="M50.6726 22.5586C50.6726 25.6288 47.8948 27.6756 43.582 27.6756C41.7545 27.6756 40.0001 27.3101 39.0498 26.8715L39.6346 23.5089L40.1463 23.7282C41.4621 24.313 42.3393 24.5323 43.9475 24.5323C45.1171 24.5323 46.3597 24.0937 46.3597 23.0703C46.3597 22.4124 45.848 21.9738 44.2399 21.2428C42.7048 20.5118 40.658 19.3423 40.658 17.2224C40.658 14.2984 43.5089 12.3247 47.5293 12.3247C49.0644 12.3247 50.3802 12.6171 51.1843 12.9826L50.5995 16.199L50.3071 15.9066C49.5761 15.6142 48.6258 15.3218 47.2369 15.3218C45.7018 15.3949 44.9709 16.0528 44.9709 16.6376C44.9709 17.2955 45.848 17.8072 47.2369 18.4651C49.5761 19.5615 50.6726 20.8042 50.6726 22.5586Z"
            fill="#3362AB" />
        <path
            d="M15 12.6903L15.0731 12.3979H21.3596C22.2368 12.3979 22.8947 12.6903 23.114 13.6406L24.5029 20.2196C23.114 16.7108 19.8977 13.8599 15 12.6903Z"
            fill="#F9B50B" />
        <path
            d="M33.348 12.5438L26.9883 27.383H22.6755L19.0205 14.9561C21.6521 16.6374 23.8451 19.2689 24.6492 21.0964L25.0878 22.6315L29.0351 12.4707H33.348V12.5438Z"
            fill="#3362AB" />
        <path d="M35.0292 12.4707H39.0497L36.4912 27.383H32.4707L35.0292 12.4707Z" fill="#3362AB" />
    </g>
    <defs>
        <clipPath id="clip0_4177_163858">
            <rect width="80" height="40" rx="4" fill="white" />
        </clipPath>
    </defs>
</svg>