<svg width="42" height="32" viewBox="0 0 42 32" fill="none" xmlns="http://www.w3.org/2000/svg">
    <g clip-path="url(#clip0_757_2507)">
        <path d="M41.241 20.5963V20.1032H41.1125L40.9637 20.4419L40.8158 20.1032H40.6865V20.5963H40.7778V20.2245L40.9168 20.5454H41.0114L41.1504 20.2237V20.5963H41.241ZM40.4254 20.5963V20.1873H40.5903V20.104H40.1699V20.1873H40.3348V20.5963H40.4254Z" fill="#0099DF"/>
        <path d="M26.6265 22.7176H15.5022V2.72534H26.6265V22.7176Z" fill="#6C6BBD"/>
        <path d="M16.2145 12.7203C16.2145 8.66476 18.1133 5.05222 21.0703 2.72415C18.9079 1.02175 16.1789 0.00564575 13.213 0.00564575C6.19164 0.00564575 0.5 5.6981 0.5 12.7203C0.5 19.7425 6.19164 25.4349 13.213 25.4349C16.1789 25.4349 18.9079 24.4188 21.0703 22.7164C18.1133 20.3884 16.2145 16.7758 16.2145 12.7203Z" fill="#EB001B"/>
        <path d="M41.6299 12.7203C41.6299 19.7425 35.9383 25.4349 28.9169 25.4349C25.951 25.4349 23.222 24.4188 21.0588 22.7164C24.0166 20.3884 25.9155 16.7758 25.9155 12.7203C25.9155 8.66476 24.0166 5.05222 21.0588 2.72415C23.222 1.02175 25.951 0.00564575 28.9169 0.00564575C35.9383 0.00564575 41.6299 5.6981 41.6299 12.7203Z" fill="#0099DF"/>
        <path d="M30.3768 28.3636C30.5248 28.3636 30.7374 28.3918 30.8999 28.4557L30.6735 29.1477C30.5183 29.0838 30.3631 29.0628 30.2144 29.0628C29.7342 29.0628 29.4941 29.3732 29.4941 29.931V31.8241H28.7593V28.4484H29.4868V28.8583C29.6776 28.5616 29.9533 28.3636 30.3768 28.3636ZM27.6624 29.1194H26.462V30.6447C26.462 30.9834 26.5816 31.2098 26.9494 31.2098C27.1402 31.2098 27.3803 31.1459 27.5985 31.019L27.8103 31.6471C27.5775 31.8096 27.2105 31.909 26.8928 31.909C26.0238 31.909 25.7207 31.4426 25.7207 30.6585V29.1194H25.0352V28.4484H25.7207V27.4242H26.462V28.4484H27.6624V29.1194ZM18.262 29.8396C18.3404 29.3522 18.6363 29.0199 19.1593 29.0199C19.6322 29.0199 19.9361 29.3166 20.0137 29.8396H18.262ZM20.7768 30.1363C20.7695 29.0838 20.1196 28.3636 19.173 28.3636C18.1844 28.3636 17.4924 29.0838 17.4924 30.1363C17.4924 31.209 18.2127 31.9082 19.2231 31.9082C19.7316 31.9082 20.1972 31.7813 20.607 31.4353L20.2465 30.8913C19.9644 31.1176 19.6039 31.2445 19.2652 31.2445C18.7923 31.2445 18.3614 31.0255 18.2555 30.4184H20.7622C20.7695 30.3262 20.7768 30.2349 20.7768 30.1363ZM24.0038 29.3101C23.7992 29.1824 23.3829 29.0199 22.9521 29.0199C22.5495 29.0199 22.3094 29.1687 22.3094 29.416C22.3094 29.6416 22.5633 29.7054 22.881 29.7475L23.2269 29.7968C23.9617 29.9035 24.4063 30.2139 24.4063 30.8072C24.4063 31.4499 23.8413 31.909 22.8672 31.909C22.3159 31.909 21.8075 31.7675 21.4049 31.4709L21.7509 30.8986C21.9982 31.0893 22.366 31.2518 22.8745 31.2518C23.3757 31.2518 23.644 31.1039 23.644 30.842C23.644 30.652 23.4533 30.5453 23.0507 30.4895L22.7047 30.4402C21.9489 30.3335 21.5391 29.9948 21.5391 29.4443C21.5391 28.7734 22.0904 28.3636 22.9448 28.3636C23.4816 28.3636 23.969 28.484 24.3214 28.7168L24.0038 29.3101ZM33.0614 29.0612C32.9102 29.0612 32.7704 29.0878 32.6402 29.1404C32.5109 29.1937 32.3985 29.2681 32.304 29.3635C32.2094 29.4589 32.135 29.5737 32.0809 29.707C32.0267 29.8404 32 29.9875 32 30.1476C32 30.3085 32.0267 30.4548 32.0809 30.5882C32.135 30.7215 32.2094 30.8363 32.304 30.9317C32.3985 31.0271 32.5109 31.1015 32.6402 31.1548C32.7704 31.2082 32.9102 31.234 33.0614 31.234C33.2126 31.234 33.3532 31.2082 33.4826 31.1548C33.6127 31.1015 33.7259 31.0271 33.8204 30.9317C33.9166 30.8363 33.991 30.7215 34.046 30.5882C34.1001 30.4548 34.1268 30.3085 34.1268 30.1476C34.1268 29.9875 34.1001 29.8404 34.046 29.707C33.991 29.5737 33.9166 29.4589 33.8204 29.3635C33.7259 29.2681 33.6127 29.1937 33.4826 29.1404C33.3532 29.0878 33.2126 29.0612 33.0614 29.0612ZM33.0614 28.3636C33.3233 28.3636 33.5658 28.4088 33.7889 28.5002C34.012 28.5907 34.2052 28.716 34.3677 28.8752C34.531 29.0345 34.6579 29.2228 34.7501 29.4395C34.8422 29.6569 34.8883 29.893 34.8883 30.1476C34.8883 30.4022 34.8422 30.6383 34.7501 30.8557C34.6579 31.0724 34.531 31.2615 34.3677 31.4208C34.2052 31.58 34.012 31.7045 33.7889 31.7958C33.5658 31.8864 33.3233 31.9316 33.0614 31.9316C32.7995 31.9316 32.557 31.8864 32.3339 31.7958C32.1108 31.7045 31.9192 31.58 31.7575 31.4208C31.5958 31.2615 31.4689 31.0724 31.3768 30.8557C31.2846 30.6383 31.2386 30.4022 31.2386 30.1476C31.2386 29.893 31.2846 29.6569 31.3768 29.4395C31.4689 29.2228 31.5958 29.0345 31.7575 28.8752C31.9192 28.716 32.1108 28.5907 32.3339 28.5002C32.557 28.4088 32.7995 28.3636 33.0614 28.3636ZM13.9712 30.1363C13.9712 29.5429 14.3601 29.0555 14.9954 29.0555C15.6025 29.0555 16.0123 29.5219 16.0123 30.1363C16.0123 30.7506 15.6025 31.2162 14.9954 31.2162C14.3601 31.2162 13.9712 30.7296 13.9712 30.1363ZM16.7043 30.1363V28.4484H15.9703V28.8583C15.7367 28.5543 15.3843 28.3636 14.9041 28.3636C13.9575 28.3636 13.2162 29.1048 13.2162 30.1363C13.2162 31.1669 13.9575 31.909 14.9041 31.909C15.3843 31.909 15.7367 31.7182 15.9703 31.4143V31.8241H16.7043V30.1363ZM12.5663 31.8241V29.7054C12.5663 28.9076 12.0579 28.3708 11.239 28.3636C10.8081 28.3563 10.3627 28.4905 10.0523 28.9642C9.81952 28.5899 9.45172 28.3636 8.93599 28.3636C8.57627 28.3636 8.22302 28.4694 7.94737 28.8647V28.4484H7.21338V31.8241H7.95464V29.9528C7.95464 29.3667 8.2796 29.0555 8.78078 29.0555C9.26822 29.0555 9.51558 29.3732 9.51558 29.9455V31.8241H10.2568V29.9528C10.2568 29.3667 10.5964 29.0555 11.083 29.0555C11.585 29.0555 11.8251 29.3732 11.8251 29.9455V31.8241H12.5663Z" fill="#231F20"/>
        <path d="M35.679 31.5713V31.6545H35.7558C35.7727 31.6545 35.7873 31.6505 35.797 31.644C35.8075 31.6376 35.8132 31.6262 35.8132 31.6125C35.8132 31.5988 35.8075 31.5883 35.797 31.5818C35.7873 31.5745 35.7727 31.5713 35.7558 31.5713H35.679ZM35.7566 31.5131C35.7962 31.5131 35.8269 31.522 35.8487 31.5398C35.8706 31.5575 35.8811 31.5818 35.8811 31.6125C35.8811 31.6384 35.873 31.6594 35.8552 31.6764C35.8382 31.6925 35.8132 31.703 35.7816 31.7071L35.8835 31.8243H35.8043L35.7097 31.7079H35.679V31.8243H35.6127V31.5131H35.7566ZM35.7364 31.931C35.7727 31.931 35.8067 31.9245 35.8374 31.9108C35.8689 31.897 35.8964 31.8785 35.9199 31.855C35.9433 31.8316 35.9619 31.8041 35.9756 31.7718C35.9886 31.7402 35.9958 31.7063 35.9958 31.6699C35.9958 31.6335 35.9886 31.5996 35.9756 31.568C35.9619 31.5365 35.9433 31.5082 35.9199 31.4848C35.8964 31.4613 35.8689 31.4427 35.8374 31.4298C35.8067 31.4161 35.7727 31.4096 35.7364 31.4096C35.7 31.4096 35.6652 31.4161 35.6337 31.4298C35.6014 31.4427 35.5731 31.4613 35.5496 31.4848C35.5262 31.5082 35.5076 31.5365 35.4947 31.568C35.4809 31.5996 35.4745 31.6335 35.4745 31.6699C35.4745 31.7063 35.4809 31.7402 35.4947 31.7718C35.5076 31.8041 35.5262 31.8316 35.5496 31.855C35.5731 31.8785 35.6014 31.897 35.6337 31.9108C35.6652 31.9245 35.7 31.931 35.7364 31.931ZM35.7364 31.3344C35.7841 31.3344 35.8277 31.3433 35.8689 31.3611C35.911 31.3781 35.9465 31.4023 35.9781 31.433C36.0088 31.463 36.033 31.4985 36.0508 31.5398C36.0686 31.5802 36.0775 31.6238 36.0775 31.6699C36.0775 31.716 36.0686 31.7596 36.0508 31.8C36.033 31.8405 36.0088 31.876 35.9781 31.9059C35.9465 31.9367 35.911 31.9609 35.8689 31.9787C35.8277 31.9965 35.7841 32.0054 35.7364 32.0054C35.6879 32.0054 35.6434 31.9965 35.6014 31.9787C35.5593 31.9609 35.523 31.9367 35.4922 31.9059C35.4615 31.876 35.4373 31.8405 35.4195 31.8C35.4017 31.7596 35.3928 31.716 35.3928 31.6699C35.3928 31.6238 35.4017 31.5802 35.4195 31.5398C35.4373 31.4985 35.4615 31.463 35.4922 31.433C35.523 31.4023 35.5593 31.3781 35.6014 31.3611C35.6434 31.3433 35.6879 31.3344 35.7364 31.3344Z" fill="#231F20"/>
    </g>
    <defs>
        <clipPath id="clip0_757_2507">
            <rect width="42" height="32" fill="white"/>
        </clipPath>
    </defs>
</svg>
