<svg width="67" height="20" viewBox="0 0 67 20" fill="none" xmlns="http://www.w3.org/2000/svg">
    <path d="M5.71418 13.5727C5.37644 13.3574 5.01265 13.1861 4.63159 13.0627C4.24603 12.9396 3.8434 12.8782 3.43865 12.8808C3.19062 12.8785 2.94323 12.9065 2.70201 12.9643C2.49875 13.0116 2.30508 13.0933 2.1294 13.2059C1.97932 13.3028 1.85294 13.4323 1.75959 13.5846C1.67088 13.7354 1.62548 13.9078 1.62836 14.0827C1.62394 14.2351 1.66438 14.3855 1.74468 14.5151C1.82942 14.6397 1.94298 14.742 2.07572 14.8134C2.24177 14.9051 2.41929 14.9743 2.60359 15.0191C2.8346 15.0773 3.06855 15.1231 3.30445 15.1563L3.86214 15.2309C4.1854 15.2759 4.50454 15.3467 4.8165 15.4426C5.11355 15.5316 5.39446 15.6675 5.64857 15.8453C5.89363 16.0145 6.09748 16.2367 6.24504 16.4954C6.39975 16.787 6.47581 17.1139 6.46574 17.4438C6.47443 17.8248 6.38509 18.2017 6.20627 18.5383C6.035 18.8519 5.79549 19.123 5.50542 19.3316C5.19495 19.5539 4.84762 19.7194 4.47949 19.8207C4.07581 19.9343 3.65817 19.9905 3.23883 19.9877C2.95415 19.9872 2.66996 19.9642 2.38886 19.9192C2.0949 19.8734 1.8048 19.8056 1.521 19.7164C1.23861 19.6273 0.964247 19.5146 0.700853 19.3793C0.449153 19.251 0.213838 19.0928 0 18.9081L0.706818 17.8733C0.85839 18.0098 1.02557 18.1279 1.20487 18.2252C1.61631 18.4509 2.0614 18.609 2.52307 18.6934C2.75718 18.7369 2.99476 18.7588 3.23287 18.759C3.4817 18.7609 3.7299 18.7339 3.97249 18.6785C4.1826 18.6322 4.38396 18.5527 4.56896 18.4429C4.72812 18.3485 4.86456 18.2202 4.9686 18.0671C5.06545 17.9192 5.11631 17.7459 5.11473 17.5691C5.1158 17.4173 5.07265 17.2685 4.99056 17.1409C4.90847 17.0133 4.79099 16.9123 4.65247 16.8503C4.22617 16.6524 3.76933 16.5283 3.30146 16.4835L2.67517 16.397C2.37719 16.3555 2.08367 16.2866 1.79836 16.1912C1.52156 16.1008 1.26232 15.9636 1.03189 15.7856C0.806069 15.6091 0.621788 15.3851 0.492088 15.1295C0.347464 14.8316 0.276872 14.5032 0.286307 14.1722C0.279177 13.799 0.365285 13.43 0.536824 13.0985C0.702337 12.788 0.935789 12.5189 1.21978 12.3112C1.52481 12.0897 1.8673 11.925 2.2308 11.8251C2.63243 11.7114 3.04811 11.6552 3.46549 11.658C4.00433 11.651 4.54087 11.7295 5.05509 11.8907C5.52188 12.0424 5.96623 12.2561 6.37627 12.5259L5.71418 13.5727ZM10.1042 14.1871C10.4668 14.1826 10.8263 14.2537 11.16 14.3958C11.4744 14.5326 11.7553 14.7361 11.9831 14.9923C12.2176 15.2586 12.3988 15.5674 12.5169 15.9019C12.6515 16.285 12.7171 16.6889 12.7108 17.0949C12.7108 17.1724 12.7108 17.247 12.7108 17.3245C12.7108 17.402 12.7108 17.4736 12.6929 17.5422H8.61303C8.64265 17.7664 8.7145 17.983 8.82478 18.1804C8.9186 18.343 9.04201 18.4867 9.18862 18.6039C9.33451 18.7174 9.50043 18.8024 9.67773 18.8545C9.86069 18.9086 10.0506 18.9357 10.2414 18.935C10.5256 18.9339 10.8073 18.8824 11.0735 18.7829C11.3498 18.6825 11.6077 18.5374 11.837 18.3534L12.4334 19.2123C12.1208 19.4835 11.7552 19.6866 11.3598 19.8088C10.9729 19.9253 10.5709 19.9836 10.1668 19.9818C9.78162 19.986 9.39909 19.9172 9.03951 19.779C8.70277 19.6451 8.39794 19.4418 8.1448 19.1825C7.89339 18.9265 7.69655 18.6221 7.56623 18.2878C7.42321 17.9066 7.35241 17.502 7.35746 17.0949C7.3514 16.6882 7.42014 16.2838 7.56026 15.9019C7.68411 15.5608 7.87587 15.2483 8.12393 14.9834C8.36694 14.7258 8.66168 14.5225 8.98881 14.3869C9.34363 14.2468 9.72282 14.1789 10.1042 14.1871ZM10.0833 15.2577C9.88799 15.2545 9.69378 15.2879 9.51072 15.3562C9.34858 15.4184 9.20127 15.5139 9.07828 15.6365C8.95376 15.7616 8.85275 15.9081 8.78004 16.0689C8.70097 16.2434 8.64676 16.4281 8.619 16.6177H11.4791C11.4425 16.2381 11.281 15.8815 11.0198 15.6037C10.8948 15.4862 10.7476 15.395 10.5867 15.3356C10.4258 15.2762 10.2546 15.2497 10.0833 15.2577ZM16.4775 14.1871C16.874 14.183 17.2674 14.258 17.6346 14.4078C17.9817 14.5521 18.2887 14.7782 18.5293 15.0669L17.7629 15.9019C17.5878 15.73 17.3865 15.587 17.1664 15.4784C16.9424 15.3782 16.6991 15.3283 16.4536 15.3323C16.2324 15.3302 16.013 15.3738 15.8094 15.4605C15.6131 15.5444 15.4363 15.6683 15.2905 15.8244C15.1406 15.9859 15.024 16.1754 14.9475 16.3821C14.7821 16.8459 14.7821 17.3527 14.9475 17.8166C15.024 18.0233 15.1406 18.2128 15.2905 18.3743C15.4364 18.5302 15.6131 18.6541 15.8094 18.7381C16.013 18.8249 16.2324 18.8685 16.4536 18.8664C16.7103 18.8682 16.9642 18.8121 17.1962 18.7024C17.4149 18.5963 17.616 18.4575 17.7927 18.2908L18.5353 19.1199C18.2918 19.4056 17.9856 19.6311 17.6406 19.779C17.2755 19.9288 16.8841 20.0039 16.4894 19.9997C16.0811 20.0058 15.6756 19.9308 15.2965 19.779C14.9561 19.641 14.6479 19.4342 14.3912 19.1714C14.1346 18.9086 13.9351 18.5956 13.8053 18.252C13.5288 17.5095 13.5288 16.6922 13.8053 15.9496C13.9351 15.6061 14.1346 15.293 14.3912 15.0303C14.6479 14.7675 14.9561 14.5606 15.2965 14.4227C15.6699 14.2677 16.0702 14.1876 16.4745 14.1871H16.4775ZM24.6968 17.5064C24.7071 17.8936 24.6328 18.2783 24.4791 18.6338C24.3469 18.9307 24.1503 19.1946 23.9035 19.4062C23.6639 19.6072 23.3859 19.7573 23.0864 19.8476C22.4712 20.0358 21.8138 20.0358 21.1986 19.8476C20.8983 19.757 20.6194 19.6069 20.3784 19.4062C20.1304 19.1957 19.9336 18.9316 19.8028 18.6338C19.6508 18.2779 19.5776 17.8933 19.5881 17.5064V14.3302H20.7959V17.3931C20.7905 17.6232 20.8259 17.8524 20.9003 18.0701C20.9636 18.2421 21.0656 18.3972 21.1986 18.5234C21.3204 18.639 21.4674 18.7248 21.628 18.7739C21.9733 18.8775 22.3414 18.8775 22.6867 18.7739C22.8474 18.7248 22.9944 18.639 23.1162 18.5234C23.2496 18.3976 23.3518 18.2424 23.4144 18.0701C23.4839 17.8515 23.5142 17.6223 23.5039 17.3931V14.3302H24.6968V17.5064ZM29.0869 14.1871C29.2537 14.186 29.4203 14.199 29.5849 14.2258C29.7317 14.2498 29.8756 14.2888 30.0144 14.3422L29.7161 15.5351C29.5756 15.4652 29.426 15.4151 29.2718 15.386C29.1168 15.3533 28.9589 15.3363 28.8006 15.3353C28.6189 15.3333 28.4386 15.3667 28.2697 15.4337C28.1104 15.4999 27.9686 15.602 27.8552 15.7319C27.7344 15.8672 27.6421 16.0255 27.5838 16.1972C27.5156 16.3988 27.4823 16.6106 27.4853 16.8235V19.8565H26.2924V14.3302H27.4853V14.9506C27.6561 14.6972 27.8934 14.496 28.1713 14.369C28.4627 14.2424 28.7781 14.1804 29.0958 14.1871H29.0869ZM33.128 14.1871C33.4906 14.1826 33.8501 14.2537 34.1837 14.3958C34.4981 14.5326 34.779 14.7361 35.0068 14.9923C35.2445 15.2579 35.4287 15.5667 35.5496 15.9019C35.68 16.2858 35.7416 16.6896 35.7315 17.0949C35.7315 17.1724 35.7315 17.247 35.7315 17.3245C35.7315 17.402 35.7315 17.4736 35.7137 17.5422H31.6457C31.6759 17.7621 31.7467 17.9745 31.8545 18.1685C31.9497 18.3362 32.0763 18.484 32.2273 18.6039C32.3732 18.7174 32.5391 18.8024 32.7164 18.8545C32.8994 18.9086 33.0892 18.9357 33.2801 18.935C33.5642 18.9339 33.8459 18.8824 34.1121 18.7829C34.3884 18.6825 34.6464 18.5374 34.8756 18.3534L35.4721 19.2123C35.1595 19.4835 34.7938 19.6866 34.3984 19.8088C34.0116 19.9253 33.6095 19.9836 33.2055 19.9818C32.8161 19.9866 32.4294 19.9167 32.0662 19.776C31.7295 19.6421 31.4247 19.4389 31.1715 19.1795C30.9215 18.9242 30.7257 18.6208 30.5959 18.2878C30.4529 17.9066 30.3821 17.502 30.3872 17.0949C30.3811 16.6882 30.4499 16.2838 30.59 15.9019C30.7138 15.5608 30.9056 15.2483 31.1536 14.9834C31.3967 14.7258 31.6914 14.5225 32.0185 14.3869C32.3733 14.2468 32.7525 14.1789 33.1339 14.1871H33.128ZM33.1041 15.2577C32.9088 15.2545 32.7145 15.2879 32.5315 15.3562C32.3693 15.4184 32.222 15.5139 32.099 15.6365C31.9745 15.7616 31.8735 15.9081 31.8008 16.0689C31.7218 16.2434 31.6676 16.4282 31.6398 16.6177H34.4998C34.4658 16.2392 34.3074 15.8827 34.0495 15.6037C33.9246 15.4862 33.7773 15.395 33.6164 15.3356C33.4555 15.2762 33.2844 15.2497 33.113 15.2577H33.1041ZM40.9328 11.6372C41.281 11.6367 41.6282 11.6757 41.9676 11.7535C42.2872 11.8272 42.5966 11.9393 42.8892 12.0875C43.176 12.2296 43.4428 12.4091 43.6825 12.6213C43.9158 12.8245 44.1169 13.0618 44.279 13.3252L43.1874 14.0499C42.9457 13.6924 42.6201 13.3995 42.239 13.1969C41.8363 12.9903 41.3883 12.8877 40.9357 12.8987C40.5458 12.8945 40.1589 12.9664 39.7965 13.1104C39.4608 13.2464 39.1564 13.4493 38.9018 13.7069C38.6426 13.9728 38.4398 14.2883 38.3053 14.6344C38.0166 15.4035 38.0166 16.2512 38.3053 17.0203C38.4398 17.3664 38.6426 17.6819 38.9018 17.9478C39.1563 18.2055 39.4607 18.4085 39.7965 18.5443C40.1589 18.6883 40.5458 18.7602 40.9357 18.756C41.3787 18.7658 41.817 18.6641 42.2104 18.4604C42.6038 18.2566 42.9398 17.9573 43.1874 17.5899L44.2462 18.3683C44.0778 18.62 43.8773 18.8486 43.6497 19.0483C43.4142 19.2503 43.1548 19.4226 42.8773 19.5613C42.5929 19.7046 42.2926 19.8137 41.9826 19.8863C41.0757 20.0873 40.1297 20.0167 39.2627 19.6835C38.7636 19.4897 38.3102 19.1945 37.9309 18.8168C37.5516 18.439 37.2546 17.9867 37.0587 17.4885C36.6449 16.4146 36.6449 15.2252 37.0587 14.1513C37.2546 13.6531 37.5516 13.2008 37.9309 12.8231C38.3102 12.4453 38.7636 12.1502 39.2627 11.9563C39.7941 11.7449 40.3609 11.6366 40.9328 11.6372ZM48.0397 14.1871C48.448 14.1814 48.8534 14.2564 49.2327 14.4078C49.5826 14.5434 49.9027 14.746 50.1751 15.0042C50.441 15.266 50.6519 15.5783 50.7954 15.9228C51.0945 16.6611 51.0945 17.4869 50.7954 18.2252C50.652 18.5697 50.441 18.882 50.1751 19.1437C49.9027 19.4019 49.5826 19.6045 49.2327 19.7402C48.472 20.0357 47.6283 20.0357 46.8676 19.7402C46.5184 19.605 46.1991 19.4023 45.9282 19.1437C45.6637 18.8814 45.4538 18.5692 45.3109 18.2252C45.0117 17.4869 45.0117 16.6611 45.3109 15.9228C45.4516 15.5806 45.6583 15.2695 45.9193 15.0072C46.1902 14.7486 46.5094 14.5459 46.8587 14.4107C47.234 14.26 47.6352 14.184 48.0397 14.1871ZM48.0397 15.3204C47.8049 15.3177 47.5718 15.3613 47.3538 15.4486C47.1489 15.5313 46.9631 15.6551 46.808 15.8125C46.651 15.9724 46.5273 16.162 46.4442 16.3702C46.2674 16.832 46.2674 17.3428 46.4442 17.8047C46.5273 18.0128 46.651 18.2024 46.808 18.3624C46.9659 18.5206 47.1547 18.6444 47.3627 18.7262C47.8027 18.8986 48.2916 18.8986 48.7316 18.7262C48.939 18.6432 49.1273 18.5186 49.2847 18.3601C49.4422 18.2016 49.5655 18.0126 49.6472 17.8047C49.8239 17.3428 49.8239 16.832 49.6472 16.3702C49.5637 16.1615 49.4389 15.9718 49.2804 15.8125C49.1238 15.6555 48.9371 15.5318 48.7316 15.4486C48.5117 15.3605 48.2766 15.3169 48.0397 15.3204ZM54.6277 14.1871C54.9616 14.1749 55.2934 14.2431 55.5955 14.3858C55.8975 14.5285 56.1609 14.7416 56.3635 15.0072V11.5566H57.5564V19.8446H56.3635V19.1825C56.1727 19.4315 55.9293 19.6351 55.6507 19.779C55.333 19.932 54.9832 20.0067 54.6307 19.9967C54.2662 20.0005 53.9048 19.93 53.5684 19.7895C53.232 19.649 52.9278 19.4414 52.6743 19.1795C52.4164 18.916 52.2136 18.6038 52.0778 18.261C51.7935 17.5096 51.7935 16.6802 52.0778 15.9288C52.2137 15.586 52.4165 15.2738 52.6743 15.0102C52.9278 14.7483 53.232 14.5407 53.5684 14.4003C53.9048 14.2598 54.2662 14.1893 54.6307 14.193L54.6277 14.1871ZM54.7709 15.3204C54.5309 15.3162 54.2928 15.364 54.073 15.4605C53.8746 15.5491 53.6968 15.6781 53.5511 15.8393C53.4063 16.0031 53.2949 16.1935 53.223 16.4C53.0692 16.8433 53.0692 17.3255 53.223 17.7689C53.2949 17.9753 53.4063 18.1658 53.5511 18.3296C53.6968 18.4908 53.8746 18.6198 54.073 18.7083C54.2913 18.7994 54.5254 18.8462 54.7619 18.8462C54.9984 18.8462 55.2326 18.7994 55.4509 18.7083C55.6494 18.6226 55.8282 18.4966 55.9757 18.3385C56.1215 18.1789 56.2349 17.9925 56.3098 17.7898C56.472 17.3356 56.472 16.8392 56.3098 16.3851C56.234 16.1787 56.1185 15.9892 55.9698 15.8274C55.8222 15.6684 55.6436 15.5415 55.4449 15.4546C55.2329 15.3639 55.0044 15.3182 54.7739 15.3204H54.7709ZM61.5677 14.1871C61.9303 14.1826 62.2898 14.2536 62.6234 14.3958C62.9379 14.5325 63.2188 14.736 63.4465 14.9923C63.6822 15.2583 63.8644 15.5671 63.9834 15.9019C64.1162 16.2803 64.1818 16.679 64.1772 17.08C64.1772 17.1575 64.1772 17.2321 64.1772 17.3096C64.1772 17.3871 64.1772 17.4587 64.1593 17.5273H60.0795C60.1091 17.7515 60.1809 17.9681 60.2912 18.1655C60.3862 18.3334 60.5128 18.4813 60.664 18.601C60.8098 18.7145 60.9758 18.7994 61.1531 18.8515C61.3361 18.9056 61.526 18.9327 61.7168 18.932C62.0009 18.9309 62.2827 18.8794 62.5489 18.7799C62.8251 18.6795 63.0831 18.5344 63.3123 18.3504L63.9088 19.2093C63.5959 19.4801 63.2303 19.6832 62.8352 19.8058C62.4483 19.9224 62.0462 19.9807 61.6422 19.9788C61.2528 19.9836 60.8661 19.9138 60.503 19.773C60.1662 19.6391 59.8614 19.4359 59.6083 19.1765C59.3586 18.922 59.1629 18.6197 59.0327 18.2878C58.8907 17.9064 58.8209 17.5018 58.8269 17.0949C58.8199 16.6883 58.8876 16.284 59.0267 15.9019C59.1517 15.5631 59.3434 15.2528 59.5904 14.9893C59.8334 14.7317 60.1281 14.5285 60.4552 14.3929C60.8097 14.2508 61.1889 14.1808 61.5706 14.1871H61.5677ZM64.7498 19.8535V19.5762H64.8602V19.5195H64.5619V19.5762H64.6753V19.8535H64.7498ZM65.3016 19.8535V19.5106H65.2151L65.1137 19.7402L65.0123 19.5106H64.9258V19.8446H64.9884V19.5911L65.0838 19.8088H65.1465L65.2419 19.5911V19.8446L65.3016 19.8535ZM61.5438 15.2667C61.3485 15.2635 61.1542 15.2969 60.9712 15.3651C60.809 15.4273 60.6617 15.5228 60.5387 15.6454C60.4145 15.7708 60.3135 15.9172 60.2405 16.0779C60.1615 16.2524 60.1073 16.4371 60.0795 16.6266H62.9395C62.9068 16.2446 62.7473 15.8845 62.4862 15.6037C62.3609 15.4858 62.2132 15.3945 62.0517 15.335C61.8903 15.2756 61.7186 15.2493 61.5468 15.2577L61.5438 15.2667Z" fill="#F79E1B"/>
    <path d="M10.0274 8.60408H8.67933V1.71485L6.23678 7.78692H4.81718L2.38656 1.79239V8.60408H1.02661V0.253499H3.09935L5.52996 6.2182L7.96058 0.253499H10.0333L10.0274 8.60408ZM17.1313 8.60408H15.8847V7.91814C15.6844 8.16838 15.432 8.37193 15.1451 8.51462C14.8163 8.67345 14.4543 8.75117 14.0893 8.74127C13.711 8.74542 13.3358 8.67245 12.9866 8.52683C12.6375 8.38121 12.3216 8.16599 12.0583 7.89429C11.7992 7.61926 11.5965 7.29602 11.4619 6.94291C11.167 6.16364 11.167 5.30351 11.4619 4.52423C11.5966 4.17116 11.7992 3.84793 12.0583 3.57286C12.3216 3.30115 12.6375 3.08593 12.9866 2.94031C13.3358 2.79469 13.711 2.72172 14.0893 2.72587C14.4546 2.71608 14.8168 2.79487 15.1451 2.95551C15.4329 3.1034 15.6853 3.31199 15.8847 3.56689V2.88692H17.1313V8.60408ZM14.2354 3.91285C13.9862 3.90857 13.7389 3.95843 13.5107 4.05898C13.3054 4.15126 13.1215 4.28533 12.9709 4.45265C12.8192 4.62699 12.7036 4.82974 12.6309 5.04912C12.4721 5.50899 12.4721 6.00885 12.6309 6.46872C12.7036 6.68813 12.8191 6.89089 12.9709 7.06519C13.1214 7.23264 13.3053 7.36674 13.5107 7.45886C13.737 7.55328 13.9798 7.60189 14.225 7.60189C14.4702 7.60189 14.713 7.55328 14.9393 7.45886C15.1447 7.36919 15.3294 7.23824 15.4821 7.07414C15.6382 6.90378 15.7588 6.70406 15.837 6.48662C16.0037 6.01581 16.0037 5.50203 15.837 5.03123C15.7586 4.81723 15.639 4.62067 15.4851 4.45265C15.3323 4.28868 15.1476 4.15774 14.9423 4.06793C14.7203 3.96663 14.4794 3.91377 14.2354 3.91285ZM22.8604 4.31845C22.756 4.25817 22.6485 4.20342 22.5383 4.15442C22.4006 4.093 22.2591 4.04021 22.1148 3.99635C21.9532 3.94733 21.7889 3.9075 21.6227 3.87706C21.4486 3.84521 21.2719 3.82924 21.0949 3.82934C20.8168 3.81334 20.5401 3.87863 20.2986 4.01723C20.2097 4.0654 20.1352 4.13636 20.0828 4.22285C20.0303 4.30933 20.0019 4.4082 20.0003 4.50932C19.9973 4.5987 20.0235 4.68665 20.0749 4.75983C20.1278 4.83011 20.1962 4.88726 20.2747 4.92685C20.3692 4.97442 20.4694 5.00951 20.5729 5.03123C20.6883 5.05707 20.8115 5.07994 20.9428 5.09982L21.5392 5.18929C22.0651 5.24284 22.5684 5.43078 23.0006 5.73506C23.1731 5.86951 23.3109 6.04344 23.4022 6.24221C23.4936 6.44099 23.5358 6.65879 23.5255 6.8773C23.5283 7.1393 23.4679 7.39811 23.3495 7.63184C23.229 7.86727 23.0555 8.07147 22.8425 8.22831C22.596 8.40552 22.319 8.53593 22.0254 8.61303C21.6665 8.70886 21.2962 8.75502 20.9249 8.75022C20.7777 8.75022 20.6067 8.74127 20.4119 8.72338C20.2028 8.70288 19.9954 8.66699 19.7916 8.61601C19.5634 8.55896 19.34 8.48417 19.1235 8.39234C18.8984 8.29184 18.6861 8.16468 18.4913 8.01358L19.0609 7.08309C19.168 7.16518 19.2806 7.23992 19.3979 7.30676C19.5291 7.38098 19.6669 7.44288 19.8095 7.49167C19.9746 7.54849 20.1442 7.59139 20.3165 7.61991C20.5245 7.65346 20.735 7.66942 20.9457 7.66763C21.2804 7.68743 21.6148 7.62283 21.918 7.47974C22.0151 7.43425 22.0975 7.36225 22.1555 7.27203C22.2136 7.18181 22.2449 7.07703 22.246 6.96976C22.2448 6.88768 22.2221 6.80735 22.1803 6.73673C22.1384 6.66611 22.0788 6.60765 22.0075 6.56714C21.7759 6.43847 21.5198 6.36021 21.2559 6.3375L20.6594 6.25996C20.1337 6.21679 19.6316 6.02318 19.213 5.70226C19.0524 5.56465 18.9248 5.3927 18.8396 5.19911C18.7544 5.00552 18.7138 4.79526 18.7209 4.58387C18.7141 4.31421 18.7703 4.04667 18.8849 3.8025C18.9954 3.57931 19.1569 3.38521 19.3561 3.23585C19.5792 3.06994 19.8309 2.9466 20.0988 2.872C20.419 2.7825 20.7504 2.73932 21.0829 2.74376C21.5167 2.74175 21.9489 2.7969 22.3683 2.90779C22.7373 3.00071 23.0894 3.15064 23.4121 3.35216L22.8604 4.31845ZM28.7834 4.02021H26.5913V6.51047C26.5878 6.67636 26.612 6.84166 26.6629 6.99958C26.7033 7.12242 26.7694 7.23526 26.8568 7.33062C26.9395 7.41646 27.0418 7.48094 27.155 7.51851C27.2689 7.55897 27.389 7.57915 27.5099 7.57816C27.714 7.57714 27.9161 7.53873 28.1064 7.46483C28.301 7.39225 28.4878 7.30033 28.6641 7.19045L29.1591 8.18656C28.9111 8.34515 28.646 8.47521 28.3688 8.57426C28.0569 8.68988 27.7262 8.74652 27.3936 8.74127C27.1182 8.7579 26.8422 8.71866 26.5824 8.62589C26.3225 8.53312 26.0841 8.38875 25.8815 8.20147C25.5276 7.85353 25.3507 7.29781 25.3507 6.53433V4.02021H24.2114V2.88692H25.3507V1.15417H26.6033V2.88692H28.7953L28.7834 4.02021ZM32.6216 2.7378C32.9977 2.7335 33.3704 2.80765 33.7162 2.95551C34.0417 3.09605 34.3327 3.30568 34.5691 3.56988C34.8132 3.84749 35.0015 4.16948 35.1238 4.51826C35.2607 4.91019 35.3283 5.32294 35.3237 5.73805C35.3237 5.81857 35.3237 5.89611 35.3237 5.97663C35.3237 6.05716 35.3237 6.13171 35.3058 6.20329H31.0768C31.1078 6.43596 31.1827 6.66063 31.2975 6.86537C31.3967 7.0389 31.5283 7.19178 31.6852 7.31571C31.8365 7.43311 32.0085 7.52112 32.1922 7.57517C32.3857 7.63254 32.5868 7.66069 32.7887 7.65868C33.083 7.65722 33.3748 7.60371 33.6506 7.50062C33.9365 7.39675 34.2035 7.24663 34.4409 7.05624L35.0612 7.95095C34.7376 8.23431 34.3589 8.44755 33.9488 8.57724C33.5474 8.6979 33.1303 8.7582 32.7111 8.75618C32.3033 8.76238 31.8982 8.68945 31.5182 8.54146C31.1721 8.4086 30.8573 8.20551 30.5936 7.94498C30.3318 7.67314 30.1288 7.35031 29.9972 6.9966C29.8496 6.60191 29.7768 6.18322 29.7824 5.7619C29.7777 5.34506 29.8484 4.93079 29.9912 4.53914C30.1238 4.18504 30.3267 3.86142 30.5877 3.58777C30.8394 3.32234 31.1443 3.11299 31.4824 2.97341C31.843 2.82085 32.2301 2.74079 32.6216 2.7378ZM32.5978 3.84723C32.3944 3.84341 32.192 3.8778 32.0013 3.94863C31.8329 4.01548 31.6804 4.1171 31.554 4.24687C31.4289 4.37721 31.328 4.52867 31.2557 4.69422C31.1738 4.87538 31.1176 5.06712 31.0887 5.26385H34.0562C34.0148 4.87506 33.8472 4.51052 33.579 4.22599C33.4499 4.09933 33.2962 4.0004 33.1275 3.93527C32.9588 3.87013 32.7785 3.84018 32.5978 3.84723ZM39.6481 2.7378C39.8208 2.73641 39.9934 2.74938 40.164 2.77657C40.3159 2.8022 40.4648 2.84317 40.6084 2.89885L40.3102 4.13354C40.1648 4.06125 40.0103 4.00908 39.8509 3.97846C39.69 3.94434 39.5262 3.92636 39.3618 3.92477C39.174 3.92279 38.9877 3.95722 38.813 4.02618C38.649 4.09161 38.5021 4.19361 38.3835 4.32441C38.2587 4.46507 38.1634 4.62936 38.1032 4.80755C38.0327 5.01692 37.9984 5.23679 38.0018 5.4577V8.60408H36.7552V2.88692H37.9899V3.5311C38.1673 3.27098 38.4129 3.06464 38.6997 2.93463C38.9981 2.80199 39.3215 2.73487 39.6481 2.7378ZM43.9158 2.7378C44.3247 2.73504 44.7301 2.81308 45.1088 2.96744C45.4717 3.11573 45.7931 3.35013 46.0452 3.6504L45.2459 4.50335C45.0603 4.32397 44.8468 4.17591 44.6137 4.06495C44.3812 3.96086 44.1287 3.90895 43.8741 3.91285C43.6445 3.91094 43.417 3.95663 43.206 4.04705C43.0029 4.13359 42.82 4.26158 42.6692 4.42283C42.5167 4.58916 42.3982 4.78367 42.3203 4.99544C42.1477 5.47753 42.1477 6.00453 42.3203 6.48662C42.3994 6.70092 42.52 6.89752 42.6752 7.06519C42.8261 7.22631 43.0089 7.35427 43.212 7.44097C43.423 7.53138 43.6505 7.57708 43.88 7.57517C44.146 7.57639 44.4088 7.51832 44.6495 7.40518C44.881 7.29658 45.0943 7.15271 45.2817 6.9787L46.0512 7.83762C45.7946 8.13569 45.4719 8.36958 45.1088 8.52058C44.7304 8.67601 44.3248 8.75409 43.9158 8.75022C43.4931 8.75598 43.0735 8.67793 42.6811 8.52058C42.3261 8.37889 42.0043 8.16495 41.7363 7.89233C41.4683 7.61971 41.2599 7.29437 41.1243 6.93695C40.838 6.16743 40.838 5.32059 41.1243 4.55107C41.2601 4.19373 41.4686 3.86848 41.7365 3.59588C42.0045 3.32329 42.3262 3.10929 42.6811 2.96744C43.0735 2.81009 43.4931 2.73204 43.9158 2.7378ZM52.7018 8.60408H51.4552V7.91814C51.2549 8.16831 51.0025 8.37185 50.7156 8.51462C50.3868 8.67345 50.0248 8.75117 49.6598 8.74127C49.282 8.74501 48.9074 8.67185 48.5588 8.52624C48.2101 8.38063 47.8947 8.16562 47.6318 7.89429C47.3727 7.61926 47.17 7.29602 47.0354 6.94291C46.7405 6.16364 46.7405 5.30351 47.0354 4.52423C47.1701 4.17119 47.3728 3.84798 47.6318 3.57286C47.8947 3.30152 48.2101 3.08651 48.5588 2.9409C48.9074 2.79529 49.282 2.72213 49.6598 2.72587C50.0251 2.71608 50.3874 2.79487 50.7156 2.95551C51.0034 3.10348 51.2557 3.31206 51.4552 3.56689V2.88692H52.7018V8.60408ZM49.806 3.91285C49.5567 3.90867 49.3094 3.95852 49.0812 4.05898C48.8759 4.15133 48.6921 4.2854 48.5414 4.45265C48.3899 4.62713 48.2744 4.82984 48.2015 5.04912C48.0424 5.50895 48.0424 6.00889 48.2015 6.46872C48.2743 6.68804 48.3899 6.89076 48.5414 7.06519C48.692 7.23257 48.8759 7.36666 49.0812 7.45886C49.3076 7.55312 49.5503 7.60164 49.7955 7.60164C50.0407 7.60164 50.2835 7.55312 50.5098 7.45886C50.7151 7.36912 50.8999 7.23818 51.0526 7.07414C51.2087 6.90383 51.3294 6.70409 51.4075 6.48662C51.5747 6.01589 51.5747 5.50195 51.4075 5.03123C51.3292 4.81717 51.2097 4.62058 51.0556 4.45265C50.9028 4.28874 50.718 4.15782 50.5128 4.06793C50.2908 3.96672 50.0499 3.91386 49.806 3.91285ZM57.4348 2.7378C57.6076 2.73641 57.7801 2.74938 57.9508 2.77657C58.1026 2.8022 58.2515 2.84317 58.3951 2.89885L58.0969 4.13354C57.9515 4.06125 57.797 4.00908 57.6376 3.97846C57.4768 3.94438 57.3129 3.9264 57.1485 3.92477C56.9607 3.92271 56.7744 3.95715 56.5998 4.02618C56.4358 4.09161 56.2889 4.19361 56.1703 4.32441C56.0454 4.46502 55.95 4.62933 55.89 4.80755C55.8194 5.01692 55.7851 5.23679 55.7886 5.4577V8.60408H54.5419V2.88692H55.7707V3.5311C55.948 3.27088 56.1936 3.06451 56.4805 2.93463C56.7816 2.80073 57.1082 2.73358 57.4378 2.7378H57.4348ZM61.5296 2.7378C61.8949 2.72801 62.2571 2.8068 62.5853 2.96744C62.8731 3.11541 63.1255 3.32399 63.325 3.57882V0H64.5716V8.60408H63.325V7.91814C63.1246 8.16831 62.8723 8.37185 62.5853 8.51462C62.2566 8.67345 61.8946 8.75117 61.5296 8.74127C61.1518 8.74501 60.7772 8.67185 60.4285 8.52624C60.0799 8.38063 59.7645 8.16562 59.5016 7.89429C59.2425 7.61921 59.0398 7.29599 58.9051 6.94291C58.6103 6.16364 58.6103 5.30351 58.9051 4.52423C59.0399 4.17119 59.2425 3.84798 59.5016 3.57286C59.7645 3.30152 60.0799 3.08651 60.4285 2.9409C60.7772 2.79529 61.1518 2.72213 61.5296 2.72587V2.7378ZM66.0299 8.07621C66.0792 8.07636 66.1279 8.08651 66.1731 8.10603C66.2164 8.12438 66.2558 8.15068 66.2894 8.18357C66.3235 8.21675 66.3509 8.25626 66.3699 8.29989C66.3892 8.34462 66.3992 8.39283 66.3992 8.44155C66.3992 8.49026 66.3892 8.53847 66.3699 8.58321C66.3508 8.6268 66.3235 8.66629 66.2894 8.69952C66.2557 8.73231 66.2163 8.75859 66.1731 8.77706C66.1279 8.79675 66.0792 8.8069 66.0299 8.80688C65.9571 8.80752 65.8857 8.78664 65.8247 8.74684C65.7637 8.70705 65.7158 8.65013 65.687 8.58321C65.6677 8.53847 65.6578 8.49026 65.6578 8.44155C65.6578 8.39283 65.6677 8.34462 65.687 8.29989C65.7246 8.2119 65.7953 8.14226 65.8838 8.10603C65.931 8.08603 65.9817 8.07588 66.0329 8.07621H66.0299ZM66.0299 8.72338C66.0678 8.72419 66.1054 8.71708 66.1403 8.7025C66.1735 8.68821 66.2038 8.668 66.2298 8.64286C66.2792 8.58806 66.3066 8.51686 66.3066 8.44304C66.3066 8.36922 66.2792 8.29802 66.2298 8.24322C66.2038 8.21808 66.1735 8.19787 66.1403 8.18357C66.1053 8.16908 66.0678 8.16197 66.0299 8.1627C65.9912 8.16222 65.9527 8.16931 65.9166 8.18357C65.8761 8.20413 65.8409 8.23367 65.8135 8.26994C65.7862 8.3062 65.7675 8.34823 65.7588 8.39283C65.7502 8.43742 65.7519 8.48339 65.7637 8.52724C65.7756 8.57108 65.7972 8.61165 65.8271 8.64584C65.8531 8.67098 65.8834 8.69119 65.9166 8.70549C65.9538 8.71912 65.9934 8.7252 66.0329 8.72338H66.0299ZM66.0508 8.27006C66.0871 8.26782 66.123 8.27838 66.1522 8.29989C66.1638 8.30914 66.1731 8.32097 66.1793 8.33443C66.1855 8.34789 66.1885 8.36261 66.188 8.37743C66.1885 8.39009 66.1863 8.40271 66.1817 8.41451C66.1771 8.42631 66.1701 8.43704 66.1612 8.44602C66.1387 8.46559 66.1104 8.47713 66.0807 8.47883L66.191 8.60707H66.1045L66.0031 8.48181H65.9703V8.60707H65.9107V8.27603L66.0508 8.27006ZM65.9673 8.33269V8.42216H66.0508C66.0654 8.42639 66.0809 8.42639 66.0956 8.42216C66.1011 8.41864 66.1056 8.41379 66.1087 8.40806C66.1118 8.40232 66.1135 8.39589 66.1135 8.38935C66.1135 8.38282 66.1118 8.37639 66.1087 8.37065C66.1056 8.36492 66.1011 8.36007 66.0956 8.35655C66.0809 8.35232 66.0654 8.35232 66.0508 8.35655L65.9673 8.33269ZM61.6817 3.91285C61.4324 3.90867 61.1852 3.95852 60.957 4.05898C60.7516 4.15126 60.5678 4.28533 60.4172 4.45265C60.2656 4.62713 60.1501 4.82984 60.0772 5.04912C59.9181 5.50895 59.9181 6.00889 60.0772 6.46872C60.15 6.68804 60.2656 6.89076 60.4172 7.06519C60.5677 7.23264 60.7515 7.36674 60.957 7.45886C61.1833 7.55312 61.4261 7.60164 61.6712 7.60164C61.9164 7.60164 62.1592 7.55312 62.3855 7.45886C62.5927 7.36299 62.7776 7.22483 62.9283 7.05326C63.0811 6.88886 63.2006 6.69644 63.2802 6.48662C63.4474 6.01589 63.4474 5.50195 63.2802 5.03123C63.2037 4.81187 63.0841 4.61007 62.9283 4.43774C62.7755 4.27383 62.5908 4.14291 62.3855 4.05302C62.1634 3.95735 61.9235 3.90958 61.6817 3.91285Z" fill="#EB001B"/>
</svg>
