<svg width="42" height="32" viewBox="0 0 42 32" fill="none" xmlns="http://www.w3.org/2000/svg">
    <path d="M40.2826 31.5511V31.6344H40.3594C40.3764 31.6344 40.3909 31.6303 40.4014 31.6239C40.4111 31.6174 40.4168 31.6061 40.4168 31.5924C40.4168 31.5786 40.4111 31.5681 40.4014 31.5616C40.3909 31.5544 40.3764 31.5511 40.3594 31.5511H40.2826ZM40.3602 31.4929C40.3998 31.4929 40.4305 31.5018 40.4523 31.5196C40.4742 31.5374 40.4847 31.5616 40.4847 31.5924C40.4847 31.6182 40.4766 31.6392 40.4588 31.6562C40.4418 31.6724 40.4176 31.6829 40.3853 31.6869L40.4871 31.8041H40.4079L40.3133 31.6877H40.2826V31.8041H40.2163V31.4929H40.3602ZM40.34 31.9116C40.3764 31.9116 40.4103 31.9043 40.441 31.8906C40.4726 31.8769 40.5 31.8583 40.5235 31.8348C40.5469 31.8114 40.5655 31.7839 40.5792 31.7516C40.5922 31.7201 40.5994 31.6861 40.5994 31.6497C40.5994 31.6134 40.5922 31.5794 40.5792 31.5479C40.5655 31.5164 40.5469 31.4881 40.5235 31.4647C40.5 31.4412 40.4726 31.4226 40.441 31.4089C40.4103 31.396 40.3764 31.3895 40.34 31.3895C40.3036 31.3895 40.2689 31.396 40.2374 31.4089C40.205 31.4226 40.1767 31.4412 40.1533 31.4647C40.1299 31.4881 40.1113 31.5164 40.0983 31.5479C40.0846 31.5794 40.0781 31.6134 40.0781 31.6497C40.0781 31.6861 40.0846 31.7201 40.0983 31.7516C40.1113 31.7839 40.1299 31.8114 40.1533 31.8348C40.1767 31.8583 40.205 31.8769 40.2374 31.8906C40.2689 31.9043 40.3036 31.9116 40.34 31.9116ZM40.34 31.3143C40.3877 31.3143 40.4313 31.3232 40.4734 31.341C40.5146 31.358 40.5501 31.3822 40.5817 31.4129C40.6124 31.4428 40.6366 31.4784 40.6544 31.5196C40.6722 31.56 40.6811 31.6037 40.6811 31.6497C40.6811 31.6958 40.6722 31.7395 40.6544 31.7799C40.6366 31.8203 40.6124 31.8558 40.5817 31.8866C40.5501 31.9165 40.5146 31.9407 40.4734 31.9585C40.4313 31.9763 40.3877 31.9852 40.34 31.9852C40.2915 31.9852 40.2471 31.9763 40.205 31.9585C40.163 31.9407 40.1266 31.9165 40.0959 31.8866C40.0652 31.8558 40.0409 31.8203 40.0232 31.7799C40.0054 31.7395 39.9965 31.6958 39.9965 31.6497C39.9965 31.6037 40.0054 31.56 40.0232 31.5196C40.0409 31.4784 40.0652 31.4428 40.0959 31.4129C40.1266 31.3822 40.163 31.358 40.205 31.341C40.2471 31.3232 40.2915 31.3143 40.34 31.3143ZM8.84966 30.1157C8.84966 29.5224 9.23843 29.035 9.87372 29.035C10.4807 29.035 10.8905 29.5014 10.8905 30.1157C10.8905 30.73 10.4807 31.1963 9.87372 31.1963C9.23843 31.1963 8.84966 30.7089 8.84966 30.1157ZM11.5824 30.1157V28.4281H10.8485V28.8378C10.6157 28.5339 10.2625 28.3432 9.78238 28.3432C8.83592 28.3432 8.09394 29.0852 8.09394 30.1157C8.09394 31.147 8.83592 31.8882 9.78238 31.8882C10.2625 31.8882 10.6157 31.6974 10.8485 31.3935V31.8033H11.5824V30.1157ZM36.3828 30.1157C36.3828 29.5224 36.7716 29.035 37.4069 29.035C38.0147 29.035 38.4236 29.5014 38.4236 30.1157C38.4236 30.73 38.0147 31.1963 37.4069 31.1963C36.7716 31.1963 36.3828 30.7089 36.3828 30.1157ZM39.1163 30.1157V27.0726H38.3816V28.8378C38.1488 28.5339 37.7956 28.3432 37.3155 28.3432C36.3691 28.3432 35.6271 29.0852 35.6271 30.1157C35.6271 31.147 36.3691 31.8882 37.3155 31.8882C37.7956 31.8882 38.1488 31.6974 38.3816 31.3935V31.8033H39.1163V30.1157ZM20.6922 29.0003C21.165 29.0003 21.4689 29.2969 21.5465 29.8191H19.795C19.8734 29.3317 20.1692 29.0003 20.6922 29.0003ZM20.7067 28.3432C19.7174 28.3432 19.0256 29.0633 19.0256 30.1157C19.0256 31.189 19.7457 31.8882 20.756 31.8882C21.2644 31.8882 21.73 31.7613 22.1398 31.4154L21.7801 30.8714C21.4972 31.0969 21.1367 31.2246 20.7981 31.2246C20.3252 31.2246 19.8944 31.0056 19.7886 30.3978H22.2949C22.3022 30.3064 22.3095 30.2143 22.3095 30.1157C22.3022 29.0633 21.6524 28.3432 20.7067 28.3432ZM29.5684 30.1157C29.5684 29.5224 29.9572 29.035 30.5925 29.035C31.1995 29.035 31.6093 29.5014 31.6093 30.1157C31.6093 30.73 31.1995 31.1963 30.5925 31.1963C29.9572 31.1963 29.5684 30.7089 29.5684 30.1157ZM32.3011 30.1157V28.4281H31.5672V28.8378C31.3336 28.5339 30.9812 28.3432 30.5011 28.3432C29.5547 28.3432 28.8127 29.0852 28.8127 30.1157C28.8127 31.147 29.5547 31.8882 30.5011 31.8882C30.9812 31.8882 31.3336 31.6974 31.5672 31.3935V31.8033H32.3011V30.1157ZM25.4237 30.1157C25.4237 31.1397 26.1366 31.8882 27.2245 31.8882C27.7329 31.8882 28.0715 31.775 28.4385 31.4857L28.0861 30.8924C27.8105 31.0904 27.5211 31.1963 27.2027 31.1963C26.6167 31.189 26.1859 30.7655 26.1859 30.1157C26.1859 29.4658 26.6167 29.0423 27.2027 29.035C27.5211 29.035 27.8105 29.1409 28.0861 29.339L28.4385 28.7457C28.0715 28.4563 27.7329 28.3432 27.2245 28.3432C26.1366 28.3432 25.4237 29.0916 25.4237 30.1157ZM34.8859 28.3432C34.4624 28.3432 34.1868 28.5412 33.996 28.8378V28.4281H33.2686V31.8033H34.0033V29.9112C34.0033 29.3527 34.2434 29.0423 34.7235 29.0423C34.8722 29.0423 35.0274 29.0633 35.1825 29.1272L35.4089 28.4353C35.2464 28.3715 35.0346 28.3432 34.8859 28.3432ZM15.2122 28.6964C14.859 28.4636 14.3725 28.3432 13.8358 28.3432C12.9806 28.3432 12.4302 28.753 12.4302 29.4238C12.4302 29.9742 12.84 30.3137 13.5949 30.4196L13.9417 30.4689C14.3442 30.5255 14.5341 30.6313 14.5341 30.8221C14.5341 31.0832 14.2658 31.2319 13.7646 31.2319C13.2563 31.2319 12.8893 31.0694 12.642 30.8787L12.2961 31.4501C12.6986 31.7467 13.207 31.8882 13.7574 31.8882C14.7321 31.8882 15.2971 31.4291 15.2971 30.7865C15.2971 30.1933 14.8526 29.8829 14.1179 29.777L13.7719 29.7269C13.4543 29.6849 13.1997 29.6218 13.1997 29.3955C13.1997 29.1482 13.4397 29.0003 13.8422 29.0003C14.273 29.0003 14.6901 29.1628 14.8946 29.2896L15.2122 28.6964ZM24.6817 28.3432C24.2582 28.3432 23.9826 28.5412 23.7926 28.8378V28.4281H23.0652V31.8033H23.7991V29.9112C23.7991 29.3527 24.0392 29.0423 24.5193 29.0423C24.668 29.0423 24.8232 29.0633 24.9783 29.1272L25.2047 28.4353C25.0422 28.3715 24.8304 28.3432 24.6817 28.3432ZM18.4186 28.4281H17.2183V27.404H16.4763V28.4281H15.7917V29.0989H16.4763V30.6386C16.4763 31.4218 16.7802 31.8882 17.6483 31.8882C17.9668 31.8882 18.3337 31.7896 18.5665 31.6271L18.3547 30.9983C18.1357 31.1252 17.8956 31.189 17.7049 31.189C17.3379 31.189 17.2183 30.9627 17.2183 30.6241V29.0989H18.4186V28.4281ZM7.44492 31.8033V29.6849C7.44492 28.8871 6.93653 28.3505 6.11696 28.3432C5.68616 28.3359 5.24162 28.4701 4.93044 28.9437C4.69767 28.5695 4.33072 28.3432 3.81505 28.3432C3.45457 28.3432 3.10217 28.4491 2.82656 28.8443V28.4281H2.09186V31.8033H2.83303V29.9322C2.83303 29.3462 3.15794 29.035 3.65987 29.035C4.14724 29.035 4.39376 29.3527 4.39376 29.9249V31.8033H5.13574V29.9322C5.13574 29.3462 5.47439 29.035 5.96177 29.035C6.46289 29.035 6.70294 29.3527 6.70294 29.9249V31.8033H7.44492Z" fill="#231F20"/>
    <path d="M40.737 20.5777V20.0847H40.6085L40.4598 20.4233L40.3119 20.0847H40.1825V20.5777H40.2739V20.2059L40.4129 20.5268H40.5075L40.6465 20.2051V20.5777H40.737ZM39.9215 20.5777V20.1687H40.0864V20.0855H39.6661V20.1687H39.831V20.5777H39.9215Z" fill="#F79410"/>
    <path d="M26.1234 22.6987H15.0005V2.70905H26.1234V22.6987Z" fill="#FF5F00"/>
    <path d="M15.7125 12.7027C15.7125 8.64769 17.6111 5.03561 20.5677 2.70784C18.4056 1.00566 15.6769 -0.010313 12.7115 -0.010313C5.69097 -0.010313 6.10352e-05 5.68141 6.10352e-05 12.7027C6.10352e-05 19.724 5.69097 25.4157 12.7115 25.4157C15.6769 25.4157 18.4056 24.3997 20.5677 22.6976C17.6111 20.3698 15.7125 16.7577 15.7125 12.7027Z" fill="#EB001B"/>
    <path d="M41.1261 12.7027C41.1261 19.724 35.4352 25.4157 28.4147 25.4157C25.4492 25.4157 22.7206 24.3997 20.5577 22.6976C23.5151 20.3698 25.4137 16.7577 25.4137 12.7027C25.4137 8.64769 23.5151 5.03561 20.5577 2.70784C22.7206 1.00566 25.4492 -0.010313 28.4147 -0.010313C35.4352 -0.010313 41.1261 5.68141 41.1261 12.7027Z" fill="#F79E1B"/>
</svg>
