<svg width="48" height="24" viewBox="0 0 48 24" fill="none" xmlns="http://www.w3.org/2000/svg">
    <path d="M2.83621 8.56298L0.331421 0.86969H1.4049L2.60618 4.65244C2.93845 5.70036 3.2196 6.62049 3.42407 7.54062H3.44963C3.65411 6.64605 3.98637 5.6748 4.31864 4.678L5.62216 0.86969H6.69564L3.93526 8.56298H2.83621Z" fill="#575EC8"/>
    <path d="M7.23262 5.98151C7.25818 7.33614 8.12719 7.89844 9.12399 7.89844C9.83965 7.89844 10.2742 7.77065 10.6575 7.61729L10.8365 8.33295C10.4786 8.4863 9.86521 8.66522 8.9962 8.66522C7.28374 8.66522 6.28693 7.54062 6.28693 5.87927C6.28693 4.21793 7.25818 2.88886 8.8684 2.88886C10.6831 2.88886 11.1432 4.47352 11.1432 5.49589C11.1432 5.70036 11.1176 5.85372 11.1176 5.95595L7.23262 5.98151ZM10.1719 5.26586C10.1975 4.62688 9.91633 3.63007 8.76617 3.63007C7.7438 3.63007 7.3093 4.57576 7.23262 5.26586H10.1719Z" fill="#575EC8"/>
    <path d="M11.935 4.75467C11.935 4.1157 11.935 3.5534 11.8839 3.04221H12.7529L12.7785 4.1157H12.8296C13.0852 3.37448 13.6986 2.91442 14.3631 2.91442C14.4654 2.91442 14.5676 2.91442 14.6443 2.93998V3.88566C14.542 3.86011 14.4398 3.86011 14.312 3.86011C13.5964 3.86011 13.1107 4.39685 12.9574 5.13806C12.9318 5.26586 12.9063 5.44477 12.9063 5.59812V8.53742H11.9095V4.75467H11.935Z" fill="#575EC8"/>
    <path d="M16.3827 1.48311C16.3827 1.81538 16.1526 2.09653 15.7437 2.09653C15.3859 2.09653 15.1303 1.81538 15.1303 1.48311C15.1303 1.12528 15.3859 0.844129 15.7692 0.844129C16.1271 0.844129 16.3827 1.12528 16.3827 1.48311ZM15.2581 3.04221H16.2549V8.56298H15.2581V3.04221Z" fill="#575EC8"/>
    <path d="M17.5838 8.56298V3.80899H16.817V3.04221H17.5838V2.78662C17.5838 2.01985 17.7627 1.30419 18.2228 0.844129C18.6062 0.486301 19.0918 0.332947 19.5774 0.332947C19.9353 0.332947 20.242 0.409624 20.4464 0.486301L20.3186 1.25308C20.1653 1.1764 19.9608 1.12528 19.6797 1.12528C18.8362 1.12528 18.6062 1.86649 18.6062 2.7355V3.04221H19.9353V3.80899H18.6062V8.56298H17.5838Z" fill="#575EC8"/>
    <path d="M22.0057 1.48311C22.0312 1.81538 21.7756 2.09653 21.3667 2.09653C21.0089 2.09653 20.7533 1.81538 20.7533 1.48311C20.7533 1.12528 21.0089 0.844129 21.3922 0.844129C21.7756 0.844129 22.0057 1.12528 22.0057 1.48311ZM20.8811 3.04221H21.8779V8.56298H20.8811V3.04221Z" fill="#575EC8"/>
    <path d="M23.6668 5.98151C23.6923 7.33614 24.5613 7.89844 25.5581 7.89844C26.2738 7.89844 26.7083 7.77065 27.0917 7.61729L27.2706 8.33295C26.9128 8.4863 26.2994 8.66522 25.4303 8.66522C23.7179 8.66522 22.7211 7.54062 22.7211 5.87927C22.7211 4.21793 23.6923 2.88886 25.3025 2.88886C27.1172 2.88886 27.5773 4.47352 27.5773 5.49589C27.5773 5.70036 27.5518 5.85372 27.5518 5.95595L23.6668 5.98151ZM26.6061 5.26586C26.6061 4.62688 26.3505 3.63007 25.2003 3.63007C24.1779 3.63007 23.7434 4.57576 23.6668 5.26586H26.6061Z" fill="#575EC8"/>
    <path d="M33.1491 0.460742V7.13167C33.1491 7.6173 33.1491 8.1796 33.2002 8.56298H32.3056L32.2545 7.59174H32.2289C31.9222 8.20516 31.2577 8.66522 30.3376 8.66522C29.0085 8.66522 27.9861 7.54062 27.9861 5.85372C27.9861 4.01346 29.1107 2.88886 30.4654 2.88886C31.3088 2.88886 31.8711 3.2978 32.1267 3.73231H32.1523V0.460742H33.1491ZM32.1523 5.29142C32.1523 5.16362 32.1523 4.98471 32.1011 4.85691C31.9478 4.21793 31.411 3.68119 30.6443 3.68119C29.5964 3.68119 28.9829 4.60132 28.9829 5.82816C28.9829 6.95276 29.5197 7.87289 30.6187 7.87289C31.2833 7.87289 31.8967 7.43838 32.1011 6.67161C32.1267 6.54381 32.1523 6.39046 32.1523 6.2371V5.29142Z" fill="#575EC8"/>
    <path d="M36.8555 8.56298C36.8811 8.1796 36.9066 7.6173 36.9066 7.13167V0.460742H37.9034V3.93678H37.929C38.2868 3.32336 38.9258 2.91442 39.8204 2.91442C41.2006 2.91442 42.1718 4.06458 42.1462 5.72592C42.1462 7.69397 40.8938 8.69078 39.667 8.69078C38.8747 8.69078 38.2357 8.38407 37.8267 7.64285H37.8012L37.7501 8.56298H36.8555ZM37.9034 6.33934C37.9034 6.46714 37.929 6.59493 37.9545 6.69717C38.159 7.38726 38.7213 7.87289 39.4625 7.87289C40.5105 7.87289 41.1494 7.00388 41.1494 5.75148C41.1494 4.65244 40.5871 3.70675 39.5136 3.70675C38.8236 3.70675 38.1846 4.16681 37.9801 4.93359C37.9545 5.03582 37.929 5.18918 37.929 5.34253V6.33934H37.9034Z" fill="#575EC8"/>
    <path d="M43.245 3.04222L44.4463 6.31378C44.5741 6.67161 44.7019 7.10611 44.8041 7.43838H44.8297C44.9319 7.10611 45.0342 6.67161 45.1875 6.28822L46.2866 3.04222H47.36L45.8521 6.97832C45.1364 8.86969 44.6508 9.84094 43.9607 10.4288C43.4751 10.8633 42.9894 11.0422 42.7338 11.0678L42.4783 10.2243C42.7338 10.1476 43.0661 9.99429 43.3473 9.7387C43.6284 9.53423 43.9607 9.12528 44.1907 8.6141C44.2418 8.51187 44.2674 8.43519 44.2674 8.38407C44.2674 8.33295 44.2418 8.25627 44.1907 8.12848L42.146 3.04222H43.245Z" fill="#575EC8"/>
    <path d="M16.9966 12.32L13.955 20.0133L12.7282 13.4702C12.5748 12.729 12.0125 12.32 11.3736 12.32H6.38954L6.31286 12.6523C7.33523 12.8823 8.48539 13.2401 9.20104 13.6235C9.63555 13.8536 9.76334 14.058 9.89114 14.6203L12.217 23.6427H15.3352L20.0892 12.32H16.9966Z" fill="#575EC8"/>
    <path d="M21.3419 12.32L18.9137 23.6427H21.853L24.2556 12.32H21.3419Z" fill="#575EC8"/>
    <path d="M28.1147 15.4638C28.1147 15.0548 28.5236 14.6203 29.3671 14.5181C29.776 14.467 30.9517 14.4159 32.2553 15.0293L32.7664 12.6267C32.0508 12.3711 31.1562 12.1155 30.0316 12.1155C27.1434 12.1155 25.0987 13.6491 25.0732 15.8727C25.0476 17.5085 26.53 18.4031 27.6291 18.9398C28.7792 19.5021 29.1626 19.8344 29.137 20.3456C29.137 21.1124 28.2169 21.4446 27.399 21.4446C25.9166 21.4702 25.0732 21.0357 24.3831 20.729L23.8463 23.2082C24.5364 23.5149 25.7888 23.7961 27.0923 23.7961C30.1594 23.7961 32.1786 22.2881 32.1786 19.9111C32.2297 16.9718 28.0891 16.7929 28.1147 15.4638Z" fill="#575EC8"/>
    <path d="M36.5746 19.6299L38.1337 15.3871L39.0027 19.6299H36.5746ZM37.6992 12.32C37.1369 12.32 36.6513 12.6523 36.4468 13.1379L32.0506 23.6171H35.1177L35.7311 21.9302H39.4883L39.8462 23.6171H42.5554L40.204 12.2945H37.6992V12.32Z" fill="#575EC8"/>
</svg>
