<svg width="64" height="20" viewBox="0 0 64 20" fill="none" xmlns="http://www.w3.org/2000/svg">
    <path d="M27.3986 19.753H22.2719L25.4656 0.329177H30.6763L27.3986 19.753Z" fill="url(#paint0_linear_757_2506)"/>
    <path d="M17.9015 0.329177L13.0269 13.6625L12.4386 10.7819L10.6737 2.05757C10.6737 2.05757 10.5056 0.329177 8.23639 0.329177H0.0840451L0 0.658395C0 0.658395 2.52134 1.15222 5.37886 2.88062L9.91728 19.753H15.2961L23.4485 0.329177H17.9015Z" fill="url(#paint0_linear_757_2506)"/>
    <path d="M58.411 19.753H63.1175L58.9993 0.411462H54.8811C52.9481 0.411462 52.5279 1.89294 52.5279 1.89294L44.8798 19.753H50.2587L51.3513 16.8724H57.9068L58.411 19.753ZM52.78 12.8394L55.4695 5.59665L56.9823 12.8394H52.78Z" fill="url(#paint0_linear_757_2506)"/>
    <path d="M45.216 5.02051L45.9724 0.822984C45.9724 0.822984 43.7032 -6.10352e-05 41.3499 -6.10352e-05C38.8286 -6.10352e-05 32.6933 1.0699 32.6933 6.41969C32.6933 11.4403 39.8371 11.5226 39.8371 14.074C39.8371 16.7078 33.4497 16.2139 31.3486 14.5678L30.5922 18.93C30.5922 18.93 32.8614 19.9999 36.3913 19.9999C39.9212 19.9999 45.216 18.1892 45.216 13.3333C45.216 8.3127 37.9882 7.81887 37.9882 5.67895C38.0722 3.53903 43.0308 3.86825 45.216 5.02051Z" fill="url(#paint0_linear_757_2506)"/>
    <defs>
        <linearGradient id="paint0_linear_757_2506" x1="10.1923" y1="6.88011" x2="36.8794" y2="31.7952" gradientUnits="userSpaceOnUse">
            <stop stop-color="#484AAF"/>
            <stop offset="1" stop-color="#2A5DDB"/>
        </linearGradient>
    </defs>
</svg>
