<svg width="38" height="40" viewBox="0 0 38 40" fill="none" xmlns="http://www.w3.org/2000/svg">
    <path d="M22 12C22 17.5189 17.5256 22 12 22C6.48113 22 2 17.5256 2 12C2 6.4744 6.47439 2.00001 12 2.00001C17.5256 1.99327 22 6.4744 22 12Z" fill="#FCD131"/>
    <path d="M19 11.9969C19 15.8594 15.8704 19 12 19C8.1358 19 5 15.8594 5 11.9969C5 8.12825 8.1358 5 12 5C15.8704 5 19 8.12825 19 11.9969Z" fill="#FFA800"/>
    <path d="M8 12L12.0001 8L16 12L12.0001 16L8 12Z" fill="white"/>
    <path d="M36 6.00353C36 9.31217 33.3122 12 29.9965 12C26.6878 12 24 9.31217 24 6.00353C24 2.68783 26.6878 0 29.9965 0C33.3122 0 36 2.68783 36 6.00353Z" fill="#FCD131"/>
    <path d="M34 6C34 8.20923 32.2092 10 30 10C27.7908 10 26 8.20308 26 6C26 3.79077 27.7908 2 30 2C32.2092 2 34 3.79077 34 6Z" fill="#FFA800"/>
    <path d="M28 6L30 4L32 6L30 8L28 6Z" fill="white"/>
    <path d="M36 18.3891V36.6109C36 38.4838 34.3012 40 32.2026 40H3.79736C1.69882 40 0 38.4838 0 36.6109V18.3891C0 16.5162 1.69882 15 3.79736 15H32.2026C34.3012 14.9944 36 16.5162 36 18.3891Z" fill="#99CFFF"/>
    <path d="M38 24.3851V30.6149C38 31.377 37.3861 32 36.6205 32H28.4818C26.0066 32 24 29.9853 24 27.5C24 25.0147 26.0066 23 28.4818 23H36.6271C37.3861 23.0066 38 23.623 38 24.3851Z" fill="#44394A"/>
    <path d="M31 27.5C31 28.8866 29.876 30 28.5 30C27.1134 30 26 28.876 26 27.5C26 26.124 27.1239 25 28.5 25C29.8866 25 31 26.124 31 27.5Z" fill="white"/>
</svg>
