<svg width="59" height="24" viewBox="0 0 59 24" fill="none" xmlns="http://www.w3.org/2000/svg">
    <g clip-path="url(#clip0_777_5669)">
        <path d="M10.6871 3.0942C10.0021 3.90485 8.90598 4.54424 7.80988 4.4529C7.67286 3.3568 8.2095 2.1922 8.83747 1.47288C9.52253 0.639391 10.7214 0.0456708 11.6919 0C11.8061 1.14177 11.3608 2.2607 10.6871 3.0942ZM11.6805 4.66984C10.0934 4.5785 8.73471 5.57184 7.98114 5.57184C7.21616 5.57184 6.06297 4.71551 4.80702 4.73834C3.17429 4.76118 1.65574 5.68601 0.822244 7.1589C-0.890411 10.1047 0.376954 14.4662 2.03252 16.8639C2.84318 18.0514 3.81368 19.353 5.09246 19.3073C6.30274 19.2617 6.78228 18.5195 8.24375 18.5195C9.71663 18.5195 10.1391 19.3073 11.4179 19.2845C12.7423 19.2617 13.5758 18.0971 14.3865 16.9096C15.3113 15.5623 15.6881 14.2493 15.7109 14.1808C15.6881 14.1579 13.1534 13.1874 13.1305 10.2645C13.1077 7.82112 15.1286 6.65652 15.22 6.58801C14.0782 4.89819 12.297 4.71551 11.6805 4.66984ZM20.8489 1.35871V19.1589H23.612V13.0733H27.4369C30.9307 13.0733 33.3855 10.6755 33.3855 7.20457C33.3855 3.73359 30.9764 1.35871 27.5282 1.35871H20.8489ZM23.612 3.68792H26.7975C29.1952 3.68792 30.5654 4.9667 30.5654 7.21598C30.5654 9.46527 29.1952 10.7555 26.7861 10.7555H23.612V3.68792ZM38.4322 19.2959C40.1676 19.2959 41.7775 18.4167 42.5083 17.0238H42.5654V19.1589H45.1229V10.2988C45.1229 7.72978 43.0677 6.07421 39.905 6.07421C36.9707 6.07421 34.8013 7.75262 34.7214 10.059H37.2105C37.416 8.96289 38.4322 8.24358 39.8251 8.24358C41.5149 8.24358 42.4626 9.0314 42.4626 10.4814V11.4634L39.0145 11.6689C35.8061 11.863 34.0706 13.176 34.0706 15.4596C34.0706 17.7659 35.8632 19.2959 38.4322 19.2959ZM39.1743 17.1836C37.7014 17.1836 36.7652 16.4757 36.7652 15.3911C36.7652 14.2721 37.6672 13.6213 39.3912 13.5186L42.4626 13.3245V14.3292C42.4626 15.9962 41.0468 17.1836 39.1743 17.1836ZM48.5368 24C51.2314 24 52.4988 22.9724 53.6063 19.8554L58.4588 6.24548H55.65L52.396 16.7612H52.3389L49.0849 6.24548H46.1962L50.8774 19.2046L50.6263 19.9924C50.2038 21.3283 49.5187 21.8421 48.297 21.8421C48.0801 21.8421 47.6577 21.8192 47.4864 21.7964V23.9315C47.6462 23.9772 48.3313 24 48.5368 24Z" fill="black"/>
    </g>
    <defs>
        <clipPath id="clip0_777_5669">
            <rect width="58.5" height="24" fill="white"/>
        </clipPath>
    </defs>
</svg>
