<svg width="80" height="32" viewBox="0 0 80 32" fill="none" xmlns="http://www.w3.org/2000/svg">
    <g clip-path="url(#clip0_777_5700)">
        <g clip-path="url(#clip1_777_5700)">
            <path d="M64 32C72.8366 32 80 24.8366 80 16C80 7.16344 72.8366 0 64 0C55.1634 0 48 7.16344 48 16C48 24.8366 55.1634 32 64 32Z" fill="#26A17B"/>
            <path fill-rule="evenodd" clip-rule="evenodd" d="M71 8H57V12H62V14.05C57.4355 14.2816 54 15.2905 54 16.5C54 17.7095 57.4355 18.7184 62 18.95V24.9999H66V18.95C70.5645 18.7184 74 17.7095 74 16.5C74 15.2905 70.5645 14.2816 66 14.05V12H71V8ZM62 14.5434V16.9566C62.6432 16.985 63.3126 17 64 17C64.6874 17 65.3568 16.985 66 16.9566V14.5434C70.008 14.7202 73 15.4172 73 16.25C73 17.2165 68.9706 18 64 18C59.0294 18 55 17.2165 55 16.25C55 15.4172 57.992 14.7202 62 14.5434Z" fill="white"/>
        </g>
        <g clip-path="url(#clip2_777_5700)">
            <path d="M55.5197 19.8706C53.3827 28.4421 44.7012 33.6586 36.1287 31.5211C27.5597 29.3841 22.3432 20.7021 24.4812 12.1311C26.6172 3.55861 35.2987 -1.65839 43.8687 0.478615C52.4407 2.61561 57.6567 11.2986 55.5197 19.8706Z" fill="#151C2F"/>
            <path d="M45.9999 17.0889L39.9999 25.5333V20.6444L45.9999 17.0889Z" fill="#62688F"/>
            <path d="M45.9999 15.9444L39.9999 6V15.9444H45.9999Z" fill="#62688F"/>
            <path d="M45.9999 15.9443L39.9999 13.2221V19.4999L45.9999 15.9443Z" fill="#454A75"/>
            <path d="M34 17.0889L40 25.5333V20.6444L34 17.0889Z" fill="#8A92B2"/>
            <path d="M34 15.9444L40 6V15.9444H34Z" fill="#8A92B2"/>
            <path d="M34 15.9443L40 13.2221V19.4999L34 15.9443Z" fill="#62688F"/>
        </g>
        <g clip-path="url(#clip3_777_5700)">
            <path d="M31.5199 19.8706C29.3829 28.4421 20.7014 33.6586 12.1289 31.5211C3.55993 29.3841 -1.65657 20.7021 0.481428 12.1311C2.61743 3.55858 11.2989 -1.65842 19.8689 0.478584C28.4409 2.61558 33.6569 11.2986 31.5199 19.8706Z" fill="#F7931A"/>
            <path d="M23.1603 13.6404C23.4765 11.5389 21.8669 10.4091 19.6659 9.65548L20.3798 6.8087L18.6366 6.37685L17.9415 9.14861C17.4832 9.03509 17.0126 8.92799 16.5448 8.82188L17.2449 6.03186L15.5027 5.60001L14.7882 8.4458C14.4089 8.35992 14.0365 8.27503 13.675 8.1857L13.677 8.17681L11.273 7.58012L10.8092 9.43092C10.8092 9.43092 12.1026 9.72556 12.0753 9.74383C12.7813 9.91903 12.9089 10.3835 12.8876 10.7516L12.0743 13.9947C12.123 14.0071 12.186 14.0249 12.2555 14.0525C12.1975 14.0382 12.1354 14.0224 12.0713 14.0071L10.9314 18.5502C10.845 18.7634 10.626 19.0832 10.1325 18.9618C10.1499 18.987 8.86541 18.6474 8.86541 18.6474L8 20.631L10.2685 21.1931C10.6906 21.2983 11.1041 21.4083 11.5113 21.512L10.7899 24.3913L12.5311 24.8232L13.2456 21.9744C13.7212 22.1027 14.183 22.2212 14.6348 22.3327L13.9228 25.1682L15.666 25.6L16.3875 22.7261C19.36 23.2853 21.5953 23.0597 22.5362 20.3872C23.2943 18.2353 22.4984 16.994 20.9344 16.1846C22.0734 15.9235 22.9314 15.1788 23.1603 13.6404ZM19.1773 19.1923C18.6386 21.3442 14.9938 20.1809 13.8121 19.8892L14.7693 16.0746C15.951 16.3677 19.7404 16.9481 19.1773 19.1923ZM19.7165 13.6093C19.225 15.5667 16.1913 14.5722 15.2073 14.3284L16.0752 10.8686C17.0592 11.1124 20.2284 11.5675 19.7165 13.6093Z" fill="white"/>
        </g>
    </g>
    <defs>
        <clipPath id="clip0_777_5700">
            <rect width="80" height="32" fill="white"/>
        </clipPath>
        <clipPath id="clip1_777_5700">
            <rect width="32" height="32" fill="white" transform="translate(48)"/>
        </clipPath>
        <clipPath id="clip2_777_5700">
            <rect width="32" height="32" fill="white" transform="translate(24)"/>
        </clipPath>
        <clipPath id="clip3_777_5700">
            <rect width="32" height="32" fill="white"/>
        </clipPath>
    </defs>
</svg>
