<svg width="79" height="14" viewBox="0 0 79 14" fill="none" xmlns="http://www.w3.org/2000/svg">
    <g clip-path="url(#clip0_777_5642)">
        <path d="M62.9664 7.86239V11.1552H61.9192V3.02399H64.6912C65.3968 3.02399 65.996 3.25919 66.4888 3.72959C66.9872 4.19999 67.2392 4.77119 67.2392 5.44319C67.2392 6.13199 66.9872 6.70879 66.4888 7.16799C66.0016 7.63279 65.408 7.86239 64.6912 7.86239H62.9664ZM62.9664 4.02639V6.86559H64.7136C65.128 6.86559 65.4752 6.72559 65.7496 6.44559C66.0296 6.16559 66.1696 5.82959 66.1696 5.44319C66.1696 5.06239 66.0296 4.73759 65.7496 4.45759C65.4752 4.17199 65.1336 4.02639 64.7136 4.02639H62.9664Z" fill="#5F6368"/>
        <path d="M69.972 5.40961C70.7448 5.40961 71.3552 5.61681 71.8032 6.03121C72.2512 6.44561 72.4752 7.01121 72.4752 7.72801V11.1608H71.4728V10.388H71.428C70.9968 11.0264 70.42 11.34 69.7032 11.34C69.0872 11.34 68.5776 11.1608 68.1632 10.7968C67.7488 10.4328 67.5416 9.97921 67.5416 9.43601C67.5416 8.85921 67.76 8.40001 68.1968 8.06401C68.6336 7.72241 69.216 7.55441 69.9384 7.55441C70.56 7.55441 71.0696 7.66641 71.4728 7.89601V7.65521C71.4728 7.29121 71.3272 6.98321 71.0416 6.73121C70.756 6.47921 70.4144 6.35041 70.028 6.35041C69.4456 6.35041 68.9808 6.59681 68.6448 7.08961L67.7264 6.51281C68.2304 5.77361 68.9808 5.40961 69.972 5.40961ZM68.6224 9.45281C68.6224 9.72721 68.74 9.95121 68.9696 10.136C69.1992 10.3152 69.4736 10.4104 69.7816 10.4104C70.2184 10.4104 70.6104 10.248 70.9576 9.92321C71.3048 9.59841 71.4728 9.21761 71.4728 8.77521C71.148 8.51761 70.6944 8.38881 70.112 8.38881C69.6864 8.38881 69.3336 8.48961 69.048 8.69681C68.7624 8.89841 68.6224 9.15041 68.6224 9.45281Z" fill="#5F6368"/>
        <path d="M78.1592 5.59436L74.6704 13.6136H73.5896L74.8832 10.808L72.5872 5.59436H73.724L75.3816 9.59276H75.404L77.0168 5.59436H78.1592Z" fill="#5F6368"/>
        <path d="M26.6224 7.59359V6.33359H30.8336C30.8784 6.55759 30.9008 6.82079 30.9008 7.10639C30.9008 8.04719 30.6432 9.21759 29.8144 10.0464C29.008 10.8864 27.972 11.34 26.6056 11.34C24.0688 11.34 21.9352 9.27359 21.9352 6.73679C21.9352 4.19999 24.0632 2.12799 26.6 2.12799C28.0056 2.12799 29.0024 2.67679 29.7528 3.39919L28.868 4.28399C28.3304 3.77999 27.5968 3.38799 26.6 3.38799C24.7464 3.38799 23.3016 4.88319 23.3016 6.73679C23.3016 8.59039 24.7464 10.08 26.6 10.08C27.804 10.08 28.4872 9.59839 28.924 9.16159C29.2824 8.80319 29.5176 8.29359 29.6072 7.59359H26.6224Z" fill="#5F6368"/>
        <path d="M37.3128 8.37201C37.3128 10.08 35.9744 11.3344 34.3392 11.3344C32.704 11.3344 31.3656 10.0744 31.3656 8.37201C31.3656 6.65281 32.704 5.40961 34.3392 5.40961C35.98 5.40961 37.3128 6.65841 37.3128 8.37201ZM36.0136 8.37201C36.0136 7.30241 35.2408 6.57441 34.3392 6.57441C33.4432 6.57441 32.6648 7.30241 32.6648 8.37201C32.6648 9.42481 33.4376 10.1696 34.3392 10.1696C35.2408 10.1696 36.0136 9.43041 36.0136 8.37201Z" fill="#5F6368"/>
        <path d="M43.8032 8.37201C43.8032 10.08 42.4648 11.3344 40.8296 11.3344C39.1944 11.3344 37.856 10.08 37.856 8.37201C37.856 6.65281 39.1944 5.40961 40.8296 5.40961C42.4704 5.40961 43.8032 6.65841 43.8032 8.37201ZM42.504 8.37201C42.504 7.30241 41.7312 6.57441 40.8296 6.57441C39.9336 6.57441 39.1552 7.30241 39.1552 8.37201C39.1552 9.42481 39.928 10.1696 40.8296 10.1696C41.7256 10.1696 42.504 9.43041 42.504 8.37201Z" fill="#5F6368"/>
        <path d="M50.0248 5.58879V10.9088C50.0248 13.0984 48.7312 13.9944 47.208 13.9944C45.7688 13.9944 44.9064 13.0312 44.5816 12.2416L45.7128 11.7712C45.9144 12.2528 46.4072 12.824 47.208 12.824C48.1824 12.824 48.7928 12.2192 48.7928 11.0824V10.6568H48.748C48.4568 11.0152 47.8968 11.3288 47.1856 11.3288C45.7016 11.3288 44.3464 10.0352 44.3464 8.37759C44.3464 6.70319 45.7072 5.40399 47.1856 5.40399C47.8912 5.40399 48.4568 5.71759 48.748 6.06479H48.7928V5.58319L50.0248 5.58879ZM48.8824 8.38319C48.8824 7.34159 48.188 6.57439 47.2976 6.57439C46.4016 6.57439 45.6456 7.33599 45.6456 8.38319C45.6456 9.41359 46.396 10.1696 47.2976 10.1696C48.1824 10.1696 48.8824 9.41919 48.8824 8.38319Z" fill="#5F6368"/>
        <path d="M52.2312 2.47522V11.1608H50.9264V2.47522H52.2312Z" fill="#5F6368"/>
        <path d="M57.26 9.35196L58.268 10.024C57.9432 10.5056 57.1592 11.34 55.7984 11.34C54.1128 11.34 52.8584 10.0352 52.8584 8.37756C52.8584 6.61356 54.1296 5.41516 55.6528 5.41516C57.1928 5.41516 57.9432 6.64156 58.1896 7.30236L58.324 7.63836L54.3592 9.27916C54.6616 9.87276 55.132 10.1752 55.7984 10.1752C56.4648 10.1696 56.924 9.84476 57.26 9.35196ZM54.152 8.28236L56.8008 7.17916C56.6552 6.80956 56.2184 6.55196 55.7032 6.55196C55.0368 6.55756 54.1184 7.13996 54.152 8.28236Z" fill="#5F6368"/>
        <path d="M8.33278 8.13683L12.2472 1.35522L14.3808 2.58722C15.7584 3.38242 16.2288 5.14082 15.4336 6.51842L13.2272 10.3376C12.7288 11.2 11.6312 11.4912 10.7688 10.9984L8.79198 9.85602C8.19278 9.50323 7.98558 8.73603 8.33278 8.13683Z" fill="url(#paint0_linear_777_5642)"/>
        <path d="M7.9184 3.4272L3.052 11.8608L5.1856 13.0928C6.5632 13.888 8.3216 13.4176 9.1168 12.04L12.2752 6.5688C12.7736 5.7064 12.4768 4.6088 11.6144 4.1104L9.632 2.968C9.0328 2.6208 8.2656 2.828 7.9184 3.4272Z" fill="#FDBD00"/>
        <path d="M12.2472 1.35519L10.7408 0.481588C9.02158 -0.509612 6.82078 0.0783878 5.82398 1.79759L3.02398 6.64719C2.52558 7.50959 2.82238 8.60719 3.68478 9.10559L5.19118 9.97919C6.05358 10.4776 7.15118 10.1808 7.64958 9.31839L10.9928 3.52799C11.6872 2.32399 13.2216 1.91519 14.4256 2.60959" fill="#2DA94F"/>
        <path d="M6.26079 3.22002L4.59759 2.26242C3.85279 1.83682 2.90639 2.08882 2.48079 2.82802L0.475989 6.27762C-0.509611 7.97442 0.078389 10.1472 1.78079 11.1328L3.04639 11.8608L4.58639 12.7456L5.25279 13.132C4.07119 12.3368 3.69599 10.752 4.41839 9.50322L4.93359 8.61282L6.82639 5.34242C7.25759 4.59202 6.99999 3.64562 6.26079 3.22002Z" fill="url(#paint1_linear_777_5642)"/>
    </g>
    <defs>
        <linearGradient id="paint0_linear_777_5642" x1="9.31401" y1="5.38792" x2="15.1232" y2="7.50231" gradientUnits="userSpaceOnUse">
            <stop offset="0.2" stop-color="#D93025"/>
            <stop offset="0.6" stop-color="#EA4335"/>
        </linearGradient>
        <linearGradient id="paint1_linear_777_5642" x1="0.494816" y1="6.07211" x2="6.96631" y2="8.42755" gradientUnits="userSpaceOnUse">
            <stop offset="0.2" stop-color="#4285F4"/>
            <stop offset="0.8" stop-color="#1B74E8"/>
        </linearGradient>
        <clipPath id="clip0_777_5642">
            <rect width="78.75" height="14" fill="white"/>
        </clipPath>
    </defs>
</svg>
