<svg width="80" height="40" viewBox="0 0 80 40" fill="none" xmlns="http://www.w3.org/2000/svg">
  <rect x="16" y="2" width="37" height="28" rx="2" fill="#F1B46E" />
  <rect x="16" y="7" width="37" height="6" fill="#B0887E" />
  <rect x="40" y="22" width="10" height="4" rx="1" fill="#DC596A" />
  <path
    d="M36 18.3891V36.6109C36 38.4838 34.3012 40 32.2026 40H3.79736C1.69882 40 0 38.4838 0 36.6109V18.3891C0 16.5162 1.69882 15 3.79736 15H32.2026C34.3012 14.9944 36 16.5162 36 18.3891Z"
    fill="#99CFFF" />
  <path
    d="M38 24.3851V30.6149C38 31.377 37.3861 32 36.6205 32H28.4818C26.0066 32 24 29.9853 24 27.5C24 25.0147 26.0066 23 28.4818 23H36.6271C37.3861 23.0066 38 23.623 38 24.3851Z"
    fill="#44394A" />
  <path
    d="M31 27.5C31 28.8866 29.876 30 28.5 30C27.1134 30 26 28.876 26 27.5C26 26.124 27.1239 25 28.5 25C29.8866 25 31 26.124 31 27.5Z"
    fill="white" />
</svg>