<svg width="75" height="20" viewBox="0 0 75 20" fill="none" xmlns="http://www.w3.org/2000/svg">
    <path d="M28.0067 4.0903H23.8618C23.5782 4.0903 23.337 4.29636 23.2927 4.57636L21.6164 15.2048C21.583 15.4145 21.7454 15.6036 21.9582 15.6036H23.937C24.2206 15.6036 24.4618 15.3976 24.506 15.117L24.9582 12.2503C25.0018 11.9697 25.2436 11.7636 25.5267 11.7636H26.8388C29.5691 11.7636 31.1448 10.4424 31.5564 7.82424C31.7418 6.67879 31.5642 5.77879 31.0279 5.14848C30.4388 4.45636 29.3939 4.0903 28.0067 4.0903ZM28.4848 7.97212C28.2582 9.45939 27.1218 9.45939 26.023 9.45939H25.3976L25.8364 6.68182C25.8624 6.51394 26.0079 6.3903 26.1776 6.3903H26.4642C27.2127 6.3903 27.9188 6.3903 28.2836 6.81697C28.5012 7.07151 28.5679 7.4497 28.4848 7.97212Z" fill="#253B80"/>
    <path d="M40.3964 7.92425H38.4115C38.2424 7.92425 38.0964 8.04788 38.0703 8.21576L37.9824 8.77091L37.8436 8.5697C37.414 7.94606 36.4558 7.73758 35.4994 7.73758C33.3061 7.73758 31.4327 9.39879 31.0679 11.7291C30.8782 12.8915 31.1479 14.003 31.8073 14.7782C32.4121 15.4909 33.2776 15.7879 34.3073 15.7879C36.0746 15.7879 37.0546 14.6515 37.0546 14.6515L36.9661 15.203C36.9327 15.4139 37.0952 15.603 37.3067 15.603H39.0946C39.3788 15.603 39.6188 15.397 39.6636 15.1164L40.7364 8.32303C40.7703 8.11394 40.6085 7.92425 40.3964 7.92425ZM37.6297 11.7873C37.4382 12.9212 36.5382 13.6824 35.3903 13.6824C34.814 13.6824 34.3533 13.4976 34.0576 13.1473C33.7643 12.7994 33.6527 12.3042 33.7461 11.7527C33.9249 10.6285 34.84 9.84243 35.9703 9.84243C36.534 9.84243 36.9921 10.0297 37.294 10.383C37.5964 10.74 37.7164 11.2382 37.6297 11.7873Z" fill="#253B80"/>
    <path d="M50.9673 7.92426H48.9727C48.7824 7.92426 48.6037 8.0188 48.4958 8.17698L45.7449 12.2291L44.5788 8.33516C44.5055 8.09153 44.2806 7.92426 44.0261 7.92426H42.0661C41.8279 7.92426 41.6624 8.15698 41.7382 8.38123L43.9352 14.8285L41.8697 17.7443C41.7073 17.974 41.8709 18.2897 42.1515 18.2897H44.1436C44.3327 18.2897 44.5097 18.1976 44.617 18.0424L51.2509 8.46668C51.4097 8.23759 51.2467 7.92426 50.9673 7.92426Z" fill="#253B80"/>
    <path d="M57.5709 4.0903H53.4255C53.1424 4.0903 52.9012 4.29636 52.857 4.57636L51.1806 15.2048C51.1473 15.4145 51.3097 15.6036 51.5212 15.6036H53.6485C53.8461 15.6036 54.0152 15.4594 54.0461 15.263L54.5218 12.2503C54.5655 11.9697 54.8073 11.7636 55.0903 11.7636H56.4018C59.1327 11.7636 60.7079 10.4424 61.12 7.82424C61.3061 6.67879 61.1273 5.77879 60.5909 5.14848C60.0024 4.45636 58.9582 4.0903 57.5709 4.0903ZM58.0491 7.97212C57.823 9.45939 56.6867 9.45939 55.5873 9.45939H54.9624L55.4018 6.68182C55.4279 6.51394 55.5721 6.3903 55.7424 6.3903H56.0291C56.777 6.3903 57.4837 6.3903 57.8485 6.81697C58.0661 7.07151 58.1321 7.4497 58.0491 7.97212Z" fill="#179BD7"/>
    <path d="M69.96 7.92425H67.9763C67.806 7.92425 67.6612 8.04788 67.6357 8.21576L67.5479 8.77091L67.4085 8.5697C66.9788 7.94606 66.0212 7.73758 65.0648 7.73758C62.8715 7.73758 60.9988 9.39879 60.6339 11.7291C60.4448 12.8915 60.7133 14.003 61.3727 14.7782C61.9788 15.4909 62.843 15.7879 63.8727 15.7879C65.64 15.7879 66.62 14.6515 66.62 14.6515L66.5315 15.203C66.4982 15.4139 66.6606 15.603 66.8733 15.603H68.6606C68.9436 15.603 69.1848 15.397 69.2291 15.1164L70.3024 8.32303C70.3351 8.11394 70.1727 7.92425 69.96 7.92425ZM67.1933 11.7873C67.003 12.9212 66.1018 13.6824 64.9539 13.6824C64.3788 13.6824 63.9169 13.4976 63.6212 13.1473C63.3279 12.7994 63.2176 12.3042 63.3097 11.7527C63.4897 10.6285 64.4036 9.84243 65.5339 9.84243C66.0975 9.84243 66.5557 10.0297 66.8576 10.383C67.1612 10.74 67.2812 11.2382 67.1933 11.7873Z" fill="#179BD7"/>
    <path d="M72.3 4.38181L70.5988 15.2048C70.5654 15.4145 70.7279 15.6036 70.9394 15.6036H72.6497C72.9339 15.6036 73.1751 15.3976 73.2188 15.117L74.8964 4.48909C74.9297 4.27939 74.7673 4.08969 74.5557 4.08969H72.6406C72.4715 4.0903 72.326 4.21393 72.3 4.38181Z" fill="#179BD7"/>
    <path d="M4.40364 17.6691L4.72061 15.6558L4.01455 15.6394H0.643036L2.98607 0.78303C2.99334 0.738181 3.01698 0.696363 3.05152 0.666666C3.08607 0.636969 3.13031 0.620605 3.17637 0.620605H8.86122C10.7485 0.620605 12.0509 1.01333 12.7309 1.78848C13.0497 2.15212 13.2527 2.53212 13.3509 2.9503C13.4539 3.38909 13.4558 3.91333 13.3552 4.55273L13.3479 4.59939V5.00909L13.6667 5.1897C13.9352 5.33212 14.1485 5.49515 14.3121 5.68182C14.5849 5.99273 14.7612 6.38788 14.8358 6.85636C14.9127 7.33818 14.8873 7.91151 14.7612 8.56061C14.6158 9.30727 14.3806 9.95758 14.063 10.4897C13.7709 10.98 13.3988 11.3867 12.957 11.7018C12.5352 12.0012 12.0339 12.2285 11.4673 12.3739C10.9182 12.517 10.2921 12.5891 9.60546 12.5891H9.16304C8.84667 12.5891 8.5394 12.703 8.29819 12.9073C8.05637 13.1158 7.89637 13.4006 7.84728 13.7121L7.81395 13.8933L7.25395 17.4418L7.22849 17.5721C7.22183 17.6133 7.21031 17.6339 7.19334 17.6479C7.17819 17.6606 7.15637 17.6691 7.13516 17.6691H4.40364Z" fill="#253B80"/>
    <path d="M13.9685 4.64667C13.9515 4.75515 13.9321 4.86606 13.9103 4.98C13.1606 8.82909 10.5958 10.1588 7.32001 10.1588H5.65214C5.25153 10.1588 4.91395 10.4497 4.85153 10.8449L3.99759 16.2606L3.75577 17.7958C3.71517 18.0552 3.91517 18.2891 4.17698 18.2891H7.13517C7.48547 18.2891 7.78304 18.0345 7.8382 17.6891L7.86729 17.5388L8.42426 14.0042L8.46001 13.8103C8.51456 13.4636 8.81274 13.2091 9.16305 13.2091H9.60547C12.4715 13.2091 14.7152 12.0455 15.3709 8.67818C15.6449 7.27152 15.503 6.09697 14.7782 5.27091C14.5588 5.02182 14.2867 4.81515 13.9685 4.64667Z" fill="#179BD7"/>
    <path d="M13.1842 4.33394C13.0697 4.30061 12.9515 4.2703 12.8303 4.24303C12.7085 4.21637 12.5836 4.19273 12.4551 4.17212C12.0054 4.0994 11.5127 4.06485 10.9848 4.06485H6.52908C6.41938 4.06485 6.31514 4.0897 6.2218 4.13455C6.01635 4.23333 5.86362 4.42788 5.82665 4.66606L4.87877 10.6697L4.8515 10.8448C4.91393 10.4497 5.2515 10.1588 5.65211 10.1588H7.31999C10.5957 10.1588 13.1606 8.82849 13.9103 4.98C13.9327 4.86606 13.9515 4.75515 13.9685 4.64667C13.7788 4.54606 13.5733 4.46 13.3521 4.38667C13.2976 4.36849 13.2412 4.35091 13.1842 4.33394Z" fill="#222D65"/>
    <path d="M5.82666 4.66606C5.86363 4.42788 6.01636 4.23333 6.22181 4.13515C6.31575 4.0903 6.41939 4.06545 6.52909 4.06545H10.9848C11.5127 4.06545 12.0055 4.1 12.4551 4.17273C12.5836 4.19333 12.7085 4.21697 12.8303 4.24364C12.9515 4.27091 13.0697 4.30121 13.1842 4.33455C13.2412 4.35152 13.2976 4.36909 13.3527 4.38667C13.5739 4.46 13.7794 4.54667 13.9691 4.64667C14.1921 3.22424 13.9673 2.25576 13.1982 1.37879C12.3503 0.413333 10.82 0 8.86181 0H3.17696C2.77696 0 2.43575 0.290909 2.37393 0.686667L0.00605383 15.6958C-0.0406128 15.9927 0.188478 16.2606 0.487872 16.2606H3.99757L4.87878 10.6697L5.82666 4.66606Z" fill="#253B80"/>
</svg>
