<svg width="122" height="128" viewBox="0 0 122 128" fill="none" xmlns="http://www.w3.org/2000/svg">
    <path fill-rule="evenodd" clip-rule="evenodd" d="M115 19.0112C115 29.4885 106.489 38 95.9888 38C85.5115 38 77 29.4885 77 19.0112C77 8.51146 85.5115 0 95.9888 0C106.489 0 115 8.51146 115 19.0112ZM109 19.0076C109 26.1764 103.176 32 95.9924 32C88.8236 32 83 26.1764 83 19.0076C83 11.8236 88.8236 6 95.9924 6C103.176 6 109 11.8236 109 19.0076ZM96 12L89 19L96 26L103 19L96 12ZM65.921 44C66.6243 41.4527 67 38.7699 67 36C67 19.4232 53.5768 5.97981 37 6.00002C20.4232 6.00002 7 19.4232 7 36C7 39.4294 7.57536 42.7238 8.63462 45.7924C3.50441 48.4573 0 53.8194 0 60V112C0 120.837 7.16344 128 16 128H99C107.837 128 115 120.837 115 112V103H116C119.314 103 122 100.314 122 97V75C122 71.6863 119.314 69 116 69H115V60C115 51.1634 107.837 44 99 44H65.921ZM58.5699 44C59.4947 41.508 60 38.8126 60 36C60 23.2911 49.7089 12.9845 37 13C24.2911 13 14 23.2911 14 36C14 38.8174 14.5065 41.5159 15.4332 44.0098C15.6213 44.0033 15.8103 44 16 44H29L21 36L37 20L53 36L45 44H58.5699ZM37 29L30 36L37 43L44 36L37 29ZM16 51H99C103.971 51 108 55.0294 108 60V69H87C77.6112 69 70 76.6112 70 86C70 95.3888 77.6112 103 87 103H108V112C108 116.971 103.971 121 99 121H16C11.0294 121 7 116.971 7 112V60C7 55.0294 11.0294 51 16 51ZM87 76H115V96H87C81.4771 96 77 91.5229 77 86C77 80.4772 81.4771 76 87 76ZM87 92C90.3025 92 93 89.3277 93 86C93 82.6975 90.3277 80 87 80C83.6975 80 81 82.6975 81 86C81 89.3025 83.6723 92 87 92Z" fill="#C2DEFF"/>
</svg>
