<svg width="48" height="32" viewBox="0 0 48 32" fill="none" xmlns="http://www.w3.org/2000/svg">
    <path d="M47.409 6.08766C46.936 5.73944 46.3048 5.72771 45.82 6.05818L37.7484 11.5595C37.0972 12.0032 36.9196 12.9112 37.3528 13.5821C37.8171 14.3009 38.0624 15.137 38.0624 16.0001C38.0624 18.4062 36.1699 20.3637 33.8437 20.3637C31.5175 20.3637 29.6249 18.4062 29.6249 16.0001C29.6249 14.5855 30.2997 13.2514 31.4302 12.4313C32.0656 11.9703 32.2198 11.064 31.7747 10.4063L25.152 0.620412C24.8889 0.231564 24.4589 0 24.0001 0C23.5412 0 23.1112 0.231564 22.8481 0.620412L16.2254 10.4062C15.7803 11.0639 15.9344 11.9701 16.5699 12.4311C17.7003 13.2512 18.3751 14.5853 18.3751 15.9999C18.3751 18.406 16.4826 20.3635 14.1564 20.3635C11.8301 20.3635 9.93762 18.406 9.93762 15.9999C9.93762 15.1368 10.183 14.3007 10.6472 13.5819C11.0803 12.9111 10.9029 12.0031 10.2516 11.5593L2.18003 6.05799C1.69525 5.72761 1.06385 5.73934 0.590975 6.08747C0.117915 6.43568 -0.0995844 7.04882 0.0433836 7.63083L5.76211 30.9036C5.94229 31.6365 6.63492 32.1042 7.35623 31.98C18.4002 30.0761 29.5998 30.0761 40.6437 31.98C41.366 32.1045 42.0581 31.6351 42.2378 30.9036L47.9565 7.63083C48.0997 7.04902 47.8821 6.43588 47.409 6.08766V6.08766ZM39.8286 28.8988C34.5732 28.0616 29.2871 27.6431 24.0001 27.6431C18.713 27.6431 13.4269 28.0616 8.17147 28.8988L3.66334 10.5529L7.64188 13.2645C7.30157 14.1283 7.12513 15.0543 7.12513 16C7.12513 20.0102 10.2793 23.2727 14.1564 23.2727C18.0334 23.2727 21.1876 20.0102 21.1876 16C21.1876 14.1283 20.4826 12.3428 19.2544 11.0035L24.0001 3.99098L28.7458 11.0035C27.5174 12.3429 26.8125 14.1283 26.8125 16.0001C26.8125 20.0103 29.9667 23.2728 33.8438 23.2728C37.7208 23.2728 40.875 20.0103 40.875 16.0001C40.875 15.0544 40.6985 14.1284 40.3582 13.2646L44.3368 10.553L39.8286 28.8988Z" fill="url(#paint0_linear_2768_108928)"/>
    <defs>
        <linearGradient id="paint0_linear_2768_108928" x1="24" y1="0" x2="24" y2="32" gradientUnits="userSpaceOnUse">
            <stop stop-color="#FFA800"/>
            <stop offset="1" stop-color="#FF8A00"/>
        </linearGradient>
    </defs>
</svg>
