<svg width="256" height="256" viewBox="0 0 256 256" fill="none" xmlns="http://www.w3.org/2000/svg">
    <g clip-path="url(#clip0_915_7652)">
        <path d="M51.2 25.6001H25.6V51.2001H51.2V25.6001Z" fill="black"/>
        <path d="M179.2 0V12.8H166.4V25.6H179.2V76.8H192V89.6H179.2V102.4H192H204.8V76.8H243.2V89.6H256V76.8V0H179.2ZM243.2 64H192V12.8H243.2V64Z" fill="black"/>
        <path d="M230.4 25.6001H204.8V51.2001H230.4V25.6001Z" fill="black"/>
        <path d="M51.2 204.8H25.6V230.4H51.2V204.8Z" fill="black"/>
        <path d="M192 179.2H179.2V192H192V179.2Z" fill="black"/>
        <path d="M128 243.2H115.2V256H128V243.2Z" fill="black"/>
        <path d="M140.8 192H128V204.8H140.8V192Z" fill="black"/>
        <path d="M140.8 217.6H128V230.4H140.8V217.6Z" fill="black"/>
        <path d="M256 153.6H243.2V166.4H256V153.6Z" fill="black"/>
        <path d="M12.8 153.6H0V166.4H12.8V153.6Z" fill="black"/>
        <path d="M12.8 89.6001H0V102.4H12.8V89.6001Z" fill="black"/>
        <path d="M140.8 12.8V25.6H115.2V38.4001H153.6V25.6V12.8H140.8Z" fill="black"/>
        <path d="M243.2 102.4V115.2H217.6V128H179.2V115.2H166.4V128H140.8V140.8H179.2V153.6H153.6H140.8V140.8H128V153.6H115.2V140.8H102.4V153.6H89.6V166.4H115.2V179.2H128V166.4H153.6V179.2H140.8V192H153.6V217.6H166.4V230.4H179.2V217.6H217.6V192H230.4V179.2H217.6V153.6H192V140.8H217.6V153.6H230.4V140.8H243.2V128H256V115.2V102.4H243.2ZM204.8 166.4V204.8H166.4V166.4H204.8Z" fill="black"/>
        <path d="M166.4 76.8H153.6V89.6H140.8V102.4V115.2H153.6V102.4H166.4V89.6H179.2V76.8H166.4Z" fill="black"/>
        <path d="M166.4 243.2H140.8V256H166.4V243.2Z" fill="black"/>
        <path d="M115.2 12.8H102.4V25.6001H115.2V12.8Z" fill="black"/>
        <path d="M217.6 102.4H204.8V115.2H217.6V102.4Z" fill="black"/>
        <path d="M230.4 89.6001H217.6V102.4H230.4V89.6001Z" fill="black"/>
        <path d="M64 153.6H51.2V166.4H64V153.6Z" fill="black"/>
        <path d="M76.8 243.2V192H89.6V179.2V166.4H76.8V179.2H38.4V166.4H25.6H12.8V179.2H0V256H76.8H102.4V243.2H76.8ZM64 243.2H12.8V192H64V243.2Z" fill="black"/>
        <path d="M89.6 76.8H76.8V89.6H89.6V76.8Z" fill="black"/>
        <path d="M89.6 0H76.8H0V76.8H12.8V89.6H25.6V76.8H38.4V89.6H51.2V76.8H76.8V51.2H89.6V38.4H76.8V12.8H89.6H102.4V0H89.6ZM64 64H12.8V12.8H64V64Z" fill="black"/>
        <path d="M166.4 38.3999H153.6V51.1999H166.4V38.3999Z" fill="black"/>
        <path d="M140.8 0H128V12.8H140.8V0Z" fill="black"/>
        <path d="M153.6 76.8V64H140.8V51.2H128V64H102.4V51.2H89.6V64V76.8H102.4V102.4H64V89.5999H51.2V102.4H12.8V115.2H38.4V128H0V140.8H38.4V153.6H51.2V140.8H64V153.6H76.8V140.8H102.4V128H89.6V115.2H102.4H115.2V128H128H140.8V115.2H128V102.4H115.2V76.8H153.6ZM76.8 128H51.2V115.2H76.8V128Z" fill="black"/>
        <path d="M115.2 204.8V192V179.2H102.4V192H89.6V204.8H102.4V217.6H89.6V230.4H115.2V217.6H128V204.8H115.2Z" fill="black"/>
        <path d="M230.4 230.4V217.6H217.6V230.4H179.2V243.2H204.8V256H217.6V243.2H243.2V256H256V243.2V230.4H230.4Z" fill="black"/>
        <path d="M243.2 179.2V192H230.4V204.8H256V192V179.2H243.2Z" fill="black"/>
    </g>
    <defs>
        <clipPath id="clip0_915_7652">
            <rect width="256" height="256" fill="white"/>
        </clipPath>
    </defs>
</svg>
